<mxfile host="app.diagrams.net" modified="2023-06-07T16:03:39.405Z" agent="Mozilla/5.0 (X11; Ubuntu; Linux x86_64; rv:109.0) Gecko/20100101 Firefox/113.0" etag="AI0l2-WJsSmxJfvhGxxD" version="21.3.7" type="device" pages="4">
  <diagram id="fC97jBpM_xTiCUfCGoVt" name="SSRAM_to_hRAM">
    <mxGraphModel dx="808" dy="454" grid="1" gridSize="10" guides="1" tooltips="1" connect="1" arrows="1" fold="1" page="1" pageScale="1" pageWidth="850" pageHeight="1100" math="0" shadow="0">
      <root>
        <mxCell id="0" />
        <mxCell id="1" parent="0" />
        <mxCell id="tyazFwi2D3Fx87An2y98-1" value="" style="rounded=0;whiteSpace=wrap;html=1;" parent="1" vertex="1">
          <mxGeometry x="240" y="200" width="320" height="480" as="geometry" />
        </mxCell>
        <mxCell id="tyazFwi2D3Fx87An2y98-13" value="hbus_DQ" style="text;html=1;align=right;verticalAlign=middle;resizable=0;points=[];autosize=1;strokeColor=none;fillColor=none;fontSize=15;" parent="1" vertex="1">
          <mxGeometry x="460" y="345" width="90" height="30" as="geometry" />
        </mxCell>
        <mxCell id="tyazFwi2D3Fx87An2y98-14" value="hbus_CS_n" style="text;html=1;align=right;verticalAlign=middle;resizable=0;points=[];autosize=1;strokeColor=none;fillColor=none;fontSize=15;" parent="1" vertex="1">
          <mxGeometry x="450" y="425" width="100" height="30" as="geometry" />
        </mxCell>
        <mxCell id="tyazFwi2D3Fx87An2y98-15" value="hbus_CK" style="text;html=1;align=right;verticalAlign=middle;resizable=0;points=[];autosize=1;strokeColor=none;fillColor=none;fontSize=15;" parent="1" vertex="1">
          <mxGeometry x="460" y="505" width="90" height="30" as="geometry" />
        </mxCell>
        <mxCell id="tyazFwi2D3Fx87An2y98-16" value="&lt;div&gt;hbus_RESET_n&lt;/div&gt;" style="text;html=1;align=right;verticalAlign=middle;resizable=0;points=[];autosize=1;strokeColor=none;fillColor=none;fontSize=15;" parent="1" vertex="1">
          <mxGeometry x="420" y="465" width="130" height="30" as="geometry" />
        </mxCell>
        <mxCell id="tyazFwi2D3Fx87An2y98-17" value="&lt;div&gt;hbus_RWDS&lt;/div&gt;" style="text;html=1;align=right;verticalAlign=middle;resizable=0;points=[];autosize=1;strokeColor=none;fillColor=none;fontSize=15;" parent="1" vertex="1">
          <mxGeometry x="440" y="385" width="110" height="30" as="geometry" />
        </mxCell>
        <mxCell id="tyazFwi2D3Fx87An2y98-18" value="SSRAM_to_hRAM" style="rounded=0;whiteSpace=wrap;html=1;fontSize=15;" parent="1" vertex="1">
          <mxGeometry x="240" y="160" width="320" height="40" as="geometry" />
        </mxCell>
        <mxCell id="tyazFwi2D3Fx87An2y98-27" value="" style="endArrow=classic;html=1;rounded=0;fontSize=15;" parent="1" edge="1">
          <mxGeometry width="50" height="50" relative="1" as="geometry">
            <mxPoint x="560" y="520" as="sourcePoint" />
            <mxPoint x="620" y="520" as="targetPoint" />
          </mxGeometry>
        </mxCell>
        <mxCell id="tyazFwi2D3Fx87An2y98-29" value="1" style="text;html=1;align=center;verticalAlign=middle;resizable=0;points=[];autosize=1;strokeColor=none;fillColor=none;fontSize=15;" parent="1" vertex="1">
          <mxGeometry x="580" y="500" width="20" height="20" as="geometry" />
        </mxCell>
        <mxCell id="tyazFwi2D3Fx87An2y98-30" value="" style="endArrow=classic;html=1;rounded=0;fontSize=15;" parent="1" edge="1">
          <mxGeometry width="50" height="50" relative="1" as="geometry">
            <mxPoint x="560" y="479.9999999999999" as="sourcePoint" />
            <mxPoint x="620" y="479.9999999999999" as="targetPoint" />
          </mxGeometry>
        </mxCell>
        <mxCell id="tyazFwi2D3Fx87An2y98-31" value="1" style="text;html=1;align=center;verticalAlign=middle;resizable=0;points=[];autosize=1;strokeColor=none;fillColor=none;fontSize=15;" parent="1" vertex="1">
          <mxGeometry x="580" y="460" width="20" height="20" as="geometry" />
        </mxCell>
        <mxCell id="tyazFwi2D3Fx87An2y98-32" value="" style="endArrow=classic;html=1;rounded=0;fontSize=15;" parent="1" edge="1">
          <mxGeometry width="50" height="50" relative="1" as="geometry">
            <mxPoint x="560" y="439.9999999999999" as="sourcePoint" />
            <mxPoint x="620" y="439.9999999999999" as="targetPoint" />
          </mxGeometry>
        </mxCell>
        <mxCell id="tyazFwi2D3Fx87An2y98-33" value="1" style="text;html=1;align=center;verticalAlign=middle;resizable=0;points=[];autosize=1;strokeColor=none;fillColor=none;fontSize=15;" parent="1" vertex="1">
          <mxGeometry x="580" y="420" width="20" height="20" as="geometry" />
        </mxCell>
        <mxCell id="tyazFwi2D3Fx87An2y98-34" value="" style="endArrow=classic;html=1;rounded=0;fontSize=15;startArrow=classic;startFill=1;" parent="1" edge="1">
          <mxGeometry width="50" height="50" relative="1" as="geometry">
            <mxPoint x="560" y="399.9999999999999" as="sourcePoint" />
            <mxPoint x="620" y="399.9999999999999" as="targetPoint" />
          </mxGeometry>
        </mxCell>
        <mxCell id="tyazFwi2D3Fx87An2y98-35" value="1" style="text;html=1;align=center;verticalAlign=middle;resizable=0;points=[];autosize=1;strokeColor=none;fillColor=none;fontSize=15;" parent="1" vertex="1">
          <mxGeometry x="580" y="380" width="20" height="20" as="geometry" />
        </mxCell>
        <mxCell id="tyazFwi2D3Fx87An2y98-48" value="" style="endArrow=classic;html=1;rounded=0;fontSize=15;startArrow=classic;startFill=1;" parent="1" edge="1">
          <mxGeometry width="50" height="50" relative="1" as="geometry">
            <mxPoint x="560" y="359.9999999999999" as="sourcePoint" />
            <mxPoint x="620" y="359.9999999999999" as="targetPoint" />
          </mxGeometry>
        </mxCell>
        <mxCell id="tyazFwi2D3Fx87An2y98-49" value="8" style="text;html=1;align=center;verticalAlign=middle;resizable=0;points=[];autosize=1;strokeColor=none;fillColor=none;fontSize=15;" parent="1" vertex="1">
          <mxGeometry x="580" y="340" width="20" height="20" as="geometry" />
        </mxCell>
        <mxCell id="ZhGK623JIX5hzIh3tK1e-1" value="" style="endArrow=classic;html=1;rounded=0;fontSize=15;" parent="1" edge="1">
          <mxGeometry width="50" height="50" relative="1" as="geometry">
            <mxPoint x="180" y="400" as="sourcePoint" />
            <mxPoint x="240" y="400" as="targetPoint" />
          </mxGeometry>
        </mxCell>
        <mxCell id="ZhGK623JIX5hzIh3tK1e-2" value="1" style="text;html=1;align=center;verticalAlign=middle;resizable=0;points=[];autosize=1;strokeColor=none;fillColor=none;fontSize=15;" parent="1" vertex="1">
          <mxGeometry x="200" y="419.31" width="20" height="20" as="geometry" />
        </mxCell>
        <mxCell id="ZhGK623JIX5hzIh3tK1e-3" value="" style="endArrow=classic;html=1;rounded=0;fontSize=15;" parent="1" edge="1">
          <mxGeometry width="50" height="50" relative="1" as="geometry">
            <mxPoint x="180" y="359.9999999999999" as="sourcePoint" />
            <mxPoint x="240" y="359.9999999999999" as="targetPoint" />
          </mxGeometry>
        </mxCell>
        <mxCell id="ZhGK623JIX5hzIh3tK1e-4" value="1" style="text;html=1;align=center;verticalAlign=middle;resizable=0;points=[];autosize=1;strokeColor=none;fillColor=none;fontSize=15;" parent="1" vertex="1">
          <mxGeometry x="200" y="379.31" width="20" height="20" as="geometry" />
        </mxCell>
        <mxCell id="ZhGK623JIX5hzIh3tK1e-5" value="" style="endArrow=classic;html=1;rounded=0;fontSize=15;" parent="1" edge="1">
          <mxGeometry width="50" height="50" relative="1" as="geometry">
            <mxPoint x="180" y="440" as="sourcePoint" />
            <mxPoint x="240" y="440" as="targetPoint" />
          </mxGeometry>
        </mxCell>
        <mxCell id="ZhGK623JIX5hzIh3tK1e-6" value="1" style="text;html=1;align=center;verticalAlign=middle;resizable=0;points=[];autosize=1;strokeColor=none;fillColor=none;fontSize=15;" parent="1" vertex="1">
          <mxGeometry x="200" y="220" width="20" height="20" as="geometry" />
        </mxCell>
        <mxCell id="ZhGK623JIX5hzIh3tK1e-7" value="" style="endArrow=none;html=1;rounded=0;fontSize=15;startArrow=classic;startFill=1;endFill=0;" parent="1" edge="1">
          <mxGeometry width="50" height="50" relative="1" as="geometry">
            <mxPoint x="180" y="560" as="sourcePoint" />
            <mxPoint x="240" y="560" as="targetPoint" />
          </mxGeometry>
        </mxCell>
        <mxCell id="ZhGK623JIX5hzIh3tK1e-8" value="32" style="text;html=1;align=center;verticalAlign=middle;resizable=0;points=[];autosize=1;strokeColor=none;fillColor=none;fontSize=15;" parent="1" vertex="1">
          <mxGeometry x="190" y="255" width="40" height="30" as="geometry" />
        </mxCell>
        <mxCell id="ZhGK623JIX5hzIh3tK1e-9" value="&lt;font style=&quot;font-size: 15px;&quot;&gt;ssram_&lt;/font&gt;&lt;font style=&quot;font-size: 15px;&quot;&gt;&lt;font style=&quot;font-size: 15px;&quot;&gt;address&lt;/font&gt;&lt;/font&gt;" style="text;html=1;align=left;verticalAlign=middle;resizable=0;points=[];autosize=1;strokeColor=none;fillColor=none;" parent="1" vertex="1">
          <mxGeometry x="250" y="265" width="130" height="30" as="geometry" />
        </mxCell>
        <mxCell id="ZhGK623JIX5hzIh3tK1e-10" value="&lt;font style=&quot;font-size: 15px;&quot;&gt;ssram_&lt;/font&gt;&lt;font style=&quot;font-size: 15px;&quot;&gt;out&lt;/font&gt;" style="text;html=1;align=left;verticalAlign=middle;resizable=0;points=[];autosize=1;strokeColor=none;fillColor=none;" parent="1" vertex="1">
          <mxGeometry x="250" y="465" width="90" height="30" as="geometry" />
        </mxCell>
        <mxCell id="ZhGK623JIX5hzIh3tK1e-11" value="&lt;font style=&quot;font-size: 15px;&quot;&gt;ssram_i&lt;/font&gt;&lt;font style=&quot;font-size: 15px;&quot;&gt;n&lt;/font&gt;" style="text;html=1;align=left;verticalAlign=middle;resizable=0;points=[];autosize=1;strokeColor=none;fillColor=none;" parent="1" vertex="1">
          <mxGeometry x="250" y="345" width="80" height="30" as="geometry" />
        </mxCell>
        <mxCell id="ZhGK623JIX5hzIh3tK1e-12" value="&lt;font style=&quot;font-size: 15px;&quot;&gt;ssram_&lt;/font&gt;&lt;font style=&quot;font-size: 15px;&quot;&gt;&lt;font style=&quot;font-size: 15px;&quot;&gt;validout&lt;/font&gt;&lt;/font&gt;" style="text;html=1;align=left;verticalAlign=middle;resizable=0;points=[];autosize=1;strokeColor=none;fillColor=none;" parent="1" vertex="1">
          <mxGeometry x="250" y="505" width="120" height="30" as="geometry" />
        </mxCell>
        <mxCell id="ZhGK623JIX5hzIh3tK1e-13" value="&lt;font style=&quot;font-size: 15px;&quot;&gt;ssram_&lt;/font&gt;&lt;font style=&quot;font-size: 15px;&quot;&gt;WE&lt;/font&gt;" style="text;html=1;align=left;verticalAlign=middle;resizable=0;points=[];autosize=1;strokeColor=none;fillColor=none;rotation=0;" parent="1" vertex="1">
          <mxGeometry x="250" y="425" width="100" height="30" as="geometry" />
        </mxCell>
        <mxCell id="ZhGK623JIX5hzIh3tK1e-14" value="&lt;font style=&quot;font-size: 15px;&quot;&gt;ssram_&lt;/font&gt;&lt;font style=&quot;font-size: 15px;&quot;&gt;OE&lt;/font&gt;" style="text;html=1;align=left;verticalAlign=middle;resizable=0;points=[];autosize=1;strokeColor=none;fillColor=none;rotation=0;" parent="1" vertex="1">
          <mxGeometry x="250" y="385" width="90" height="30" as="geometry" />
        </mxCell>
        <mxCell id="ZhGK623JIX5hzIh3tK1e-15" value="&lt;font style=&quot;font-size: 15px;&quot;&gt;ssram_&lt;/font&gt;&lt;font style=&quot;font-size: 15px;&quot;&gt;busy&lt;/font&gt;" style="text;html=1;align=left;verticalAlign=middle;resizable=0;points=[];autosize=1;strokeColor=none;fillColor=none;" parent="1" vertex="1">
          <mxGeometry x="250" y="545" width="100" height="30" as="geometry" />
        </mxCell>
        <mxCell id="ZhGK623JIX5hzIh3tK1e-16" value="&lt;font style=&quot;font-size: 15px;&quot;&gt;ssram_&lt;/font&gt;&lt;font style=&quot;font-size: 15px;&quot;&gt;&lt;font style=&quot;font-size: 15px;&quot;&gt;CS&lt;/font&gt;&lt;/font&gt;" style="text;html=1;align=left;verticalAlign=middle;resizable=0;points=[];autosize=1;strokeColor=none;fillColor=none;" parent="1" vertex="1">
          <mxGeometry x="250" y="225" width="90" height="30" as="geometry" />
        </mxCell>
        <mxCell id="ZhGK623JIX5hzIh3tK1e-17" value="" style="endArrow=none;html=1;rounded=0;fontSize=15;startArrow=classic;startFill=1;endFill=0;" parent="1" edge="1">
          <mxGeometry width="50" height="50" relative="1" as="geometry">
            <mxPoint x="180" y="520" as="sourcePoint" />
            <mxPoint x="240" y="520" as="targetPoint" />
          </mxGeometry>
        </mxCell>
        <mxCell id="ZhGK623JIX5hzIh3tK1e-18" value="" style="endArrow=none;html=1;rounded=0;fontSize=15;startArrow=classic;startFill=1;endFill=0;" parent="1" edge="1">
          <mxGeometry width="50" height="50" relative="1" as="geometry">
            <mxPoint x="180" y="480" as="sourcePoint" />
            <mxPoint x="240" y="480" as="targetPoint" />
          </mxGeometry>
        </mxCell>
        <mxCell id="ZhGK623JIX5hzIh3tK1e-19" value="" style="endArrow=classic;html=1;rounded=0;fontSize=15;" parent="1" edge="1">
          <mxGeometry width="50" height="50" relative="1" as="geometry">
            <mxPoint x="180" y="280" as="sourcePoint" />
            <mxPoint x="240" y="280" as="targetPoint" />
          </mxGeometry>
        </mxCell>
        <mxCell id="ZhGK623JIX5hzIh3tK1e-20" value="" style="endArrow=classic;html=1;rounded=0;fontSize=15;" parent="1" edge="1">
          <mxGeometry width="50" height="50" relative="1" as="geometry">
            <mxPoint x="180" y="239.9999999999999" as="sourcePoint" />
            <mxPoint x="240" y="239.9999999999999" as="targetPoint" />
          </mxGeometry>
        </mxCell>
        <mxCell id="ZhGK623JIX5hzIh3tK1e-21" value="1" style="text;html=1;align=center;verticalAlign=middle;resizable=0;points=[];autosize=1;strokeColor=none;fillColor=none;fontSize=15;" parent="1" vertex="1">
          <mxGeometry x="200" y="540" width="20" height="20" as="geometry" />
        </mxCell>
        <mxCell id="ZhGK623JIX5hzIh3tK1e-22" value="1" style="text;html=1;align=center;verticalAlign=middle;resizable=0;points=[];autosize=1;strokeColor=none;fillColor=none;fontSize=15;" parent="1" vertex="1">
          <mxGeometry x="200" y="500" width="20" height="20" as="geometry" />
        </mxCell>
        <mxCell id="ZhGK623JIX5hzIh3tK1e-23" value="16" style="text;html=1;align=center;verticalAlign=middle;resizable=0;points=[];autosize=1;strokeColor=none;fillColor=none;fontSize=15;" parent="1" vertex="1">
          <mxGeometry x="195" y="340" width="30" height="20" as="geometry" />
        </mxCell>
        <mxCell id="ZhGK623JIX5hzIh3tK1e-24" value="16" style="text;html=1;align=center;verticalAlign=middle;resizable=0;points=[];autosize=1;strokeColor=none;fillColor=none;fontSize=15;" parent="1" vertex="1">
          <mxGeometry x="195" y="459.31" width="30" height="20" as="geometry" />
        </mxCell>
        <mxCell id="zCnSquokP6mfLWG539p--1" value="" style="endArrow=classic;html=1;rounded=0;fontSize=15;" parent="1" edge="1">
          <mxGeometry width="50" height="50" relative="1" as="geometry">
            <mxPoint x="180" y="599.69" as="sourcePoint" />
            <mxPoint x="240" y="599.69" as="targetPoint" />
          </mxGeometry>
        </mxCell>
        <mxCell id="zCnSquokP6mfLWG539p--2" value="1" style="text;html=1;align=center;verticalAlign=middle;resizable=0;points=[];autosize=1;strokeColor=none;fillColor=none;fontSize=15;" parent="1" vertex="1">
          <mxGeometry x="200" y="579" width="20" height="20" as="geometry" />
        </mxCell>
        <mxCell id="zCnSquokP6mfLWG539p--3" value="&lt;font style=&quot;font-size: 15px;&quot;&gt;ssram_clear_n&lt;/font&gt;" style="text;html=1;align=left;verticalAlign=middle;resizable=0;points=[];autosize=1;strokeColor=none;fillColor=none;rotation=0;" parent="1" vertex="1">
          <mxGeometry x="250" y="584.69" width="120" height="30" as="geometry" />
        </mxCell>
        <mxCell id="orZyeERTgXqRaT8NUcbc-2" value="" style="endArrow=classic;html=1;rounded=0;fontSize=15;" parent="1" edge="1">
          <mxGeometry width="50" height="50" relative="1" as="geometry">
            <mxPoint x="180" y="639.7600000000001" as="sourcePoint" />
            <mxPoint x="240" y="639.7600000000001" as="targetPoint" />
          </mxGeometry>
        </mxCell>
        <mxCell id="orZyeERTgXqRaT8NUcbc-3" value="1" style="text;html=1;align=center;verticalAlign=middle;resizable=0;points=[];autosize=1;strokeColor=none;fillColor=none;fontSize=15;" parent="1" vertex="1">
          <mxGeometry x="200" y="620" width="20" height="20" as="geometry" />
        </mxCell>
        <mxCell id="orZyeERTgXqRaT8NUcbc-4" value="&lt;font style=&quot;font-size: 15px;&quot;&gt;clk&lt;/font&gt;" style="text;html=1;align=left;verticalAlign=middle;resizable=0;points=[];autosize=1;strokeColor=none;fillColor=none;rotation=0;" parent="1" vertex="1">
          <mxGeometry x="250" y="625" width="40" height="30" as="geometry" />
        </mxCell>
        <mxCell id="Z6dNXG4MUtQDv4BpPoF5-1" value="" style="endArrow=classic;html=1;rounded=0;fontSize=15;" parent="1" edge="1">
          <mxGeometry width="50" height="50" relative="1" as="geometry">
            <mxPoint x="180" y="320" as="sourcePoint" />
            <mxPoint x="240" y="320" as="targetPoint" />
          </mxGeometry>
        </mxCell>
        <mxCell id="Z6dNXG4MUtQDv4BpPoF5-2" value="1" style="text;html=1;align=center;verticalAlign=middle;resizable=0;points=[];autosize=1;strokeColor=none;fillColor=none;fontSize=15;" parent="1" vertex="1">
          <mxGeometry x="200" y="299.31" width="20" height="20" as="geometry" />
        </mxCell>
        <mxCell id="Z6dNXG4MUtQDv4BpPoF5-3" value="&lt;font style=&quot;font-size: 15px;&quot;&gt;ssram_address_spacing&lt;/font&gt;" style="text;html=1;align=left;verticalAlign=middle;resizable=0;points=[];autosize=1;strokeColor=none;fillColor=none;rotation=0;" parent="1" vertex="1">
          <mxGeometry x="250" y="305" width="190" height="30" as="geometry" />
        </mxCell>
      </root>
    </mxGraphModel>
  </diagram>
  <diagram name="SSRAM_to_hRAM: RTL" id="CWa_I18QifZxpjuJ7Wsr">
    <mxGraphModel dx="1262" dy="701" grid="1" gridSize="10" guides="1" tooltips="1" connect="1" arrows="1" fold="1" page="1" pageScale="1" pageWidth="850" pageHeight="1100" math="0" shadow="0">
      <root>
        <mxCell id="gw0M7WNjvELjQq90fpm7-0" />
        <mxCell id="gw0M7WNjvELjQq90fpm7-1" parent="gw0M7WNjvELjQq90fpm7-0" />
        <mxCell id="gw0M7WNjvELjQq90fpm7-2" style="edgeStyle=orthogonalEdgeStyle;rounded=0;orthogonalLoop=1;jettySize=auto;html=1;fontSize=15;" edge="1" parent="gw0M7WNjvELjQq90fpm7-1">
          <mxGeometry relative="1" as="geometry">
            <mxPoint x="1199" y="320" as="targetPoint" />
            <mxPoint x="1160" y="320" as="sourcePoint" />
          </mxGeometry>
        </mxCell>
        <mxCell id="gw0M7WNjvELjQq90fpm7-3" style="edgeStyle=orthogonalEdgeStyle;rounded=0;orthogonalLoop=1;jettySize=auto;html=1;" edge="1" parent="gw0M7WNjvELjQq90fpm7-1">
          <mxGeometry relative="1" as="geometry">
            <mxPoint x="1199" y="360" as="targetPoint" />
            <mxPoint x="1120" y="360" as="sourcePoint" />
          </mxGeometry>
        </mxCell>
        <mxCell id="gw0M7WNjvELjQq90fpm7-4" style="edgeStyle=orthogonalEdgeStyle;rounded=0;orthogonalLoop=1;jettySize=auto;html=1;" edge="1" parent="gw0M7WNjvELjQq90fpm7-1">
          <mxGeometry relative="1" as="geometry">
            <mxPoint x="1199" y="400" as="targetPoint" />
            <mxPoint x="1080" y="400" as="sourcePoint" />
          </mxGeometry>
        </mxCell>
        <mxCell id="gw0M7WNjvELjQq90fpm7-5" style="edgeStyle=orthogonalEdgeStyle;rounded=0;orthogonalLoop=1;jettySize=auto;html=1;" edge="1" parent="gw0M7WNjvELjQq90fpm7-1">
          <mxGeometry relative="1" as="geometry">
            <mxPoint x="1300" y="600" as="targetPoint" />
            <mxPoint x="740" y="600" as="sourcePoint" />
            <Array as="points">
              <mxPoint x="770" y="600" />
              <mxPoint x="770" y="600" />
            </Array>
          </mxGeometry>
        </mxCell>
        <mxCell id="gw0M7WNjvELjQq90fpm7-6" style="edgeStyle=orthogonalEdgeStyle;rounded=0;orthogonalLoop=1;jettySize=auto;html=1;startArrow=oval;startFill=1;" edge="1" parent="gw0M7WNjvELjQq90fpm7-1">
          <mxGeometry relative="1" as="geometry">
            <mxPoint x="400" y="599" as="targetPoint" />
            <mxPoint x="280" y="799" as="sourcePoint" />
            <Array as="points">
              <mxPoint x="280" y="599" />
              <mxPoint x="400" y="599" />
            </Array>
          </mxGeometry>
        </mxCell>
        <mxCell id="gw0M7WNjvELjQq90fpm7-7" value="row_upCol_addr: register" style="rounded=0;whiteSpace=wrap;html=1;direction=south;horizontal=0;fontSize=15;" vertex="1" parent="gw0M7WNjvELjQq90fpm7-1">
          <mxGeometry x="400" y="509" width="40" height="180" as="geometry" />
        </mxCell>
        <mxCell id="gw0M7WNjvELjQq90fpm7-8" style="edgeStyle=orthogonalEdgeStyle;rounded=0;orthogonalLoop=1;jettySize=auto;html=1;exitX=0.5;exitY=0;exitDx=0;exitDy=0;" edge="1" parent="gw0M7WNjvELjQq90fpm7-1" source="gw0M7WNjvELjQq90fpm7-10">
          <mxGeometry relative="1" as="geometry">
            <mxPoint x="1200" y="1000" as="targetPoint" />
            <Array as="points">
              <mxPoint x="990" y="1000" />
              <mxPoint x="990" y="1000" />
            </Array>
          </mxGeometry>
        </mxCell>
        <mxCell id="gw0M7WNjvELjQq90fpm7-9" style="edgeStyle=orthogonalEdgeStyle;rounded=0;orthogonalLoop=1;jettySize=auto;html=1;entryX=0.5;entryY=1;entryDx=0;entryDy=0;" edge="1" parent="gw0M7WNjvELjQq90fpm7-1" target="gw0M7WNjvELjQq90fpm7-10">
          <mxGeometry relative="1" as="geometry">
            <mxPoint x="200" y="799" as="sourcePoint" />
            <Array as="points">
              <mxPoint x="280" y="799" />
              <mxPoint x="280" y="1000" />
            </Array>
          </mxGeometry>
        </mxCell>
        <mxCell id="gw0M7WNjvELjQq90fpm7-10" value="lowCol_addr: register" style="rounded=0;whiteSpace=wrap;html=1;direction=south;horizontal=0;fontSize=15;" vertex="1" parent="gw0M7WNjvELjQq90fpm7-1">
          <mxGeometry x="400" y="920" width="40" height="160" as="geometry" />
        </mxCell>
        <mxCell id="gw0M7WNjvELjQq90fpm7-11" value="" style="triangle;whiteSpace=wrap;html=1;direction=north;fontSize=15;" vertex="1" parent="gw0M7WNjvELjQq90fpm7-1">
          <mxGeometry x="430" y="679" width="10" height="10" as="geometry" />
        </mxCell>
        <mxCell id="gw0M7WNjvELjQq90fpm7-12" value="" style="triangle;whiteSpace=wrap;html=1;direction=north;fontSize=15;" vertex="1" parent="gw0M7WNjvELjQq90fpm7-1">
          <mxGeometry x="430" y="1070" width="10" height="10" as="geometry" />
        </mxCell>
        <mxCell id="gw0M7WNjvELjQq90fpm7-13" value="5" style="text;html=1;align=left;verticalAlign=middle;resizable=0;points=[];autosize=1;strokeColor=none;fillColor=none;fontSize=15;" vertex="1" parent="gw0M7WNjvELjQq90fpm7-1">
          <mxGeometry x="1209" y="384" width="30" height="30" as="geometry" />
        </mxCell>
        <mxCell id="gw0M7WNjvELjQq90fpm7-14" value="4 downto 0" style="text;html=1;align=left;verticalAlign=middle;resizable=0;points=[];autosize=1;strokeColor=none;fillColor=none;fontSize=15;" vertex="1" parent="gw0M7WNjvELjQq90fpm7-1">
          <mxGeometry x="1209" y="425" width="100" height="30" as="geometry" />
        </mxCell>
        <mxCell id="gw0M7WNjvELjQq90fpm7-15" value="18 downto 16" style="text;html=1;align=left;verticalAlign=middle;resizable=0;points=[];autosize=1;strokeColor=none;fillColor=none;fontSize=15;rotation=0;" vertex="1" parent="gw0M7WNjvELjQq90fpm7-1">
          <mxGeometry x="625" y="519.25" width="110" height="30" as="geometry" />
        </mxCell>
        <mxCell id="gw0M7WNjvELjQq90fpm7-16" value="" style="endArrow=none;html=1;rounded=0;" edge="1" parent="gw0M7WNjvELjQq90fpm7-1">
          <mxGeometry width="50" height="50" relative="1" as="geometry">
            <mxPoint x="620" y="760" as="sourcePoint" />
            <mxPoint x="440" y="600" as="targetPoint" />
            <Array as="points">
              <mxPoint x="620" y="600" />
            </Array>
          </mxGeometry>
        </mxCell>
        <mxCell id="gw0M7WNjvELjQq90fpm7-17" value="15 downto 8" style="text;html=1;align=left;verticalAlign=middle;resizable=0;points=[];autosize=1;strokeColor=none;fillColor=none;fontSize=15;rotation=0;" vertex="1" parent="gw0M7WNjvELjQq90fpm7-1">
          <mxGeometry x="625" y="649.25" width="100" height="30" as="geometry" />
        </mxCell>
        <mxCell id="gw0M7WNjvELjQq90fpm7-18" style="edgeStyle=orthogonalEdgeStyle;rounded=0;orthogonalLoop=1;jettySize=auto;html=1;startArrow=oval;startFill=1;" edge="1" parent="gw0M7WNjvELjQq90fpm7-1">
          <mxGeometry relative="1" as="geometry">
            <mxPoint x="1300" y="680" as="targetPoint" />
            <mxPoint x="620" y="680" as="sourcePoint" />
            <Array as="points">
              <mxPoint x="1300" y="680" />
            </Array>
          </mxGeometry>
        </mxCell>
        <mxCell id="gw0M7WNjvELjQq90fpm7-19" value="" style="endArrow=none;html=1;rounded=0;strokeWidth=4;" edge="1" parent="gw0M7WNjvELjQq90fpm7-1">
          <mxGeometry width="50" height="50" relative="1" as="geometry">
            <mxPoint x="1199" y="519" as="sourcePoint" />
            <mxPoint x="1199" y="279" as="targetPoint" />
          </mxGeometry>
        </mxCell>
        <mxCell id="gw0M7WNjvELjQq90fpm7-20" value="6" style="text;html=1;align=left;verticalAlign=middle;resizable=0;points=[];autosize=1;strokeColor=none;fillColor=none;fontSize=15;" vertex="1" parent="gw0M7WNjvELjQq90fpm7-1">
          <mxGeometry x="1209" y="344" width="30" height="30" as="geometry" />
        </mxCell>
        <mxCell id="gw0M7WNjvELjQq90fpm7-21" value="7 " style="text;html=1;align=left;verticalAlign=middle;resizable=0;points=[];autosize=1;strokeColor=none;fillColor=none;fontSize=15;" vertex="1" parent="gw0M7WNjvELjQq90fpm7-1">
          <mxGeometry x="1209" y="304" width="30" height="30" as="geometry" />
        </mxCell>
        <mxCell id="gw0M7WNjvELjQq90fpm7-22" style="edgeStyle=orthogonalEdgeStyle;rounded=0;orthogonalLoop=1;jettySize=auto;html=1;" edge="1" parent="gw0M7WNjvELjQq90fpm7-1">
          <mxGeometry relative="1" as="geometry">
            <mxPoint x="1300" y="760" as="targetPoint" />
            <mxPoint x="620" y="760" as="sourcePoint" />
            <Array as="points">
              <mxPoint x="760" y="760" />
              <mxPoint x="760" y="760" />
            </Array>
          </mxGeometry>
        </mxCell>
        <mxCell id="gw0M7WNjvELjQq90fpm7-23" value="7 downto 0" style="text;html=1;align=left;verticalAlign=middle;resizable=0;points=[];autosize=1;strokeColor=none;fillColor=none;fontSize=15;rotation=0;" vertex="1" parent="gw0M7WNjvELjQq90fpm7-1">
          <mxGeometry x="625" y="728.75" width="100" height="30" as="geometry" />
        </mxCell>
        <mxCell id="gw0M7WNjvELjQq90fpm7-24" value="&quot;00000000&quot;" style="text;html=1;align=right;verticalAlign=middle;resizable=0;points=[];autosize=1;strokeColor=none;fillColor=none;fontSize=15;" vertex="1" parent="gw0M7WNjvELjQq90fpm7-1">
          <mxGeometry x="1050" y="824.5" width="100" height="30" as="geometry" />
        </mxCell>
        <mxCell id="gw0M7WNjvELjQq90fpm7-25" value="&quot;00000&quot;" style="text;html=1;align=right;verticalAlign=middle;resizable=0;points=[];autosize=1;strokeColor=none;fillColor=none;fontSize=15;" vertex="1" parent="gw0M7WNjvELjQq90fpm7-1">
          <mxGeometry x="1040" y="1026" width="80" height="30" as="geometry" />
        </mxCell>
        <mxCell id="gw0M7WNjvELjQq90fpm7-26" value="" style="endArrow=classic;html=1;rounded=0;" edge="1" parent="gw0M7WNjvELjQq90fpm7-1">
          <mxGeometry width="50" height="50" relative="1" as="geometry">
            <mxPoint x="1139" y="1041" as="sourcePoint" />
            <mxPoint x="1199" y="1041" as="targetPoint" />
          </mxGeometry>
        </mxCell>
        <mxCell id="gw0M7WNjvELjQq90fpm7-27" value="" style="endArrow=none;html=1;rounded=0;strokeWidth=4;" edge="1" parent="gw0M7WNjvELjQq90fpm7-1">
          <mxGeometry width="50" height="50" relative="1" as="geometry">
            <mxPoint x="1199" y="1080" as="sourcePoint" />
            <mxPoint x="1199" y="919" as="targetPoint" />
          </mxGeometry>
        </mxCell>
        <mxCell id="gw0M7WNjvELjQq90fpm7-28" value="" style="endArrow=classic;html=1;rounded=0;" edge="1" parent="gw0M7WNjvELjQq90fpm7-1">
          <mxGeometry width="50" height="50" relative="1" as="geometry">
            <mxPoint x="1200" y="519" as="sourcePoint" />
            <mxPoint x="1300" y="519" as="targetPoint" />
          </mxGeometry>
        </mxCell>
        <mxCell id="gw0M7WNjvELjQq90fpm7-29" value="" style="endArrow=classic;html=1;rounded=0;" edge="1" parent="gw0M7WNjvELjQq90fpm7-1">
          <mxGeometry width="50" height="50" relative="1" as="geometry">
            <mxPoint x="1160" y="839" as="sourcePoint" />
            <mxPoint x="1300" y="839" as="targetPoint" />
          </mxGeometry>
        </mxCell>
        <mxCell id="gw0M7WNjvELjQq90fpm7-30" value="" style="endArrow=classic;html=1;rounded=0;" edge="1" parent="gw0M7WNjvELjQq90fpm7-1">
          <mxGeometry width="50" height="50" relative="1" as="geometry">
            <mxPoint x="1160" y="919" as="sourcePoint" />
            <mxPoint x="1300" y="919" as="targetPoint" />
          </mxGeometry>
        </mxCell>
        <mxCell id="gw0M7WNjvELjQq90fpm7-31" value="CA0_A" style="text;html=1;align=center;verticalAlign=middle;resizable=0;points=[];autosize=1;strokeColor=none;fillColor=none;fontSize=15;" vertex="1" parent="gw0M7WNjvELjQq90fpm7-1">
          <mxGeometry x="1230" y="489" width="70" height="30" as="geometry" />
        </mxCell>
        <mxCell id="gw0M7WNjvELjQq90fpm7-32" style="edgeStyle=orthogonalEdgeStyle;rounded=0;orthogonalLoop=1;jettySize=auto;html=1;strokeColor=#00FF00;" edge="1" parent="gw0M7WNjvELjQq90fpm7-1">
          <mxGeometry relative="1" as="geometry">
            <mxPoint x="1360" y="479" as="targetPoint" />
            <mxPoint x="1360.21" y="239" as="sourcePoint" />
          </mxGeometry>
        </mxCell>
        <mxCell id="gw0M7WNjvELjQq90fpm7-33" style="edgeStyle=orthogonalEdgeStyle;rounded=0;orthogonalLoop=1;jettySize=auto;html=1;exitX=0.5;exitY=1;exitDx=0;exitDy=0;" edge="1" parent="gw0M7WNjvELjQq90fpm7-1" source="gw0M7WNjvELjQq90fpm7-34">
          <mxGeometry relative="1" as="geometry">
            <mxPoint x="1440" y="1420" as="targetPoint" />
            <Array as="points">
              <mxPoint x="1360" y="1420" />
            </Array>
          </mxGeometry>
        </mxCell>
        <mxCell id="gw0M7WNjvELjQq90fpm7-34" value="&lt;font style=&quot;font-size: 15px;&quot;&gt;CA: byte_shifter_ddr&lt;/font&gt;" style="rounded=0;whiteSpace=wrap;html=1;horizontal=0;" vertex="1" parent="gw0M7WNjvELjQq90fpm7-1">
          <mxGeometry x="1300" y="479" width="120" height="480" as="geometry" />
        </mxCell>
        <mxCell id="gw0M7WNjvELjQq90fpm7-35" value="" style="triangle;whiteSpace=wrap;html=1;direction=south;fontSize=15;" vertex="1" parent="gw0M7WNjvELjQq90fpm7-1">
          <mxGeometry x="1410" y="479" width="10" height="10" as="geometry" />
        </mxCell>
        <mxCell id="gw0M7WNjvELjQq90fpm7-36" value="&lt;font style=&quot;font-size: 15px;&quot;&gt;ssram_&lt;/font&gt;&lt;font style=&quot;font-size: 15px;&quot;&gt;&lt;font style=&quot;font-size: 15px;&quot;&gt;address&lt;/font&gt;&lt;/font&gt;" style="text;html=1;align=right;verticalAlign=middle;resizable=0;points=[];autosize=1;strokeColor=none;fillColor=none;" vertex="1" parent="gw0M7WNjvELjQq90fpm7-1">
          <mxGeometry x="49" y="784.5" width="130" height="30" as="geometry" />
        </mxCell>
        <mxCell id="gw0M7WNjvELjQq90fpm7-37" value="&lt;font style=&quot;font-size: 15px;&quot;&gt;ssram_&lt;/font&gt;&lt;font style=&quot;font-size: 15px;&quot;&gt;out&lt;/font&gt;" style="text;html=1;align=right;verticalAlign=middle;resizable=0;points=[];autosize=1;strokeColor=none;fillColor=none;" vertex="1" parent="gw0M7WNjvELjQq90fpm7-1">
          <mxGeometry x="89" y="1945" width="90" height="30" as="geometry" />
        </mxCell>
        <mxCell id="gw0M7WNjvELjQq90fpm7-38" value="&lt;font style=&quot;font-size: 15px;&quot;&gt;ssram_i&lt;/font&gt;&lt;font style=&quot;font-size: 15px;&quot;&gt;n&lt;/font&gt;" style="text;html=1;align=right;verticalAlign=middle;resizable=0;points=[];autosize=1;strokeColor=none;fillColor=none;" vertex="1" parent="gw0M7WNjvELjQq90fpm7-1">
          <mxGeometry x="100" y="1284" width="80" height="30" as="geometry" />
        </mxCell>
        <mxCell id="gw0M7WNjvELjQq90fpm7-39" value="&lt;font style=&quot;font-size: 15px;&quot;&gt;ssram_&lt;/font&gt;&lt;font style=&quot;font-size: 15px;&quot;&gt;&lt;font style=&quot;font-size: 15px;&quot;&gt;validout&lt;/font&gt;&lt;/font&gt;" style="text;html=1;align=right;verticalAlign=middle;resizable=0;points=[];autosize=1;strokeColor=none;fillColor=none;" vertex="1" parent="gw0M7WNjvELjQq90fpm7-1">
          <mxGeometry x="59" y="1864" width="120" height="30" as="geometry" />
        </mxCell>
        <mxCell id="gw0M7WNjvELjQq90fpm7-40" value="&lt;font style=&quot;font-size: 15px;&quot;&gt;ssram_&lt;/font&gt;&lt;font style=&quot;font-size: 15px;&quot;&gt;WE&lt;/font&gt;" style="text;html=1;align=right;verticalAlign=middle;resizable=0;points=[];autosize=1;strokeColor=none;fillColor=none;rotation=0;" vertex="1" parent="gw0M7WNjvELjQq90fpm7-1">
          <mxGeometry x="79" y="2463" width="100" height="30" as="geometry" />
        </mxCell>
        <mxCell id="gw0M7WNjvELjQq90fpm7-41" value="&lt;font style=&quot;font-size: 15px;&quot;&gt;ssram_&lt;/font&gt;&lt;font style=&quot;font-size: 15px;&quot;&gt;OE&lt;/font&gt;" style="text;html=1;align=right;verticalAlign=middle;resizable=0;points=[];autosize=1;strokeColor=none;fillColor=none;rotation=0;" vertex="1" parent="gw0M7WNjvELjQq90fpm7-1">
          <mxGeometry x="89" y="2423" width="90" height="30" as="geometry" />
        </mxCell>
        <mxCell id="gw0M7WNjvELjQq90fpm7-42" value="&lt;font style=&quot;font-size: 15px;&quot;&gt;ssram_&lt;/font&gt;&lt;font style=&quot;font-size: 15px;&quot;&gt;busy&lt;/font&gt;" style="text;html=1;align=right;verticalAlign=middle;resizable=0;points=[];autosize=1;strokeColor=none;fillColor=none;" vertex="1" parent="gw0M7WNjvELjQq90fpm7-1">
          <mxGeometry x="79" y="344" width="100" height="30" as="geometry" />
        </mxCell>
        <mxCell id="gw0M7WNjvELjQq90fpm7-43" value="" style="endArrow=classic;html=1;rounded=0;" edge="1" parent="gw0M7WNjvELjQq90fpm7-1">
          <mxGeometry width="50" height="50" relative="1" as="geometry">
            <mxPoint x="420" y="360" as="sourcePoint" />
            <mxPoint x="200" y="360" as="targetPoint" />
          </mxGeometry>
        </mxCell>
        <mxCell id="gw0M7WNjvELjQq90fpm7-44" value="&lt;font style=&quot;font-size: 15px;&quot;&gt;busy&lt;/font&gt;" style="text;html=1;align=right;verticalAlign=middle;resizable=0;points=[];autosize=1;strokeColor=none;fillColor=none;rotation=90;" vertex="1" parent="gw0M7WNjvELjQq90fpm7-1">
          <mxGeometry x="395" y="177" width="50" height="30" as="geometry" />
        </mxCell>
        <mxCell id="gw0M7WNjvELjQq90fpm7-45" value="" style="endArrow=classic;html=1;rounded=0;strokeColor=#00FF00;" edge="1" parent="gw0M7WNjvELjQq90fpm7-1">
          <mxGeometry width="50" height="50" relative="1" as="geometry">
            <mxPoint x="420" y="240" as="sourcePoint" />
            <mxPoint x="420" y="360" as="targetPoint" />
          </mxGeometry>
        </mxCell>
        <mxCell id="gw0M7WNjvELjQq90fpm7-46" value="" style="endArrow=classic;html=1;rounded=0;strokeColor=#00FF00;" edge="1" parent="gw0M7WNjvELjQq90fpm7-1">
          <mxGeometry width="50" height="50" relative="1" as="geometry">
            <mxPoint x="1160" y="240" as="sourcePoint" />
            <mxPoint x="1160" y="320" as="targetPoint" />
          </mxGeometry>
        </mxCell>
        <mxCell id="gw0M7WNjvELjQq90fpm7-47" value="read_writeN" style="text;html=1;align=right;verticalAlign=middle;resizable=0;points=[];autosize=1;strokeColor=none;fillColor=none;rotation=90;fontSize=15;" vertex="1" parent="gw0M7WNjvELjQq90fpm7-1">
          <mxGeometry x="1109" y="154" width="100" height="30" as="geometry" />
        </mxCell>
        <mxCell id="gw0M7WNjvELjQq90fpm7-48" value="" style="endArrow=classic;html=1;rounded=0;strokeColor=#00FF00;" edge="1" parent="gw0M7WNjvELjQq90fpm7-1">
          <mxGeometry width="50" height="50" relative="1" as="geometry">
            <mxPoint x="1080" y="240" as="sourcePoint" />
            <mxPoint x="1080" y="400" as="targetPoint" />
          </mxGeometry>
        </mxCell>
        <mxCell id="gw0M7WNjvELjQq90fpm7-49" value="burst_type" style="text;html=1;align=right;verticalAlign=middle;resizable=0;points=[];autosize=1;strokeColor=none;fillColor=none;rotation=90;fontSize=15;" vertex="1" parent="gw0M7WNjvELjQq90fpm7-1">
          <mxGeometry x="1035" y="159" width="90" height="30" as="geometry" />
        </mxCell>
        <mxCell id="gw0M7WNjvELjQq90fpm7-50" value="21 downto 3" style="text;html=1;align=center;verticalAlign=middle;resizable=0;points=[];autosize=1;strokeColor=none;fillColor=none;fontSize=15;rotation=0;" vertex="1" parent="gw0M7WNjvELjQq90fpm7-1">
          <mxGeometry x="290" y="568.5" width="100" height="30" as="geometry" />
        </mxCell>
        <mxCell id="gw0M7WNjvELjQq90fpm7-51" value="32" style="text;html=1;align=center;verticalAlign=middle;resizable=0;points=[];autosize=1;strokeColor=none;fillColor=none;fontSize=15;rotation=0;" vertex="1" parent="gw0M7WNjvELjQq90fpm7-1">
          <mxGeometry x="224" y="764" width="40" height="30" as="geometry" />
        </mxCell>
        <mxCell id="gw0M7WNjvELjQq90fpm7-52" value="2 downto 0" style="text;html=1;align=center;verticalAlign=middle;resizable=0;points=[];autosize=1;strokeColor=none;fillColor=none;fontSize=15;rotation=0;" vertex="1" parent="gw0M7WNjvELjQq90fpm7-1">
          <mxGeometry x="290" y="969" width="100" height="30" as="geometry" />
        </mxCell>
        <mxCell id="gw0M7WNjvELjQq90fpm7-53" value="2 downto 0" style="text;html=1;align=left;verticalAlign=middle;resizable=0;points=[];autosize=1;strokeColor=none;fillColor=none;fontSize=15;rotation=0;" vertex="1" parent="gw0M7WNjvELjQq90fpm7-1">
          <mxGeometry x="1209" y="984" width="100" height="30" as="geometry" />
        </mxCell>
        <mxCell id="gw0M7WNjvELjQq90fpm7-54" value="7 downto 3" style="text;html=1;align=left;verticalAlign=middle;resizable=0;points=[];autosize=1;strokeColor=none;fillColor=none;fontSize=15;rotation=0;" vertex="1" parent="gw0M7WNjvELjQq90fpm7-1">
          <mxGeometry x="1209" y="1026" width="100" height="30" as="geometry" />
        </mxCell>
        <mxCell id="gw0M7WNjvELjQq90fpm7-55" value="ca_shift" style="text;html=1;align=right;verticalAlign=middle;resizable=0;points=[];autosize=1;strokeColor=none;fillColor=none;rotation=90;fontSize=15;" vertex="1" parent="gw0M7WNjvELjQq90fpm7-1">
          <mxGeometry x="1320" y="164" width="80" height="30" as="geometry" />
        </mxCell>
        <mxCell id="gw0M7WNjvELjQq90fpm7-56" style="edgeStyle=orthogonalEdgeStyle;rounded=0;orthogonalLoop=1;jettySize=auto;html=1;strokeColor=#00FF00;" edge="1" parent="gw0M7WNjvELjQq90fpm7-1">
          <mxGeometry relative="1" as="geometry">
            <mxPoint x="1320" y="479" as="targetPoint" />
            <mxPoint x="1320.21" y="239" as="sourcePoint" />
          </mxGeometry>
        </mxCell>
        <mxCell id="gw0M7WNjvELjQq90fpm7-57" value="ca_load" style="text;html=1;align=right;verticalAlign=middle;resizable=0;points=[];autosize=1;strokeColor=none;fillColor=none;rotation=90;fontSize=15;" vertex="1" parent="gw0M7WNjvELjQq90fpm7-1">
          <mxGeometry x="1280" y="164" width="80" height="30" as="geometry" />
        </mxCell>
        <mxCell id="gw0M7WNjvELjQq90fpm7-58" style="edgeStyle=orthogonalEdgeStyle;rounded=0;orthogonalLoop=1;jettySize=auto;html=1;" edge="1" parent="gw0M7WNjvELjQq90fpm7-1">
          <mxGeometry relative="1" as="geometry">
            <mxPoint x="480" y="1240" as="targetPoint" />
            <mxPoint x="200" y="1300" as="sourcePoint" />
            <Array as="points">
              <mxPoint x="280" y="1300" />
              <mxPoint x="280" y="1240" />
            </Array>
          </mxGeometry>
        </mxCell>
        <mxCell id="gw0M7WNjvELjQq90fpm7-59" style="edgeStyle=orthogonalEdgeStyle;rounded=0;orthogonalLoop=1;jettySize=auto;html=1;exitX=1;exitY=0.5;exitDx=0;exitDy=0;" edge="1" parent="gw0M7WNjvELjQq90fpm7-1" source="gw0M7WNjvELjQq90fpm7-61">
          <mxGeometry relative="1" as="geometry">
            <mxPoint x="1440" y="1460" as="targetPoint" />
            <Array as="points">
              <mxPoint x="540" y="1460" />
            </Array>
          </mxGeometry>
        </mxCell>
        <mxCell id="gw0M7WNjvELjQq90fpm7-60" style="edgeStyle=orthogonalEdgeStyle;rounded=0;orthogonalLoop=1;jettySize=auto;html=1;entryX=0;entryY=0.5;entryDx=0;entryDy=0;strokeColor=#00FF00;" edge="1" parent="gw0M7WNjvELjQq90fpm7-1" target="gw0M7WNjvELjQq90fpm7-61">
          <mxGeometry relative="1" as="geometry">
            <mxPoint x="540" y="240" as="sourcePoint" />
            <Array as="points">
              <mxPoint x="540" y="1160" />
              <mxPoint x="540" y="1160" />
            </Array>
          </mxGeometry>
        </mxCell>
        <mxCell id="gw0M7WNjvELjQq90fpm7-61" value="writedata: byte_shifter_ddr" style="rounded=0;whiteSpace=wrap;html=1;direction=south;horizontal=0;fontSize=15;" vertex="1" parent="gw0M7WNjvELjQq90fpm7-1">
          <mxGeometry x="480" y="1199" width="120" height="200" as="geometry" />
        </mxCell>
        <mxCell id="gw0M7WNjvELjQq90fpm7-62" value="" style="triangle;whiteSpace=wrap;html=1;direction=west;fontSize=15;" vertex="1" parent="gw0M7WNjvELjQq90fpm7-1">
          <mxGeometry x="590" y="1389" width="10" height="10" as="geometry" />
        </mxCell>
        <mxCell id="gw0M7WNjvELjQq90fpm7-63" style="edgeStyle=orthogonalEdgeStyle;rounded=0;orthogonalLoop=1;jettySize=auto;html=1;strokeColor=#00FF00;" edge="1" parent="gw0M7WNjvELjQq90fpm7-1">
          <mxGeometry relative="1" as="geometry">
            <mxPoint x="580" y="1200" as="targetPoint" />
            <mxPoint x="580" y="240" as="sourcePoint" />
            <Array as="points">
              <mxPoint x="580" y="1160" />
              <mxPoint x="580" y="1160" />
            </Array>
          </mxGeometry>
        </mxCell>
        <mxCell id="gw0M7WNjvELjQq90fpm7-64" style="edgeStyle=orthogonalEdgeStyle;rounded=0;orthogonalLoop=1;jettySize=auto;html=1;strokeColor=#00FF00;" edge="1" parent="gw0M7WNjvELjQq90fpm7-1">
          <mxGeometry relative="1" as="geometry">
            <mxPoint x="500" y="1200" as="targetPoint" />
            <mxPoint x="500" y="240" as="sourcePoint" />
            <Array as="points">
              <mxPoint x="500" y="300" />
              <mxPoint x="500" y="300" />
            </Array>
          </mxGeometry>
        </mxCell>
        <mxCell id="gw0M7WNjvELjQq90fpm7-65" value="writedata_load" style="text;html=1;align=right;verticalAlign=middle;resizable=0;points=[];autosize=1;strokeColor=none;fillColor=none;rotation=90;fontSize=15;" vertex="1" parent="gw0M7WNjvELjQq90fpm7-1">
          <mxGeometry x="440" y="144" width="120" height="30" as="geometry" />
        </mxCell>
        <mxCell id="gw0M7WNjvELjQq90fpm7-66" value="writedata_shift" style="text;html=1;align=right;verticalAlign=middle;resizable=0;points=[];autosize=1;strokeColor=none;fillColor=none;rotation=90;fontSize=15;" vertex="1" parent="gw0M7WNjvELjQq90fpm7-1">
          <mxGeometry x="520" y="142" width="120" height="30" as="geometry" />
        </mxCell>
        <mxCell id="gw0M7WNjvELjQq90fpm7-67" value="7 downto 0" style="text;html=1;align=center;verticalAlign=middle;resizable=0;points=[];autosize=1;strokeColor=none;fillColor=none;fontSize=15;rotation=90;" vertex="1" parent="gw0M7WNjvELjQq90fpm7-1">
          <mxGeometry x="1295" y="1029" width="100" height="30" as="geometry" />
        </mxCell>
        <mxCell id="gw0M7WNjvELjQq90fpm7-68" value="15 downto 8" style="text;html=1;align=center;verticalAlign=middle;resizable=0;points=[];autosize=1;strokeColor=none;fillColor=none;fontSize=15;rotation=0;" vertex="1" parent="gw0M7WNjvELjQq90fpm7-1">
          <mxGeometry x="290" y="1209" width="100" height="30" as="geometry" />
        </mxCell>
        <mxCell id="gw0M7WNjvELjQq90fpm7-69" value="&lt;div&gt;7 downto 0&lt;/div&gt;" style="text;html=1;align=center;verticalAlign=middle;resizable=0;points=[];autosize=1;strokeColor=none;fillColor=none;fontSize=15;rotation=0;" vertex="1" parent="gw0M7WNjvELjQq90fpm7-1">
          <mxGeometry x="290" y="1330" width="100" height="30" as="geometry" />
        </mxCell>
        <mxCell id="gw0M7WNjvELjQq90fpm7-70" style="edgeStyle=orthogonalEdgeStyle;rounded=0;orthogonalLoop=1;jettySize=auto;html=1;exitX=0.5;exitY=0;exitDx=0;exitDy=0;" edge="1" parent="gw0M7WNjvELjQq90fpm7-1">
          <mxGeometry relative="1" as="geometry">
            <mxPoint x="2040" y="1440" as="targetPoint" />
            <mxPoint x="1460" y="1440" as="sourcePoint" />
          </mxGeometry>
        </mxCell>
        <mxCell id="gw0M7WNjvELjQq90fpm7-71" value="" style="shape=trapezoid;perimeter=trapezoidPerimeter;whiteSpace=wrap;html=1;fixedSize=1;direction=south;" vertex="1" parent="gw0M7WNjvELjQq90fpm7-1">
          <mxGeometry x="1440" y="1379" width="40" height="120" as="geometry" />
        </mxCell>
        <mxCell id="gw0M7WNjvELjQq90fpm7-72" value="1" style="text;html=1;align=center;verticalAlign=middle;resizable=0;points=[];autosize=1;strokeColor=none;fillColor=none;fontSize=15;" vertex="1" parent="gw0M7WNjvELjQq90fpm7-1">
          <mxGeometry x="1436" y="1404" width="30" height="30" as="geometry" />
        </mxCell>
        <mxCell id="gw0M7WNjvELjQq90fpm7-73" value="0" style="text;html=1;align=center;verticalAlign=middle;resizable=0;points=[];autosize=1;strokeColor=none;fillColor=none;fontSize=15;" vertex="1" parent="gw0M7WNjvELjQq90fpm7-1">
          <mxGeometry x="1436" y="1445" width="30" height="30" as="geometry" />
        </mxCell>
        <mxCell id="gw0M7WNjvELjQq90fpm7-74" style="edgeStyle=orthogonalEdgeStyle;rounded=0;orthogonalLoop=1;jettySize=auto;html=1;strokeColor=#00FF00;entryX=0;entryY=0.5;entryDx=0;entryDy=0;" edge="1" parent="gw0M7WNjvELjQq90fpm7-1" target="gw0M7WNjvELjQq90fpm7-71">
          <mxGeometry relative="1" as="geometry">
            <mxPoint x="1170" y="1379" as="targetPoint" />
            <mxPoint x="1460" y="240" as="sourcePoint" />
            <Array as="points">
              <mxPoint x="1460" y="1389" />
            </Array>
          </mxGeometry>
        </mxCell>
        <mxCell id="gw0M7WNjvELjQq90fpm7-75" value="dqout_sel" style="text;html=1;align=right;verticalAlign=middle;resizable=0;points=[];autosize=1;strokeColor=none;fillColor=none;rotation=90;fontSize=15;" vertex="1" parent="gw0M7WNjvELjQq90fpm7-1">
          <mxGeometry x="1416" y="159" width="90" height="30" as="geometry" />
        </mxCell>
        <mxCell id="gw0M7WNjvELjQq90fpm7-76" style="edgeStyle=orthogonalEdgeStyle;rounded=0;orthogonalLoop=1;jettySize=auto;html=1;entryX=1;entryY=0.5;entryDx=0;entryDy=0;startArrow=oval;startFill=1;" edge="1" parent="gw0M7WNjvELjQq90fpm7-1" target="gw0M7WNjvELjQq90fpm7-77">
          <mxGeometry relative="1" as="geometry">
            <mxPoint x="1720" y="1440" as="sourcePoint" />
            <Array as="points">
              <mxPoint x="1720" y="1979" />
              <mxPoint x="860" y="1979" />
            </Array>
            <mxPoint x="1020" y="1569" as="targetPoint" />
          </mxGeometry>
        </mxCell>
        <mxCell id="gw0M7WNjvELjQq90fpm7-77" value="readdata: byte_shifter_ddr" style="rounded=0;whiteSpace=wrap;html=1;direction=south;horizontal=0;fontSize=15;verticalAlign=middle;" vertex="1" parent="gw0M7WNjvELjQq90fpm7-1">
          <mxGeometry x="830" y="1720" width="60" height="200" as="geometry" />
        </mxCell>
        <mxCell id="gw0M7WNjvELjQq90fpm7-78" value="" style="triangle;whiteSpace=wrap;html=1;direction=west;fontSize=15;" vertex="1" parent="gw0M7WNjvELjQq90fpm7-1">
          <mxGeometry x="880" y="1815" width="10" height="10" as="geometry" />
        </mxCell>
        <mxCell id="gw0M7WNjvELjQq90fpm7-79" style="edgeStyle=orthogonalEdgeStyle;rounded=0;orthogonalLoop=1;jettySize=auto;html=1;" edge="1" parent="gw0M7WNjvELjQq90fpm7-1">
          <mxGeometry relative="1" as="geometry">
            <mxPoint x="743" y="1780" as="targetPoint" />
            <mxPoint x="830" y="1780" as="sourcePoint" />
            <Array as="points">
              <mxPoint x="750" y="1780.66" />
              <mxPoint x="750" y="1780.66" />
            </Array>
          </mxGeometry>
        </mxCell>
        <mxCell id="gw0M7WNjvELjQq90fpm7-80" style="edgeStyle=orthogonalEdgeStyle;rounded=0;orthogonalLoop=1;jettySize=auto;html=1;" edge="1" parent="gw0M7WNjvELjQq90fpm7-1">
          <mxGeometry relative="1" as="geometry">
            <mxPoint x="743" y="1860" as="targetPoint" />
            <mxPoint x="830" y="1860" as="sourcePoint" />
            <Array as="points">
              <mxPoint x="770" y="1860.66" />
              <mxPoint x="770" y="1860.66" />
            </Array>
          </mxGeometry>
        </mxCell>
        <mxCell id="gw0M7WNjvELjQq90fpm7-81" value="" style="endArrow=classic;html=1;rounded=0;" edge="1" parent="gw0M7WNjvELjQq90fpm7-1">
          <mxGeometry width="50" height="50" relative="1" as="geometry">
            <mxPoint x="741" y="1920" as="sourcePoint" />
            <mxPoint x="621" y="1920" as="targetPoint" />
          </mxGeometry>
        </mxCell>
        <mxCell id="gw0M7WNjvELjQq90fpm7-82" value="15 downto 8" style="text;html=1;align=right;verticalAlign=middle;resizable=0;points=[];autosize=1;strokeColor=none;fillColor=none;fontSize=15;rotation=0;" vertex="1" parent="gw0M7WNjvELjQq90fpm7-1">
          <mxGeometry x="635" y="1767" width="100" height="30" as="geometry" />
        </mxCell>
        <mxCell id="gw0M7WNjvELjQq90fpm7-83" value="7 downto 0" style="text;html=1;align=right;verticalAlign=middle;resizable=0;points=[];autosize=1;strokeColor=none;fillColor=none;fontSize=15;rotation=0;" vertex="1" parent="gw0M7WNjvELjQq90fpm7-1">
          <mxGeometry x="635" y="1847" width="100" height="30" as="geometry" />
        </mxCell>
        <mxCell id="gw0M7WNjvELjQq90fpm7-84" value="" style="endArrow=classic;html=1;rounded=0;" edge="1" parent="gw0M7WNjvELjQq90fpm7-1">
          <mxGeometry width="50" height="50" relative="1" as="geometry">
            <mxPoint x="200" y="2479" as="sourcePoint" />
            <mxPoint x="280" y="2479" as="targetPoint" />
          </mxGeometry>
        </mxCell>
        <mxCell id="gw0M7WNjvELjQq90fpm7-85" value="" style="endArrow=classic;html=1;rounded=0;" edge="1" parent="gw0M7WNjvELjQq90fpm7-1">
          <mxGeometry width="50" height="50" relative="1" as="geometry">
            <mxPoint x="200" y="2439" as="sourcePoint" />
            <mxPoint x="319" y="2439" as="targetPoint" />
          </mxGeometry>
        </mxCell>
        <mxCell id="gw0M7WNjvELjQq90fpm7-86" value="" style="endArrow=classic;html=1;rounded=0;" edge="1" parent="gw0M7WNjvELjQq90fpm7-1">
          <mxGeometry width="50" height="50" relative="1" as="geometry">
            <mxPoint x="200" y="2399" as="sourcePoint" />
            <mxPoint x="360" y="2399" as="targetPoint" />
          </mxGeometry>
        </mxCell>
        <mxCell id="gw0M7WNjvELjQq90fpm7-87" value="" style="endArrow=classic;html=1;rounded=0;strokeColor=#FF0000;" edge="1" parent="gw0M7WNjvELjQq90fpm7-1">
          <mxGeometry width="50" height="50" relative="1" as="geometry">
            <mxPoint x="280" y="2479" as="sourcePoint" />
            <mxPoint x="280" y="2559" as="targetPoint" />
          </mxGeometry>
        </mxCell>
        <mxCell id="gw0M7WNjvELjQq90fpm7-88" value="" style="endArrow=classic;html=1;rounded=0;strokeColor=#FF0000;" edge="1" parent="gw0M7WNjvELjQq90fpm7-1">
          <mxGeometry width="50" height="50" relative="1" as="geometry">
            <mxPoint x="320" y="2439" as="sourcePoint" />
            <mxPoint x="320" y="2559" as="targetPoint" />
          </mxGeometry>
        </mxCell>
        <mxCell id="gw0M7WNjvELjQq90fpm7-89" value="" style="endArrow=classic;html=1;rounded=0;strokeColor=#FF0000;" edge="1" parent="gw0M7WNjvELjQq90fpm7-1">
          <mxGeometry width="50" height="50" relative="1" as="geometry">
            <mxPoint x="360" y="2399" as="sourcePoint" />
            <mxPoint x="360" y="2559" as="targetPoint" />
          </mxGeometry>
        </mxCell>
        <mxCell id="gw0M7WNjvELjQq90fpm7-90" value="WE" style="text;html=1;align=left;verticalAlign=middle;resizable=0;points=[];autosize=1;strokeColor=none;fillColor=none;rotation=90;fontSize=15;" vertex="1" parent="gw0M7WNjvELjQq90fpm7-1">
          <mxGeometry x="255.5" y="2588" width="50" height="30" as="geometry" />
        </mxCell>
        <mxCell id="gw0M7WNjvELjQq90fpm7-91" value="OE" style="text;html=1;align=left;verticalAlign=middle;resizable=0;points=[];autosize=1;strokeColor=none;fillColor=none;rotation=90;fontSize=15;" vertex="1" parent="gw0M7WNjvELjQq90fpm7-1">
          <mxGeometry x="294.5" y="2588" width="50" height="30" as="geometry" />
        </mxCell>
        <mxCell id="gw0M7WNjvELjQq90fpm7-92" value="hbus_DQ" style="text;html=1;align=left;verticalAlign=middle;resizable=0;points=[];autosize=1;strokeColor=none;fillColor=none;fontSize=15;" vertex="1" parent="gw0M7WNjvELjQq90fpm7-1">
          <mxGeometry x="2060" y="1424" width="90" height="30" as="geometry" />
        </mxCell>
        <mxCell id="gw0M7WNjvELjQq90fpm7-93" value="hbus_CS_n" style="text;html=1;align=left;verticalAlign=middle;resizable=0;points=[];autosize=1;strokeColor=none;fillColor=none;fontSize=15;" vertex="1" parent="gw0M7WNjvELjQq90fpm7-1">
          <mxGeometry x="2060" y="1534" width="100" height="30" as="geometry" />
        </mxCell>
        <mxCell id="gw0M7WNjvELjQq90fpm7-94" value="&lt;div&gt;hbus_RESET_n&lt;/div&gt;" style="text;html=1;align=left;verticalAlign=middle;resizable=0;points=[];autosize=1;strokeColor=none;fillColor=none;fontSize=15;" vertex="1" parent="gw0M7WNjvELjQq90fpm7-1">
          <mxGeometry x="2060" y="425" width="130" height="30" as="geometry" />
        </mxCell>
        <mxCell id="gw0M7WNjvELjQq90fpm7-95" value="&lt;div&gt;hbus_RWDS&lt;/div&gt;" style="text;html=1;align=left;verticalAlign=middle;resizable=0;points=[];autosize=1;strokeColor=none;fillColor=none;fontSize=15;" vertex="1" parent="gw0M7WNjvELjQq90fpm7-1">
          <mxGeometry x="2060" y="1284" width="110" height="30" as="geometry" />
        </mxCell>
        <mxCell id="gw0M7WNjvELjQq90fpm7-96" style="edgeStyle=orthogonalEdgeStyle;rounded=0;orthogonalLoop=1;jettySize=auto;html=1;strokeColor=#00FF00;" edge="1" parent="gw0M7WNjvELjQq90fpm7-1">
          <mxGeometry relative="1" as="geometry">
            <mxPoint x="1580" y="1320" as="targetPoint" />
            <mxPoint x="1500" y="240" as="sourcePoint" />
            <Array as="points">
              <mxPoint x="1500" y="1320" />
            </Array>
          </mxGeometry>
        </mxCell>
        <mxCell id="gw0M7WNjvELjQq90fpm7-97" value="" style="endArrow=classic;html=1;rounded=0;strokeColor=default;entryX=1;entryY=0.5;entryDx=0;entryDy=0;" edge="1" parent="gw0M7WNjvELjQq90fpm7-1" target="gw0M7WNjvELjQq90fpm7-129">
          <mxGeometry width="50" height="50" relative="1" as="geometry">
            <mxPoint x="1680" y="1300" as="sourcePoint" />
            <mxPoint x="1480" y="2519" as="targetPoint" />
            <Array as="points">
              <mxPoint x="1680" y="1830" />
            </Array>
          </mxGeometry>
        </mxCell>
        <mxCell id="gw0M7WNjvELjQq90fpm7-98" value="" style="endArrow=classic;html=1;rounded=0;" edge="1" parent="gw0M7WNjvELjQq90fpm7-1">
          <mxGeometry width="50" height="50" relative="1" as="geometry">
            <mxPoint x="1840" y="439" as="sourcePoint" />
            <mxPoint x="2040" y="439.47" as="targetPoint" />
          </mxGeometry>
        </mxCell>
        <mxCell id="gw0M7WNjvELjQq90fpm7-99" style="edgeStyle=orthogonalEdgeStyle;rounded=0;orthogonalLoop=1;jettySize=auto;html=1;strokeColor=#00FF00;" edge="1" parent="gw0M7WNjvELjQq90fpm7-1">
          <mxGeometry relative="1" as="geometry">
            <mxPoint x="501" y="1760" as="targetPoint" />
            <mxPoint x="800" y="240" as="sourcePoint" />
            <Array as="points">
              <mxPoint x="800" y="240" />
              <mxPoint x="800" y="1550" />
              <mxPoint x="440" y="1550" />
            </Array>
          </mxGeometry>
        </mxCell>
        <mxCell id="gw0M7WNjvELjQq90fpm7-100" value="hCS_n" style="text;html=1;align=right;verticalAlign=middle;resizable=0;points=[];autosize=1;strokeColor=none;fillColor=none;rotation=90;fontSize=15;" vertex="1" parent="gw0M7WNjvELjQq90fpm7-1">
          <mxGeometry x="765" y="169" width="70" height="30" as="geometry" />
        </mxCell>
        <mxCell id="gw0M7WNjvELjQq90fpm7-101" value="" style="endArrow=classic;html=1;rounded=0;exitX=1;exitY=0.5;exitDx=0;exitDy=0;" edge="1" parent="gw0M7WNjvELjQq90fpm7-1" source="gw0M7WNjvELjQq90fpm7-144">
          <mxGeometry width="50" height="50" relative="1" as="geometry">
            <mxPoint x="719" y="2309" as="sourcePoint" />
            <mxPoint x="2040" y="2190" as="targetPoint" />
          </mxGeometry>
        </mxCell>
        <mxCell id="gw0M7WNjvELjQq90fpm7-102" value="&lt;font style=&quot;font-size: 15px;&quot;&gt;ssram_clear_n&lt;/font&gt;" style="text;html=1;align=right;verticalAlign=middle;resizable=0;points=[];autosize=1;strokeColor=none;fillColor=none;" vertex="1" parent="gw0M7WNjvELjQq90fpm7-1">
          <mxGeometry x="59" y="2345" width="120" height="30" as="geometry" />
        </mxCell>
        <mxCell id="gw0M7WNjvELjQq90fpm7-103" value="" style="endArrow=classic;html=1;rounded=0;" edge="1" parent="gw0M7WNjvELjQq90fpm7-1">
          <mxGeometry width="50" height="50" relative="1" as="geometry">
            <mxPoint x="200" y="2359" as="sourcePoint" />
            <mxPoint x="400" y="2359" as="targetPoint" />
          </mxGeometry>
        </mxCell>
        <mxCell id="gw0M7WNjvELjQq90fpm7-104" value="&lt;div&gt;hbus_CK&lt;/div&gt;" style="text;html=1;align=left;verticalAlign=middle;resizable=0;points=[];autosize=1;strokeColor=none;fillColor=none;fontSize=15;" vertex="1" parent="gw0M7WNjvELjQq90fpm7-1">
          <mxGeometry x="2060" y="2174" width="90" height="30" as="geometry" />
        </mxCell>
        <mxCell id="gw0M7WNjvELjQq90fpm7-105" style="edgeStyle=orthogonalEdgeStyle;rounded=0;orthogonalLoop=1;jettySize=auto;html=1;strokeColor=#00FF00;" edge="1" parent="gw0M7WNjvELjQq90fpm7-1">
          <mxGeometry relative="1" as="geometry">
            <mxPoint x="1040" y="2190" as="targetPoint" />
            <mxPoint x="1000" y="240" as="sourcePoint" />
            <Array as="points">
              <mxPoint x="1000" y="2190" />
            </Array>
          </mxGeometry>
        </mxCell>
        <mxCell id="gw0M7WNjvELjQq90fpm7-106" value="op_tim_clear_n" style="text;html=1;align=right;verticalAlign=middle;resizable=0;points=[];autosize=1;strokeColor=none;fillColor=none;fontSize=15;rotation=90;" vertex="1" parent="gw0M7WNjvELjQq90fpm7-1">
          <mxGeometry x="855" y="139" width="130" height="30" as="geometry" />
        </mxCell>
        <mxCell id="gw0M7WNjvELjQq90fpm7-107" style="edgeStyle=orthogonalEdgeStyle;rounded=0;orthogonalLoop=1;jettySize=auto;html=1;strokeColor=#00FF00;" edge="1" parent="gw0M7WNjvELjQq90fpm7-1">
          <mxGeometry relative="1" as="geometry">
            <mxPoint x="880" y="2189" as="targetPoint" />
            <mxPoint x="960" y="239" as="sourcePoint" />
            <Array as="points">
              <mxPoint x="960" y="2189" />
            </Array>
          </mxGeometry>
        </mxCell>
        <mxCell id="gw0M7WNjvELjQq90fpm7-108" value="op_tim_enable" style="text;html=1;align=right;verticalAlign=middle;resizable=0;points=[];autosize=1;strokeColor=none;fillColor=none;fontSize=15;rotation=90;" vertex="1" parent="gw0M7WNjvELjQq90fpm7-1">
          <mxGeometry x="900" y="144" width="120" height="30" as="geometry" />
        </mxCell>
        <mxCell id="gw0M7WNjvELjQq90fpm7-109" value="op_tim_1" style="text;html=1;align=left;verticalAlign=middle;resizable=0;points=[];autosize=1;strokeColor=none;fillColor=none;fontSize=15;rotation=90;" vertex="1" parent="gw0M7WNjvELjQq90fpm7-1">
          <mxGeometry x="435" y="2610" width="90" height="30" as="geometry" />
        </mxCell>
        <mxCell id="gw0M7WNjvELjQq90fpm7-110" value="op_tim_4" style="text;html=1;align=left;verticalAlign=middle;resizable=0;points=[];autosize=1;strokeColor=none;fillColor=none;fontSize=15;rotation=90;" vertex="1" parent="gw0M7WNjvELjQq90fpm7-1">
          <mxGeometry x="475" y="2610" width="90" height="30" as="geometry" />
        </mxCell>
        <mxCell id="gw0M7WNjvELjQq90fpm7-111" value="" style="endArrow=none;html=1;rounded=0;" edge="1" parent="gw0M7WNjvELjQq90fpm7-1">
          <mxGeometry width="50" height="50" relative="1" as="geometry">
            <mxPoint x="234" y="809" as="sourcePoint" />
            <mxPoint x="244" y="789" as="targetPoint" />
          </mxGeometry>
        </mxCell>
        <mxCell id="gw0M7WNjvELjQq90fpm7-112" value="16" style="text;html=1;align=center;verticalAlign=middle;resizable=0;points=[];autosize=1;strokeColor=none;fillColor=none;fontSize=15;rotation=0;" vertex="1" parent="gw0M7WNjvELjQq90fpm7-1">
          <mxGeometry x="225" y="1264" width="40" height="30" as="geometry" />
        </mxCell>
        <mxCell id="gw0M7WNjvELjQq90fpm7-113" value="" style="endArrow=none;html=1;rounded=0;" edge="1" parent="gw0M7WNjvELjQq90fpm7-1">
          <mxGeometry width="50" height="50" relative="1" as="geometry">
            <mxPoint x="235" y="1309" as="sourcePoint" />
            <mxPoint x="245" y="1289" as="targetPoint" />
          </mxGeometry>
        </mxCell>
        <mxCell id="gw0M7WNjvELjQq90fpm7-114" value="19" style="text;html=1;align=center;verticalAlign=middle;resizable=0;points=[];autosize=1;strokeColor=none;fillColor=none;fontSize=15;rotation=0;" vertex="1" parent="gw0M7WNjvELjQq90fpm7-1">
          <mxGeometry x="450" y="563.5" width="40" height="30" as="geometry" />
        </mxCell>
        <mxCell id="gw0M7WNjvELjQq90fpm7-115" value="" style="endArrow=none;html=1;rounded=0;" edge="1" parent="gw0M7WNjvELjQq90fpm7-1">
          <mxGeometry width="50" height="50" relative="1" as="geometry">
            <mxPoint x="460" y="608.5" as="sourcePoint" />
            <mxPoint x="470" y="588.5" as="targetPoint" />
          </mxGeometry>
        </mxCell>
        <mxCell id="gw0M7WNjvELjQq90fpm7-116" value="&quot;00000&quot;" style="text;html=1;align=right;verticalAlign=middle;resizable=0;points=[];autosize=1;strokeColor=none;fillColor=none;fontSize=15;" vertex="1" parent="gw0M7WNjvELjQq90fpm7-1">
          <mxGeometry x="610" y="465.25" width="80" height="30" as="geometry" />
        </mxCell>
        <mxCell id="gw0M7WNjvELjQq90fpm7-117" value="&quot;00000&quot;" style="text;html=1;align=right;verticalAlign=middle;resizable=0;points=[];autosize=1;strokeColor=none;fillColor=none;fontSize=15;" vertex="1" parent="gw0M7WNjvELjQq90fpm7-1">
          <mxGeometry x="1049" y="425" width="80" height="30" as="geometry" />
        </mxCell>
        <mxCell id="gw0M7WNjvELjQq90fpm7-118" style="edgeStyle=orthogonalEdgeStyle;rounded=0;orthogonalLoop=1;jettySize=auto;html=1;fontSize=15;" edge="1" parent="gw0M7WNjvELjQq90fpm7-1">
          <mxGeometry relative="1" as="geometry">
            <mxPoint x="1199" y="439" as="targetPoint" />
            <mxPoint x="1139" y="439" as="sourcePoint" />
          </mxGeometry>
        </mxCell>
        <mxCell id="gw0M7WNjvELjQq90fpm7-119" value="" style="endArrow=classic;html=1;rounded=0;startArrow=oval;startFill=1;" edge="1" parent="gw0M7WNjvELjQq90fpm7-1">
          <mxGeometry width="50" height="50" relative="1" as="geometry">
            <mxPoint x="620" y="599.25" as="sourcePoint" />
            <mxPoint x="740" y="519.25" as="targetPoint" />
            <Array as="points">
              <mxPoint x="620" y="519.25" />
            </Array>
          </mxGeometry>
        </mxCell>
        <mxCell id="gw0M7WNjvELjQq90fpm7-120" value="" style="endArrow=classic;html=1;rounded=0;" edge="1" parent="gw0M7WNjvELjQq90fpm7-1">
          <mxGeometry width="50" height="50" relative="1" as="geometry">
            <mxPoint x="700" y="479.25" as="sourcePoint" />
            <mxPoint x="740" y="479.25" as="targetPoint" />
          </mxGeometry>
        </mxCell>
        <mxCell id="gw0M7WNjvELjQq90fpm7-121" value="" style="endArrow=none;html=1;rounded=0;strokeWidth=4;" edge="1" parent="gw0M7WNjvELjQq90fpm7-1">
          <mxGeometry width="50" height="50" relative="1" as="geometry">
            <mxPoint x="740" y="599.25" as="sourcePoint" />
            <mxPoint x="740" y="439.25" as="targetPoint" />
          </mxGeometry>
        </mxCell>
        <mxCell id="gw0M7WNjvELjQq90fpm7-122" value="CA0_B" style="text;html=1;align=center;verticalAlign=middle;resizable=0;points=[];autosize=1;strokeColor=none;fillColor=none;fontSize=15;" vertex="1" parent="gw0M7WNjvELjQq90fpm7-1">
          <mxGeometry x="1230" y="568.5" width="70" height="30" as="geometry" />
        </mxCell>
        <mxCell id="gw0M7WNjvELjQq90fpm7-123" value="16" style="text;html=1;align=center;verticalAlign=middle;resizable=0;points=[];autosize=1;strokeColor=none;fillColor=none;fontSize=15;rotation=0;" vertex="1" parent="gw0M7WNjvELjQq90fpm7-1">
          <mxGeometry x="661" y="1930" width="40" height="30" as="geometry" />
        </mxCell>
        <mxCell id="gw0M7WNjvELjQq90fpm7-124" value="" style="endArrow=none;html=1;rounded=0;" edge="1" parent="gw0M7WNjvELjQq90fpm7-1">
          <mxGeometry width="50" height="50" relative="1" as="geometry">
            <mxPoint x="686" y="1930" as="sourcePoint" />
            <mxPoint x="696" y="1910" as="targetPoint" />
          </mxGeometry>
        </mxCell>
        <mxCell id="gw0M7WNjvELjQq90fpm7-125" style="edgeStyle=orthogonalEdgeStyle;rounded=0;orthogonalLoop=1;jettySize=auto;html=1;strokeColor=#00FF00;" edge="1" parent="gw0M7WNjvELjQq90fpm7-1">
          <mxGeometry relative="1" as="geometry">
            <mxPoint x="880" y="2150" as="targetPoint" />
            <mxPoint x="920" y="239" as="sourcePoint" />
            <Array as="points">
              <mxPoint x="920" y="2150" />
            </Array>
          </mxGeometry>
        </mxCell>
        <mxCell id="gw0M7WNjvELjQq90fpm7-126" value="" style="endArrow=none;html=1;rounded=0;strokeWidth=4;" edge="1" parent="gw0M7WNjvELjQq90fpm7-1">
          <mxGeometry width="50" height="50" relative="1" as="geometry">
            <mxPoint x="742" y="1920" as="sourcePoint" />
            <mxPoint x="742" y="1729" as="targetPoint" />
          </mxGeometry>
        </mxCell>
        <mxCell id="gw0M7WNjvELjQq90fpm7-127" value="CK_gating_enable_n" style="text;html=1;align=right;verticalAlign=middle;resizable=0;points=[];autosize=1;strokeColor=none;fillColor=none;rotation=90;fontSize=15;" vertex="1" parent="gw0M7WNjvELjQq90fpm7-1">
          <mxGeometry x="920" y="124" width="160" height="30" as="geometry" />
        </mxCell>
        <mxCell id="gw0M7WNjvELjQq90fpm7-128" style="edgeStyle=orthogonalEdgeStyle;rounded=0;orthogonalLoop=1;jettySize=auto;html=1;exitX=0;exitY=0.5;exitDx=0;exitDy=0;entryX=0;entryY=0.25;entryDx=0;entryDy=0;entryPerimeter=0;endArrow=none;endFill=0;" edge="1" parent="gw0M7WNjvELjQq90fpm7-1" source="gw0M7WNjvELjQq90fpm7-129" target="s1WomI2Zlod0P37Gdnku-0">
          <mxGeometry relative="1" as="geometry">
            <mxPoint x="1130" y="1819" as="sourcePoint" />
            <mxPoint x="1080" y="1820" as="targetPoint" />
          </mxGeometry>
        </mxCell>
        <mxCell id="gw0M7WNjvELjQq90fpm7-129" value="" style="rounded=0;whiteSpace=wrap;html=1;" vertex="1" parent="gw0M7WNjvELjQq90fpm7-1">
          <mxGeometry x="1240" y="1805" width="240" height="50" as="geometry" />
        </mxCell>
        <mxCell id="gw0M7WNjvELjQq90fpm7-130" value="&lt;font style=&quot;font-size: 15px;&quot;&gt;RWDS_shifter_90: shifter_90&lt;/font&gt;" style="rounded=0;whiteSpace=wrap;html=1;" vertex="1" parent="gw0M7WNjvELjQq90fpm7-1">
          <mxGeometry x="1240" y="1785" width="240" height="20" as="geometry" />
        </mxCell>
        <mxCell id="gw0M7WNjvELjQq90fpm7-131" value="&lt;font style=&quot;font-size: 15px;&quot;&gt;din&lt;/font&gt;" style="text;html=1;align=right;verticalAlign=middle;resizable=0;points=[];autosize=1;strokeColor=none;fillColor=none;" vertex="1" parent="gw0M7WNjvELjQq90fpm7-1">
          <mxGeometry x="1436" y="1815" width="40" height="30" as="geometry" />
        </mxCell>
        <mxCell id="gw0M7WNjvELjQq90fpm7-132" value="&lt;div style=&quot;font-size: 13px;&quot; align=&quot;left&quot;&gt;&lt;font style=&quot;font-size: 15px;&quot;&gt;dout&lt;/font&gt;&lt;/div&gt;" style="text;html=1;align=left;verticalAlign=middle;resizable=0;points=[];autosize=1;strokeColor=none;fillColor=none;" vertex="1" parent="gw0M7WNjvELjQq90fpm7-1">
          <mxGeometry x="1244" y="1815" width="50" height="30" as="geometry" />
        </mxCell>
        <mxCell id="gw0M7WNjvELjQq90fpm7-133" style="rounded=0;orthogonalLoop=1;jettySize=auto;html=1;strokeColor=#00FF00;" edge="1" parent="gw0M7WNjvELjQq90fpm7-1">
          <mxGeometry relative="1" as="geometry">
            <mxPoint x="840" y="1720" as="targetPoint" />
            <mxPoint x="840" y="240" as="sourcePoint" />
            <Array as="points" />
          </mxGeometry>
        </mxCell>
        <mxCell id="gw0M7WNjvELjQq90fpm7-134" value="readdata_shift" style="text;html=1;align=right;verticalAlign=middle;resizable=0;points=[];autosize=1;strokeColor=none;fillColor=none;rotation=90;fontSize=15;" vertex="1" parent="gw0M7WNjvELjQq90fpm7-1">
          <mxGeometry x="780" y="144" width="120" height="30" as="geometry" />
        </mxCell>
        <mxCell id="gw0M7WNjvELjQq90fpm7-135" value="" style="endArrow=classic;html=1;rounded=0;strokeColor=#FF0000;" edge="1" parent="gw0M7WNjvELjQq90fpm7-1">
          <mxGeometry width="50" height="50" relative="1" as="geometry">
            <mxPoint x="660" y="2150" as="sourcePoint" />
            <mxPoint x="480" y="2560" as="targetPoint" />
            <Array as="points">
              <mxPoint x="480" y="2150" />
            </Array>
          </mxGeometry>
        </mxCell>
        <mxCell id="gw0M7WNjvELjQq90fpm7-136" value="" style="endArrow=classic;html=1;rounded=0;strokeColor=#FF0000;" edge="1" parent="gw0M7WNjvELjQq90fpm7-1">
          <mxGeometry width="50" height="50" relative="1" as="geometry">
            <mxPoint x="660" y="2190" as="sourcePoint" />
            <mxPoint x="520" y="2560" as="targetPoint" />
            <Array as="points">
              <mxPoint x="520" y="2190" />
            </Array>
          </mxGeometry>
        </mxCell>
        <mxCell id="gw0M7WNjvELjQq90fpm7-137" value="op_tim: timer_3bit" style="rounded=0;whiteSpace=wrap;html=1;direction=south;horizontal=1;fontSize=15;" vertex="1" parent="gw0M7WNjvELjQq90fpm7-1">
          <mxGeometry x="660" y="2101" width="220" height="19" as="geometry" />
        </mxCell>
        <mxCell id="gw0M7WNjvELjQq90fpm7-138" value="" style="rounded=0;whiteSpace=wrap;html=1;direction=south;horizontal=1;fontSize=15;" vertex="1" parent="gw0M7WNjvELjQq90fpm7-1">
          <mxGeometry x="660" y="2120" width="220" height="100" as="geometry" />
        </mxCell>
        <mxCell id="gw0M7WNjvELjQq90fpm7-139" value="tim_enable" style="text;html=1;align=right;verticalAlign=middle;resizable=0;points=[];autosize=1;strokeColor=none;fillColor=none;fontSize=15;rotation=0;" vertex="1" parent="gw0M7WNjvELjQq90fpm7-1">
          <mxGeometry x="769" y="2174" width="100" height="30" as="geometry" />
        </mxCell>
        <mxCell id="gw0M7WNjvELjQq90fpm7-140" value="tim_clear_n" style="text;html=1;align=right;verticalAlign=middle;resizable=0;points=[];autosize=1;strokeColor=none;fillColor=none;fontSize=15;rotation=0;" vertex="1" parent="gw0M7WNjvELjQq90fpm7-1">
          <mxGeometry x="769" y="2134" width="100" height="30" as="geometry" />
        </mxCell>
        <mxCell id="gw0M7WNjvELjQq90fpm7-141" value="tim_4" style="text;html=1;align=left;verticalAlign=middle;resizable=0;points=[];autosize=1;strokeColor=none;fillColor=none;fontSize=15;rotation=0;" vertex="1" parent="gw0M7WNjvELjQq90fpm7-1">
          <mxGeometry x="670" y="2174" width="60" height="30" as="geometry" />
        </mxCell>
        <mxCell id="gw0M7WNjvELjQq90fpm7-142" value="tim_1" style="text;html=1;align=left;verticalAlign=middle;resizable=0;points=[];autosize=1;strokeColor=none;fillColor=none;fontSize=15;rotation=0;" vertex="1" parent="gw0M7WNjvELjQq90fpm7-1">
          <mxGeometry x="670" y="2134" width="60" height="30" as="geometry" />
        </mxCell>
        <mxCell id="gw0M7WNjvELjQq90fpm7-143" value="" style="triangle;whiteSpace=wrap;html=1;direction=west;fontSize=15;" vertex="1" parent="gw0M7WNjvELjQq90fpm7-1">
          <mxGeometry x="870" y="2210" width="10" height="10" as="geometry" />
        </mxCell>
        <mxCell id="gw0M7WNjvELjQq90fpm7-144" value="" style="rounded=0;whiteSpace=wrap;html=1;" vertex="1" parent="gw0M7WNjvELjQq90fpm7-1">
          <mxGeometry x="1340.5" y="2165" width="200" height="50" as="geometry" />
        </mxCell>
        <mxCell id="gw0M7WNjvELjQq90fpm7-145" value="&lt;font style=&quot;font-size: 15px;&quot;&gt;CK_shifter: 90deg_shifter&lt;/font&gt;" style="rounded=0;whiteSpace=wrap;html=1;" vertex="1" parent="gw0M7WNjvELjQq90fpm7-1">
          <mxGeometry x="1340.5" y="2145" width="200" height="20" as="geometry" />
        </mxCell>
        <mxCell id="gw0M7WNjvELjQq90fpm7-146" value="&lt;font style=&quot;font-size: 15px;&quot;&gt;din&lt;/font&gt;" style="text;html=1;align=left;verticalAlign=middle;resizable=0;points=[];autosize=1;strokeColor=none;fillColor=none;" vertex="1" parent="gw0M7WNjvELjQq90fpm7-1">
          <mxGeometry x="1346.5" y="2175" width="40" height="30" as="geometry" />
        </mxCell>
        <mxCell id="gw0M7WNjvELjQq90fpm7-147" value="&lt;div style=&quot;font-size: 13px;&quot;&gt;&lt;font style=&quot;font-size: 15px;&quot;&gt;dout&lt;/font&gt;&lt;/div&gt;" style="text;html=1;align=right;verticalAlign=middle;resizable=0;points=[];autosize=1;strokeColor=none;fillColor=none;" vertex="1" parent="gw0M7WNjvELjQq90fpm7-1">
          <mxGeometry x="1480.5" y="2175" width="50" height="30" as="geometry" />
        </mxCell>
        <mxCell id="gw0M7WNjvELjQq90fpm7-148" style="edgeStyle=orthogonalEdgeStyle;rounded=0;orthogonalLoop=1;jettySize=auto;html=1;exitX=0;exitY=0.5;exitDx=0;exitDy=0;" edge="1" parent="gw0M7WNjvELjQq90fpm7-1" source="gw0M7WNjvELjQq90fpm7-149">
          <mxGeometry relative="1" as="geometry">
            <mxPoint x="580" y="1760" as="targetPoint" />
          </mxGeometry>
        </mxCell>
        <mxCell id="gw0M7WNjvELjQq90fpm7-149" value="" style="rounded=0;whiteSpace=wrap;html=1;" vertex="1" parent="gw0M7WNjvELjQq90fpm7-1">
          <mxGeometry x="1239" y="1614" width="241" height="50" as="geometry" />
        </mxCell>
        <mxCell id="gw0M7WNjvELjQq90fpm7-150" value="&lt;font style=&quot;font-size: 15px;&quot;&gt;RWDS_shifter_360: shifter_360&lt;/font&gt;" style="rounded=0;whiteSpace=wrap;html=1;" vertex="1" parent="gw0M7WNjvELjQq90fpm7-1">
          <mxGeometry x="1239" y="1594" width="241" height="20" as="geometry" />
        </mxCell>
        <mxCell id="gw0M7WNjvELjQq90fpm7-151" value="&lt;font style=&quot;font-size: 15px;&quot;&gt;din&lt;/font&gt;" style="text;html=1;align=right;verticalAlign=middle;resizable=0;points=[];autosize=1;strokeColor=none;fillColor=none;" vertex="1" parent="gw0M7WNjvELjQq90fpm7-1">
          <mxGeometry x="1436" y="1624" width="40" height="30" as="geometry" />
        </mxCell>
        <mxCell id="gw0M7WNjvELjQq90fpm7-152" value="&lt;div style=&quot;font-size: 13px;&quot; align=&quot;left&quot;&gt;&lt;font style=&quot;font-size: 15px;&quot;&gt;dout&lt;/font&gt;&lt;/div&gt;" style="text;html=1;align=left;verticalAlign=middle;resizable=0;points=[];autosize=1;strokeColor=none;fillColor=none;" vertex="1" parent="gw0M7WNjvELjQq90fpm7-1">
          <mxGeometry x="1244" y="1624" width="50" height="30" as="geometry" />
        </mxCell>
        <mxCell id="gw0M7WNjvELjQq90fpm7-153" value="" style="endArrow=classic;html=1;rounded=0;strokeColor=default;entryX=1;entryY=0.5;entryDx=0;entryDy=0;startArrow=oval;startFill=1;" edge="1" parent="gw0M7WNjvELjQq90fpm7-1" target="gw0M7WNjvELjQq90fpm7-149">
          <mxGeometry width="50" height="50" relative="1" as="geometry">
            <mxPoint x="1680" y="1639" as="sourcePoint" />
            <mxPoint x="1360" y="1638.74" as="targetPoint" />
          </mxGeometry>
        </mxCell>
        <mxCell id="gw0M7WNjvELjQq90fpm7-154" style="edgeStyle=orthogonalEdgeStyle;rounded=0;orthogonalLoop=1;jettySize=auto;html=1;exitX=0.5;exitY=1;exitDx=0;exitDy=0;" edge="1" parent="gw0M7WNjvELjQq90fpm7-1">
          <mxGeometry relative="1" as="geometry">
            <mxPoint x="200" y="1960" as="targetPoint" />
            <mxPoint x="461" y="1960" as="sourcePoint" />
          </mxGeometry>
        </mxCell>
        <mxCell id="gw0M7WNjvELjQq90fpm7-158" style="edgeStyle=orthogonalEdgeStyle;rounded=0;orthogonalLoop=1;jettySize=auto;html=1;" edge="1" parent="gw0M7WNjvELjQq90fpm7-1">
          <mxGeometry relative="1" as="geometry">
            <mxPoint x="200" y="1880" as="targetPoint" />
            <Array as="points">
              <mxPoint x="371" y="1880" />
              <mxPoint x="200" y="1879" />
            </Array>
            <mxPoint x="460" y="1879.5" as="sourcePoint" />
          </mxGeometry>
        </mxCell>
        <mxCell id="gw0M7WNjvELjQq90fpm7-163" style="edgeStyle=orthogonalEdgeStyle;rounded=0;orthogonalLoop=1;jettySize=auto;html=1;exitX=0.5;exitY=0;exitDx=0;exitDy=0;" edge="1" parent="gw0M7WNjvELjQq90fpm7-1" source="gw0M7WNjvELjQq90fpm7-167">
          <mxGeometry relative="1" as="geometry">
            <mxPoint x="1680" y="1300" as="targetPoint" />
            <mxPoint x="1840" y="1314" as="sourcePoint" />
          </mxGeometry>
        </mxCell>
        <mxCell id="gw0M7WNjvELjQq90fpm7-164" value="" style="endArrow=classic;startArrow=classic;html=1;rounded=0;" edge="1" parent="gw0M7WNjvELjQq90fpm7-1">
          <mxGeometry width="50" height="50" relative="1" as="geometry">
            <mxPoint x="2040" y="1300" as="sourcePoint" />
            <mxPoint x="1680" y="1300" as="targetPoint" />
          </mxGeometry>
        </mxCell>
        <mxCell id="gw0M7WNjvELjQq90fpm7-165" style="edgeStyle=orthogonalEdgeStyle;rounded=0;orthogonalLoop=1;jettySize=auto;html=1;strokeColor=#00FF00;" edge="1" parent="gw0M7WNjvELjQq90fpm7-1">
          <mxGeometry relative="1" as="geometry">
            <mxPoint x="1580" y="1280" as="targetPoint" />
            <mxPoint x="1540" y="240" as="sourcePoint" />
            <Array as="points">
              <mxPoint x="1540" y="239" />
              <mxPoint x="1540" y="1279" />
            </Array>
          </mxGeometry>
        </mxCell>
        <mxCell id="gw0M7WNjvELjQq90fpm7-166" style="edgeStyle=orthogonalEdgeStyle;rounded=0;orthogonalLoop=1;jettySize=auto;html=1;entryX=1;entryY=0.5;entryDx=0;entryDy=0;startArrow=oval;startFill=1;" edge="1" parent="gw0M7WNjvELjQq90fpm7-1" target="gw0M7WNjvELjQq90fpm7-167">
          <mxGeometry relative="1" as="geometry">
            <mxPoint x="1600" y="2189" as="sourcePoint" />
          </mxGeometry>
        </mxCell>
        <mxCell id="gw0M7WNjvELjQq90fpm7-167" value="" style="shape=trapezoid;perimeter=trapezoidPerimeter;whiteSpace=wrap;html=1;fixedSize=1;direction=south;" vertex="1" parent="gw0M7WNjvELjQq90fpm7-1">
          <mxGeometry x="1580" y="1240" width="40" height="120" as="geometry" />
        </mxCell>
        <mxCell id="gw0M7WNjvELjQq90fpm7-168" value="1" style="text;html=1;align=center;verticalAlign=middle;resizable=0;points=[];autosize=1;strokeColor=none;fillColor=none;fontSize=15;" vertex="1" parent="gw0M7WNjvELjQq90fpm7-1">
          <mxGeometry x="1575" y="1265" width="30" height="30" as="geometry" />
        </mxCell>
        <mxCell id="gw0M7WNjvELjQq90fpm7-169" value="0" style="text;html=1;align=center;verticalAlign=middle;resizable=0;points=[];autosize=1;strokeColor=none;fillColor=none;fontSize=15;" vertex="1" parent="gw0M7WNjvELjQq90fpm7-1">
          <mxGeometry x="1575" y="1305" width="30" height="30" as="geometry" />
        </mxCell>
        <mxCell id="gw0M7WNjvELjQq90fpm7-170" value="CA1_A" style="text;html=1;align=center;verticalAlign=middle;resizable=0;points=[];autosize=1;strokeColor=none;fillColor=none;fontSize=15;" vertex="1" parent="gw0M7WNjvELjQq90fpm7-1">
          <mxGeometry x="1230" y="649" width="70" height="30" as="geometry" />
        </mxCell>
        <mxCell id="gw0M7WNjvELjQq90fpm7-171" value="CA1_B" style="text;html=1;align=center;verticalAlign=middle;resizable=0;points=[];autosize=1;strokeColor=none;fillColor=none;fontSize=15;" vertex="1" parent="gw0M7WNjvELjQq90fpm7-1">
          <mxGeometry x="1230" y="728.5" width="70" height="30" as="geometry" />
        </mxCell>
        <mxCell id="gw0M7WNjvELjQq90fpm7-172" value="CA2_A" style="text;html=1;align=center;verticalAlign=middle;resizable=0;points=[];autosize=1;strokeColor=none;fillColor=none;fontSize=15;" vertex="1" parent="gw0M7WNjvELjQq90fpm7-1">
          <mxGeometry x="1230" y="809.5" width="70" height="30" as="geometry" />
        </mxCell>
        <mxCell id="gw0M7WNjvELjQq90fpm7-173" value="CA2_B" style="text;html=1;align=center;verticalAlign=middle;resizable=0;points=[];autosize=1;strokeColor=none;fillColor=none;fontSize=15;" vertex="1" parent="gw0M7WNjvELjQq90fpm7-1">
          <mxGeometry x="1230" y="889" width="70" height="30" as="geometry" />
        </mxCell>
        <mxCell id="gw0M7WNjvELjQq90fpm7-174" value="mask_B" style="text;html=1;align=right;verticalAlign=middle;resizable=0;points=[];autosize=1;strokeColor=none;fillColor=none;rotation=90;fontSize=15;" vertex="1" parent="gw0M7WNjvELjQq90fpm7-1">
          <mxGeometry x="1459" y="164" width="80" height="30" as="geometry" />
        </mxCell>
        <mxCell id="gw0M7WNjvELjQq90fpm7-175" value="mask_A" style="text;html=1;align=right;verticalAlign=middle;resizable=0;points=[];autosize=1;strokeColor=none;fillColor=none;rotation=90;fontSize=15;" vertex="1" parent="gw0M7WNjvELjQq90fpm7-1">
          <mxGeometry x="1501" y="164" width="80" height="30" as="geometry" />
        </mxCell>
        <mxCell id="gw0M7WNjvELjQq90fpm7-176" value="" style="endArrow=classic;html=1;rounded=0;strokeColor=#00FF00;" edge="1" parent="gw0M7WNjvELjQq90fpm7-1">
          <mxGeometry width="50" height="50" relative="1" as="geometry">
            <mxPoint x="1119.91" y="240" as="sourcePoint" />
            <mxPoint x="1119.91" y="360" as="targetPoint" />
          </mxGeometry>
        </mxCell>
        <mxCell id="gw0M7WNjvELjQq90fpm7-177" value="config_access" style="text;html=1;align=right;verticalAlign=middle;resizable=0;points=[];autosize=1;strokeColor=none;fillColor=none;rotation=90;fontSize=15;" vertex="1" parent="gw0M7WNjvELjQq90fpm7-1">
          <mxGeometry x="1059" y="142" width="120" height="30" as="geometry" />
        </mxCell>
        <mxCell id="gw0M7WNjvELjQq90fpm7-178" value="&lt;font style=&quot;font-size: 15px;&quot;&gt;ssram_address_space&lt;/font&gt;" style="text;html=1;align=right;verticalAlign=middle;resizable=0;points=[];autosize=1;strokeColor=none;fillColor=none;" vertex="1" parent="gw0M7WNjvELjQq90fpm7-1">
          <mxGeometry x="9" y="2387" width="170" height="30" as="geometry" />
        </mxCell>
        <mxCell id="gw0M7WNjvELjQq90fpm7-179" value="address_space" style="text;html=1;align=left;verticalAlign=middle;resizable=0;points=[];autosize=1;strokeColor=none;fillColor=none;fontSize=15;rotation=90;" vertex="1" parent="gw0M7WNjvELjQq90fpm7-1">
          <mxGeometry x="294.5" y="2627" width="130" height="30" as="geometry" />
        </mxCell>
        <mxCell id="gw0M7WNjvELjQq90fpm7-180" value="" style="endArrow=classic;html=1;rounded=0;strokeColor=#FF0000;" edge="1" parent="gw0M7WNjvELjQq90fpm7-1">
          <mxGeometry width="50" height="50" relative="1" as="geometry">
            <mxPoint x="280" y="1360" as="sourcePoint" />
            <mxPoint x="440" y="2560" as="targetPoint" />
            <Array as="points">
              <mxPoint x="280" y="2150" />
              <mxPoint x="440" y="2150" />
            </Array>
          </mxGeometry>
        </mxCell>
        <mxCell id="gw0M7WNjvELjQq90fpm7-181" value="15 downto 15" style="text;html=1;align=left;verticalAlign=middle;resizable=0;points=[];autosize=1;strokeColor=none;fillColor=none;fontSize=15;rotation=90;" vertex="1" parent="gw0M7WNjvELjQq90fpm7-1">
          <mxGeometry x="210" y="1415" width="110" height="30" as="geometry" />
        </mxCell>
        <mxCell id="gw0M7WNjvELjQq90fpm7-182" value="&lt;font style=&quot;font-size: 15px;&quot;&gt;dpd_req_n&lt;/font&gt;" style="text;html=1;align=left;verticalAlign=middle;resizable=0;points=[];autosize=1;strokeColor=none;fillColor=none;rotation=90;" vertex="1" parent="gw0M7WNjvELjQq90fpm7-1">
          <mxGeometry x="390" y="2614" width="100" height="30" as="geometry" />
        </mxCell>
        <mxCell id="gw0M7WNjvELjQq90fpm7-183" value="" style="rounded=0;whiteSpace=wrap;html=1;" vertex="1" parent="gw0M7WNjvELjQq90fpm7-1">
          <mxGeometry x="1340" y="2398" width="201" height="100" as="geometry" />
        </mxCell>
        <mxCell id="gw0M7WNjvELjQq90fpm7-184" value="&lt;font style=&quot;font-size: 15px;&quot;&gt;dpd_tracker: sr_flip_flop&lt;/font&gt;" style="rounded=0;whiteSpace=wrap;html=1;" vertex="1" parent="gw0M7WNjvELjQq90fpm7-1">
          <mxGeometry x="1340" y="2378" width="201" height="20" as="geometry" />
        </mxCell>
        <mxCell id="gw0M7WNjvELjQq90fpm7-185" value="set" style="text;html=1;align=right;verticalAlign=middle;resizable=0;points=[];autosize=1;strokeColor=none;fillColor=none;fontSize=15;" vertex="1" parent="gw0M7WNjvELjQq90fpm7-1">
          <mxGeometry x="1495" y="2411" width="40" height="30" as="geometry" />
        </mxCell>
        <mxCell id="gw0M7WNjvELjQq90fpm7-186" value="&lt;div style=&quot;font-size: 15px;&quot;&gt;dout&lt;/div&gt;" style="text;html=1;align=left;verticalAlign=middle;resizable=0;points=[];autosize=1;strokeColor=none;fillColor=none;fontSize=15;" vertex="1" parent="gw0M7WNjvELjQq90fpm7-1">
          <mxGeometry x="1347" y="2435" width="50" height="30" as="geometry" />
        </mxCell>
        <mxCell id="gw0M7WNjvELjQq90fpm7-187" value="" style="triangle;whiteSpace=wrap;html=1;direction=east;fontSize=15;" vertex="1" parent="gw0M7WNjvELjQq90fpm7-1">
          <mxGeometry x="1340" y="2488" width="10" height="10" as="geometry" />
        </mxCell>
        <mxCell id="gw0M7WNjvELjQq90fpm7-188" value="clear_n" style="text;html=1;align=right;verticalAlign=middle;resizable=0;points=[];autosize=1;strokeColor=none;fillColor=none;fontSize=15;" vertex="1" parent="gw0M7WNjvELjQq90fpm7-1">
          <mxGeometry x="1465" y="2451" width="70" height="30" as="geometry" />
        </mxCell>
        <mxCell id="gw0M7WNjvELjQq90fpm7-189" value="" style="endArrow=classic;html=1;rounded=0;strokeColor=#FF0000;" edge="1" parent="gw0M7WNjvELjQq90fpm7-1">
          <mxGeometry width="50" height="50" relative="1" as="geometry">
            <mxPoint x="1340" y="2450" as="sourcePoint" />
            <mxPoint x="1280" y="2560" as="targetPoint" />
            <Array as="points">
              <mxPoint x="1280" y="2450" />
            </Array>
          </mxGeometry>
        </mxCell>
        <mxCell id="gw0M7WNjvELjQq90fpm7-190" value="dpd_mode_on" style="text;html=1;align=left;verticalAlign=middle;resizable=0;points=[];autosize=1;strokeColor=none;fillColor=none;fontSize=15;rotation=90;" vertex="1" parent="gw0M7WNjvELjQq90fpm7-1">
          <mxGeometry x="1220" y="2625" width="120" height="30" as="geometry" />
        </mxCell>
        <mxCell id="gw0M7WNjvELjQq90fpm7-191" style="edgeStyle=orthogonalEdgeStyle;rounded=0;orthogonalLoop=1;jettySize=auto;html=1;strokeColor=#00FF00;" edge="1" parent="gw0M7WNjvELjQq90fpm7-1">
          <mxGeometry relative="1" as="geometry">
            <mxPoint x="1540" y="2425" as="targetPoint" />
            <mxPoint x="1760" y="240" as="sourcePoint" />
            <Array as="points">
              <mxPoint x="1760" y="240" />
              <mxPoint x="1760" y="2425" />
            </Array>
          </mxGeometry>
        </mxCell>
        <mxCell id="gw0M7WNjvELjQq90fpm7-192" value="set_dpd_status" style="text;html=1;align=right;verticalAlign=middle;resizable=0;points=[];autosize=1;strokeColor=none;fillColor=none;rotation=90;fontSize=15;" vertex="1" parent="gw0M7WNjvELjQq90fpm7-1">
          <mxGeometry x="1700" y="147" width="120" height="30" as="geometry" />
        </mxCell>
        <mxCell id="gw0M7WNjvELjQq90fpm7-193" style="edgeStyle=orthogonalEdgeStyle;rounded=0;orthogonalLoop=1;jettySize=auto;html=1;strokeColor=#00FF00;" edge="1" parent="gw0M7WNjvELjQq90fpm7-1">
          <mxGeometry relative="1" as="geometry">
            <mxPoint x="1541" y="2465" as="targetPoint" />
            <mxPoint x="1800" y="240" as="sourcePoint" />
            <Array as="points">
              <mxPoint x="1800" y="2465" />
            </Array>
          </mxGeometry>
        </mxCell>
        <mxCell id="gw0M7WNjvELjQq90fpm7-194" value="clear_dpd_status_n" style="text;html=1;align=right;verticalAlign=middle;resizable=0;points=[];autosize=1;strokeColor=none;fillColor=none;rotation=90;fontSize=15;" vertex="1" parent="gw0M7WNjvELjQq90fpm7-1">
          <mxGeometry x="1725" y="131" width="150" height="30" as="geometry" />
        </mxCell>
        <mxCell id="gw0M7WNjvELjQq90fpm7-195" value="&lt;font style=&quot;font-size: 15px;&quot;&gt;tpd_tim: timer_14bit&lt;/font&gt;" style="rounded=0;whiteSpace=wrap;html=1;horizontal=0;direction=south;" vertex="1" parent="gw0M7WNjvELjQq90fpm7-1">
          <mxGeometry x="1580" y="519.5" width="20" height="280" as="geometry" />
        </mxCell>
        <mxCell id="gw0M7WNjvELjQq90fpm7-196" value="" style="rounded=0;whiteSpace=wrap;html=1;direction=south;" vertex="1" parent="gw0M7WNjvELjQq90fpm7-1">
          <mxGeometry x="1600" y="519.5" width="120" height="280" as="geometry" />
        </mxCell>
        <mxCell id="gw0M7WNjvELjQq90fpm7-197" value="tim_enable" style="text;html=1;align=left;verticalAlign=middle;resizable=0;points=[];autosize=1;strokeColor=none;fillColor=none;fontSize=15;rotation=90;" vertex="1" parent="gw0M7WNjvELjQq90fpm7-1">
          <mxGeometry x="1588" y="559.5" width="100" height="30" as="geometry" />
        </mxCell>
        <mxCell id="gw0M7WNjvELjQq90fpm7-198" value="tim_clear_n" style="text;html=1;align=left;verticalAlign=middle;resizable=0;points=[];autosize=1;strokeColor=none;fillColor=none;fontSize=15;rotation=90;" vertex="1" parent="gw0M7WNjvELjQq90fpm7-1">
          <mxGeometry x="1629" y="559.5" width="100" height="30" as="geometry" />
        </mxCell>
        <mxCell id="gw0M7WNjvELjQq90fpm7-199" value="" style="triangle;whiteSpace=wrap;html=1;direction=west;fontSize=15;" vertex="1" parent="gw0M7WNjvELjQq90fpm7-1">
          <mxGeometry x="1710" y="789.5" width="10" height="10" as="geometry" />
        </mxCell>
        <mxCell id="gw0M7WNjvELjQq90fpm7-200" style="edgeStyle=orthogonalEdgeStyle;rounded=0;orthogonalLoop=1;jettySize=auto;html=1;strokeColor=#00FF00;" edge="1" parent="gw0M7WNjvELjQq90fpm7-1">
          <mxGeometry relative="1" as="geometry">
            <mxPoint x="1640" y="518.5" as="targetPoint" />
            <mxPoint x="1640" y="239.5" as="sourcePoint" />
          </mxGeometry>
        </mxCell>
        <mxCell id="gw0M7WNjvELjQq90fpm7-201" style="edgeStyle=orthogonalEdgeStyle;rounded=0;orthogonalLoop=1;jettySize=auto;html=1;strokeColor=#00FF00;" edge="1" parent="gw0M7WNjvELjQq90fpm7-1">
          <mxGeometry relative="1" as="geometry">
            <mxPoint x="1680" y="519.5" as="targetPoint" />
            <mxPoint x="1680" y="240.5" as="sourcePoint" />
          </mxGeometry>
        </mxCell>
        <mxCell id="gw0M7WNjvELjQq90fpm7-202" value="tpd_tim_clear_n" style="text;html=1;align=right;verticalAlign=middle;resizable=0;points=[];autosize=1;strokeColor=none;fillColor=none;fontSize=15;rotation=90;" vertex="1" parent="gw0M7WNjvELjQq90fpm7-1">
          <mxGeometry x="1575" y="139" width="130" height="30" as="geometry" />
        </mxCell>
        <mxCell id="gw0M7WNjvELjQq90fpm7-203" value="dpd_tim_enable" style="text;html=1;align=right;verticalAlign=middle;resizable=0;points=[];autosize=1;strokeColor=none;fillColor=none;fontSize=15;rotation=90;" vertex="1" parent="gw0M7WNjvELjQq90fpm7-1">
          <mxGeometry x="1615" y="139" width="130" height="30" as="geometry" />
        </mxCell>
        <mxCell id="gw0M7WNjvELjQq90fpm7-204" value="tim_15000" style="text;html=1;align=left;verticalAlign=middle;resizable=0;points=[];autosize=1;strokeColor=none;fillColor=none;fontSize=15;rotation=-90;" vertex="1" parent="gw0M7WNjvELjQq90fpm7-1">
          <mxGeometry x="1593" y="733.5" width="90" height="30" as="geometry" />
        </mxCell>
        <mxCell id="gw0M7WNjvELjQq90fpm7-205" value="tim_1000" style="text;html=1;align=left;verticalAlign=middle;resizable=0;points=[];autosize=1;strokeColor=none;fillColor=none;fontSize=15;rotation=-90;" vertex="1" parent="gw0M7WNjvELjQq90fpm7-1">
          <mxGeometry x="1634" y="733.5" width="90" height="30" as="geometry" />
        </mxCell>
        <mxCell id="gw0M7WNjvELjQq90fpm7-206" value="" style="endArrow=classic;html=1;rounded=0;strokeColor=#FF0000;" edge="1" parent="gw0M7WNjvELjQq90fpm7-1">
          <mxGeometry width="50" height="50" relative="1" as="geometry">
            <mxPoint x="1640" y="800" as="sourcePoint" />
            <mxPoint x="1840" y="2560" as="targetPoint" />
            <Array as="points">
              <mxPoint x="1640" y="1000" />
              <mxPoint x="1840" y="1000" />
            </Array>
          </mxGeometry>
        </mxCell>
        <mxCell id="gw0M7WNjvELjQq90fpm7-207" value="" style="endArrow=classic;html=1;rounded=0;strokeColor=#FF0000;" edge="1" parent="gw0M7WNjvELjQq90fpm7-1">
          <mxGeometry width="50" height="50" relative="1" as="geometry">
            <mxPoint x="1680" y="800" as="sourcePoint" />
            <mxPoint x="1880" y="2560" as="targetPoint" />
            <Array as="points">
              <mxPoint x="1680" y="960" />
              <mxPoint x="1880" y="960" />
            </Array>
          </mxGeometry>
        </mxCell>
        <mxCell id="gw0M7WNjvELjQq90fpm7-208" value="t_dpdout" style="text;html=1;align=left;verticalAlign=middle;resizable=0;points=[];autosize=1;strokeColor=none;fillColor=none;fontSize=15;rotation=90;" vertex="1" parent="gw0M7WNjvELjQq90fpm7-1">
          <mxGeometry x="1799" y="2605" width="80" height="30" as="geometry" />
        </mxCell>
        <mxCell id="gw0M7WNjvELjQq90fpm7-209" value="t_dpdin" style="text;html=1;align=left;verticalAlign=middle;resizable=0;points=[];autosize=1;strokeColor=none;fillColor=none;fontSize=15;rotation=90;" vertex="1" parent="gw0M7WNjvELjQq90fpm7-1">
          <mxGeometry x="1845" y="2601" width="70" height="30" as="geometry" />
        </mxCell>
        <mxCell id="gw0M7WNjvELjQq90fpm7-213" style="edgeStyle=orthogonalEdgeStyle;rounded=0;orthogonalLoop=1;jettySize=auto;html=1;strokeColor=#00FF00;" edge="1" parent="gw0M7WNjvELjQq90fpm7-1">
          <mxGeometry relative="1" as="geometry">
            <mxPoint x="1839" y="440" as="targetPoint" />
            <mxPoint x="1839" y="240" as="sourcePoint" />
          </mxGeometry>
        </mxCell>
        <mxCell id="gw0M7WNjvELjQq90fpm7-214" value="hCS_reset" style="text;html=1;align=right;verticalAlign=middle;resizable=0;points=[];autosize=1;strokeColor=none;fillColor=none;rotation=90;fontSize=15;" vertex="1" parent="gw0M7WNjvELjQq90fpm7-1">
          <mxGeometry x="1794" y="159" width="90" height="30" as="geometry" />
        </mxCell>
        <mxCell id="gw0M7WNjvELjQq90fpm7-215" value="" style="endArrow=classic;html=1;rounded=0;startArrow=oval;startFill=1;" edge="1" parent="gw0M7WNjvELjQq90fpm7-1">
          <mxGeometry width="50" height="50" relative="1" as="geometry">
            <mxPoint x="800" y="1550" as="sourcePoint" />
            <mxPoint x="2040" y="1550" as="targetPoint" />
          </mxGeometry>
        </mxCell>
        <mxCell id="gw0M7WNjvELjQq90fpm7-216" value="" style="endArrow=classic;html=1;rounded=0;strokeColor=#FF0000;" edge="1" parent="gw0M7WNjvELjQq90fpm7-1">
          <mxGeometry width="50" height="50" relative="1" as="geometry">
            <mxPoint x="399.95000000000005" y="2359" as="sourcePoint" />
            <mxPoint x="400" y="2561" as="targetPoint" />
          </mxGeometry>
        </mxCell>
        <mxCell id="gw0M7WNjvELjQq90fpm7-217" value="mem_clear_n" style="text;html=1;align=left;verticalAlign=middle;resizable=0;points=[];autosize=1;strokeColor=none;fillColor=none;fontSize=15;rotation=90;" vertex="1" parent="gw0M7WNjvELjQq90fpm7-1">
          <mxGeometry x="345" y="2620" width="110" height="30" as="geometry" />
        </mxCell>
        <mxCell id="gw0M7WNjvELjQq90fpm7-218" style="edgeStyle=orthogonalEdgeStyle;rounded=0;orthogonalLoop=1;jettySize=auto;html=1;exitX=1;exitY=0.5;exitDx=0;exitDy=0;entryX=0;entryY=0.5;entryDx=0;entryDy=0;" edge="1" parent="gw0M7WNjvELjQq90fpm7-1" source="gw0M7WNjvELjQq90fpm7-219" target="gw0M7WNjvELjQq90fpm7-144">
          <mxGeometry relative="1" as="geometry" />
        </mxCell>
        <mxCell id="gw0M7WNjvELjQq90fpm7-219" value="" style="rounded=0;whiteSpace=wrap;html=1;" vertex="1" parent="gw0M7WNjvELjQq90fpm7-1">
          <mxGeometry x="1040" y="2160" width="240" height="60" as="geometry" />
        </mxCell>
        <mxCell id="gw0M7WNjvELjQq90fpm7-220" value="&lt;font style=&quot;font-size: 15px;&quot;&gt;CK_gater: gater&lt;br&gt;&lt;/font&gt;" style="rounded=0;whiteSpace=wrap;html=1;" vertex="1" parent="gw0M7WNjvELjQq90fpm7-1">
          <mxGeometry x="1040" y="2140" width="240" height="20" as="geometry" />
        </mxCell>
        <mxCell id="gw0M7WNjvELjQq90fpm7-221" value="gated_clock" style="text;html=1;align=right;verticalAlign=middle;resizable=0;points=[];autosize=1;strokeColor=none;fillColor=none;fontSize=15;" vertex="1" parent="gw0M7WNjvELjQq90fpm7-1">
          <mxGeometry x="1175" y="2174" width="100" height="30" as="geometry" />
        </mxCell>
        <mxCell id="gw0M7WNjvELjQq90fpm7-222" value="gating_enable_n" style="text;html=1;align=left;verticalAlign=middle;resizable=0;points=[];autosize=1;strokeColor=none;fillColor=none;fontSize=15;" vertex="1" parent="gw0M7WNjvELjQq90fpm7-1">
          <mxGeometry x="1044" y="2174" width="130" height="30" as="geometry" />
        </mxCell>
        <mxCell id="gw0M7WNjvELjQq90fpm7-223" value="" style="triangle;whiteSpace=wrap;html=1;direction=east;fontSize=15;" vertex="1" parent="gw0M7WNjvELjQq90fpm7-1">
          <mxGeometry x="1040" y="2210" width="10" height="10" as="geometry" />
        </mxCell>
        <mxCell id="gw0M7WNjvELjQq90fpm7-224" style="edgeStyle=orthogonalEdgeStyle;rounded=0;orthogonalLoop=1;jettySize=auto;html=1;strokeColor=#00FF00;" edge="1" parent="gw0M7WNjvELjQq90fpm7-1">
          <mxGeometry relative="1" as="geometry">
            <mxPoint x="1400" y="479" as="targetPoint" />
            <mxPoint x="1400.21" y="239" as="sourcePoint" />
          </mxGeometry>
        </mxCell>
        <mxCell id="gw0M7WNjvELjQq90fpm7-225" value="ca_enable" style="text;html=1;align=right;verticalAlign=middle;resizable=0;points=[];autosize=1;strokeColor=none;fillColor=none;rotation=90;fontSize=15;" vertex="1" parent="gw0M7WNjvELjQq90fpm7-1">
          <mxGeometry x="1356" y="159" width="90" height="30" as="geometry" />
        </mxCell>
        <mxCell id="gw0M7WNjvELjQq90fpm7-226" style="rounded=0;orthogonalLoop=1;jettySize=auto;html=1;strokeColor=#00FF00;" edge="1" parent="gw0M7WNjvELjQq90fpm7-1">
          <mxGeometry relative="1" as="geometry">
            <mxPoint x="880" y="1720" as="targetPoint" />
            <mxPoint x="880" y="240" as="sourcePoint" />
            <Array as="points" />
          </mxGeometry>
        </mxCell>
        <mxCell id="gw0M7WNjvELjQq90fpm7-227" value="readdata_enable" style="text;html=1;align=right;verticalAlign=middle;resizable=0;points=[];autosize=1;strokeColor=none;fillColor=none;rotation=90;fontSize=15;" vertex="1" parent="gw0M7WNjvELjQq90fpm7-1">
          <mxGeometry x="810" y="134" width="140" height="30" as="geometry" />
        </mxCell>
        <mxCell id="gw0M7WNjvELjQq90fpm7-228" style="edgeStyle=orthogonalEdgeStyle;rounded=0;orthogonalLoop=1;jettySize=auto;html=1;startArrow=oval;startFill=1;" edge="1" parent="gw0M7WNjvELjQq90fpm7-1">
          <mxGeometry relative="1" as="geometry">
            <mxPoint x="480" y="1360" as="targetPoint" />
            <mxPoint x="280" y="1360" as="sourcePoint" />
            <Array as="points">
              <mxPoint x="280" y="1360" />
            </Array>
          </mxGeometry>
        </mxCell>
        <mxCell id="gw0M7WNjvELjQq90fpm7-229" value="" style="endArrow=oval;html=1;rounded=0;endFill=1;" edge="1" parent="gw0M7WNjvELjQq90fpm7-1">
          <mxGeometry width="50" height="50" relative="1" as="geometry">
            <mxPoint x="280" y="1360" as="sourcePoint" />
            <mxPoint x="280" y="1300" as="targetPoint" />
          </mxGeometry>
        </mxCell>
        <mxCell id="gw0M7WNjvELjQq90fpm7-230" value="writedata_enable" style="text;html=1;align=right;verticalAlign=middle;resizable=0;points=[];autosize=1;strokeColor=none;fillColor=none;rotation=90;fontSize=15;" vertex="1" parent="gw0M7WNjvELjQq90fpm7-1">
          <mxGeometry x="469" y="134" width="140" height="30" as="geometry" />
        </mxCell>
        <mxCell id="JbxwsXFkPlloRzmrdIa0-0" value="" style="rounded=0;whiteSpace=wrap;html=1;" vertex="1" parent="gw0M7WNjvELjQq90fpm7-1">
          <mxGeometry x="461" y="1760" width="160" height="260" as="geometry" />
        </mxCell>
        <mxCell id="JbxwsXFkPlloRzmrdIa0-1" value="&lt;font style=&quot;font-size: 15px;&quot;&gt;out_snc: synchronizer&lt;/font&gt;" style="rounded=0;whiteSpace=wrap;html=1;" vertex="1" parent="gw0M7WNjvELjQq90fpm7-1">
          <mxGeometry x="461" y="2020" width="160" height="20" as="geometry" />
        </mxCell>
        <mxCell id="JbxwsXFkPlloRzmrdIa0-2" value="din" style="text;html=1;align=right;verticalAlign=middle;resizable=0;points=[];autosize=1;strokeColor=none;fillColor=none;fontSize=15;rotation=0;" vertex="1" parent="gw0M7WNjvELjQq90fpm7-1">
          <mxGeometry x="576" y="1906" width="40" height="30" as="geometry" />
        </mxCell>
        <mxCell id="JbxwsXFkPlloRzmrdIa0-3" value="dout" style="text;html=1;align=left;verticalAlign=middle;resizable=0;points=[];autosize=1;strokeColor=none;fillColor=none;fontSize=15;rotation=0;" vertex="1" parent="gw0M7WNjvELjQq90fpm7-1">
          <mxGeometry x="466" y="1945" width="50" height="30" as="geometry" />
        </mxCell>
        <mxCell id="JbxwsXFkPlloRzmrdIa0-4" value="&lt;font style=&quot;font-size: 15px;&quot;&gt;din_strobe&lt;/font&gt;" style="text;html=1;align=left;verticalAlign=middle;resizable=0;points=[];autosize=1;strokeColor=none;fillColor=none;fontSize=15;rotation=90;" vertex="1" parent="gw0M7WNjvELjQq90fpm7-1">
          <mxGeometry x="535" y="1797" width="90" height="30" as="geometry" />
        </mxCell>
        <mxCell id="JbxwsXFkPlloRzmrdIa0-6" value="" style="triangle;whiteSpace=wrap;html=1;direction=south;fontSize=15;" vertex="1" parent="gw0M7WNjvELjQq90fpm7-1">
          <mxGeometry x="461" y="1760" width="10" height="10" as="geometry" />
        </mxCell>
        <mxCell id="JbxwsXFkPlloRzmrdIa0-7" value="valid" style="text;html=1;align=left;verticalAlign=middle;resizable=0;points=[];autosize=1;strokeColor=none;fillColor=none;fontSize=15;rotation=0;" vertex="1" parent="gw0M7WNjvELjQq90fpm7-1">
          <mxGeometry x="466" y="1864" width="50" height="30" as="geometry" />
        </mxCell>
        <mxCell id="JbxwsXFkPlloRzmrdIa0-8" value="CS_n" style="text;html=1;align=left;verticalAlign=middle;resizable=0;points=[];autosize=1;strokeColor=none;fillColor=none;fontSize=15;rotation=90;" vertex="1" parent="gw0M7WNjvELjQq90fpm7-1">
          <mxGeometry x="470" y="1781" width="60" height="30" as="geometry" />
        </mxCell>
        <mxCell id="s1WomI2Zlod0P37Gdnku-1" style="edgeStyle=orthogonalEdgeStyle;rounded=0;orthogonalLoop=1;jettySize=auto;html=1;exitX=1;exitY=0.5;exitDx=0;exitDy=0;exitPerimeter=0;entryX=0;entryY=0.5;entryDx=0;entryDy=0;" edge="1" parent="gw0M7WNjvELjQq90fpm7-1" source="s1WomI2Zlod0P37Gdnku-0" target="gw0M7WNjvELjQq90fpm7-78">
          <mxGeometry relative="1" as="geometry" />
        </mxCell>
        <mxCell id="s1WomI2Zlod0P37Gdnku-0" value="" style="verticalLabelPosition=bottom;shadow=0;dashed=0;align=center;html=1;verticalAlign=top;shape=mxgraph.electrical.logic_gates.logic_gate;operation=and;direction=west;" vertex="1" parent="gw0M7WNjvELjQq90fpm7-1">
          <mxGeometry x="1030" y="1800" width="59" height="40" as="geometry" />
        </mxCell>
        <mxCell id="s1WomI2Zlod0P37Gdnku-2" style="edgeStyle=orthogonalEdgeStyle;rounded=0;orthogonalLoop=1;jettySize=auto;html=1;strokeColor=#00FF00;entryX=0;entryY=0.75;entryDx=0;entryDy=0;entryPerimeter=0;endArrow=none;endFill=0;" edge="1" parent="gw0M7WNjvELjQq90fpm7-1" target="s1WomI2Zlod0P37Gdnku-0">
          <mxGeometry relative="1" as="geometry">
            <mxPoint x="1080" y="2190" as="targetPoint" />
            <mxPoint x="1040" y="240" as="sourcePoint" />
            <Array as="points">
              <mxPoint x="1040" y="1420" />
              <mxPoint x="1160" y="1420" />
              <mxPoint x="1160" y="1810" />
            </Array>
          </mxGeometry>
        </mxCell>
        <mxCell id="s1WomI2Zlod0P37Gdnku-3" value="RWDS_sampling_enable" style="text;html=1;align=right;verticalAlign=middle;resizable=0;points=[];autosize=1;strokeColor=none;fillColor=none;rotation=90;fontSize=15;" vertex="1" parent="gw0M7WNjvELjQq90fpm7-1">
          <mxGeometry x="945" y="109" width="190" height="30" as="geometry" />
        </mxCell>
      </root>
    </mxGraphModel>
  </diagram>
  <diagram id="odnvakmhzm58qmFqixX_" name="SSRAM_to_hRAM: FSM">
    <mxGraphModel dx="2428" dy="876" grid="1" gridSize="10" guides="1" tooltips="1" connect="1" arrows="1" fold="1" page="1" pageScale="1" pageWidth="850" pageHeight="1100" math="0" shadow="0">
      <root>
        <mxCell id="0" />
        <mxCell id="1" parent="0" />
        <mxCell id="PlFkFAGkTtbMqp4T3CCX-1" style="edgeStyle=orthogonalEdgeStyle;rounded=0;orthogonalLoop=1;jettySize=auto;html=1;exitX=1;exitY=0.5;exitDx=0;exitDy=0;entryX=0;entryY=0.5;entryDx=0;entryDy=0;" parent="1" source="srkXyZZCTUbFU61cHcOB-1" target="nXCgFZBG6j15vqYiGIyg-1" edge="1">
          <mxGeometry relative="1" as="geometry" />
        </mxCell>
        <mxCell id="srkXyZZCTUbFU61cHcOB-1" value="&lt;div style=&quot;font-size: 15px;&quot;&gt;&lt;font style=&quot;font-size: 15px;&quot;&gt;rowCol_addr_clear_n&lt;/font&gt;&lt;/div&gt;&lt;div style=&quot;font-size: 15px;&quot;&gt;&lt;font style=&quot;font-size: 15px;&quot;&gt;lowCol_addr_clear_n&lt;/font&gt;&lt;/div&gt;&lt;div style=&quot;font-size: 15px;&quot;&gt;&lt;font style=&quot;font-size: 15px;&quot;&gt;ca_clear_n&lt;/font&gt;&lt;/div&gt;&lt;div style=&quot;font-size: 15px;&quot;&gt;&lt;font style=&quot;font-size: 15px;&quot;&gt;tpd_tim_clear_n&lt;/font&gt;&lt;/div&gt;&lt;div style=&quot;font-size: 15px;&quot;&gt;&lt;font style=&quot;font-size: 15px;&quot;&gt;writedata_clear_n&lt;br&gt;&lt;/font&gt;&lt;/div&gt;&lt;div style=&quot;font-size: 15px;&quot;&gt;&lt;font style=&quot;font-size: 15px;&quot;&gt;readbytes_clear_n&lt;/font&gt;&lt;/div&gt;&lt;div style=&quot;font-size: 15px;&quot;&gt;&lt;font style=&quot;font-size: 15px;&quot;&gt;readdata_clear_n&lt;/font&gt;&lt;/div&gt;&lt;div style=&quot;font-size: 15px;&quot;&gt;&lt;font style=&quot;font-size: 15px;&quot;&gt;op_tim_clear_n&lt;/font&gt;&lt;/div&gt;&lt;div style=&quot;font-size: 15px;&quot;&gt;&lt;font style=&quot;font-size: 15px;&quot;&gt;clear_dpd_status_n&lt;br&gt;&lt;/font&gt;&lt;/div&gt;&lt;div style=&quot;font-size: 15px;&quot;&gt;&lt;font style=&quot;font-size: 15px;&quot;&gt;busy&lt;/font&gt;&lt;/div&gt;&lt;div style=&quot;font-size: 15px;&quot;&gt;&lt;font style=&quot;font-size: 15px;&quot;&gt;CK_gating_enable_n&lt;br&gt;&lt;/font&gt;&lt;/div&gt;&lt;div style=&quot;font-size: 15px;&quot;&gt;&lt;font style=&quot;font-size: 15px;&quot;&gt;hbus_RESET_n&lt;font style=&quot;font-size: 15px;&quot;&gt;&lt;br&gt;&lt;/font&gt;&lt;/font&gt;&lt;/div&gt;" style="rounded=0;whiteSpace=wrap;html=1;" parent="1" vertex="1">
          <mxGeometry x="-320" y="120" width="200" height="240" as="geometry" />
        </mxCell>
        <mxCell id="srkXyZZCTUbFU61cHcOB-3" style="edgeStyle=orthogonalEdgeStyle;rounded=0;orthogonalLoop=1;jettySize=auto;html=1;exitX=0.5;exitY=0;exitDx=0;exitDy=0;entryX=0.5;entryY=0;entryDx=0;entryDy=0;dashed=1;" parent="1" target="srkXyZZCTUbFU61cHcOB-2" edge="1">
          <mxGeometry relative="1" as="geometry">
            <mxPoint x="-220" y="60" as="sourcePoint" />
          </mxGeometry>
        </mxCell>
        <mxCell id="srkXyZZCTUbFU61cHcOB-2" value="&lt;font style=&quot;font-size: 15px;&quot;&gt;RESET&lt;/font&gt;" style="rounded=0;whiteSpace=wrap;html=1;" parent="1" vertex="1">
          <mxGeometry x="-320" y="100" width="200" height="20" as="geometry" />
        </mxCell>
        <mxCell id="srkXyZZCTUbFU61cHcOB-4" value="&lt;font style=&quot;font-size: 16px;&quot;&gt;rst_n&lt;/font&gt;" style="text;html=1;align=center;verticalAlign=middle;resizable=0;points=[];autosize=1;strokeColor=none;fillColor=none;" parent="1" vertex="1">
          <mxGeometry x="-250" y="30" width="60" height="30" as="geometry" />
        </mxCell>
        <mxCell id="RMclp1_9rLgOVOYFO7tf-4" value="0" style="edgeStyle=orthogonalEdgeStyle;rounded=0;orthogonalLoop=1;jettySize=auto;html=1;exitX=1;exitY=0.5;exitDx=0;exitDy=0;entryX=0;entryY=0.5;entryDx=0;entryDy=0;" parent="1" source="RMclp1_9rLgOVOYFO7tf-1" target="RMclp1_9rLgOVOYFO7tf-3" edge="1">
          <mxGeometry x="-0.7778" relative="1" as="geometry">
            <mxPoint as="offset" />
          </mxGeometry>
        </mxCell>
        <mxCell id="D6_Xv6pR25ce8CTm2c1d-2" value="1" style="edgeStyle=orthogonalEdgeStyle;rounded=0;orthogonalLoop=1;jettySize=auto;html=1;exitX=0.5;exitY=1;exitDx=0;exitDy=0;entryX=0.5;entryY=0;entryDx=0;entryDy=0;" parent="1" source="RMclp1_9rLgOVOYFO7tf-1" target="DqTSj6_k9YJr3sGetXp6-1" edge="1">
          <mxGeometry relative="1" as="geometry">
            <mxPoint x="340" y="800" as="targetPoint" />
          </mxGeometry>
        </mxCell>
        <mxCell id="RMclp1_9rLgOVOYFO7tf-1" value="&lt;font style=&quot;font-size: 15px;&quot;&gt;OE&lt;/font&gt;" style="rhombus;whiteSpace=wrap;html=1;" parent="1" vertex="1">
          <mxGeometry x="280" y="660" width="120" height="80" as="geometry" />
        </mxCell>
        <mxCell id="RMclp1_9rLgOVOYFO7tf-7" value="0" style="edgeStyle=orthogonalEdgeStyle;rounded=0;orthogonalLoop=1;jettySize=auto;html=1;exitX=0.5;exitY=0;exitDx=0;exitDy=0;" parent="1" source="RMclp1_9rLgOVOYFO7tf-3" edge="1">
          <mxGeometry x="-0.8889" relative="1" as="geometry">
            <mxPoint x="340" y="360" as="targetPoint" />
            <Array as="points">
              <mxPoint x="820" y="360" />
            </Array>
            <mxPoint as="offset" />
          </mxGeometry>
        </mxCell>
        <mxCell id="D6_Xv6pR25ce8CTm2c1d-4" value="1" style="edgeStyle=orthogonalEdgeStyle;rounded=0;orthogonalLoop=1;jettySize=auto;html=1;exitX=0.5;exitY=1;exitDx=0;exitDy=0;entryX=0.5;entryY=0;entryDx=0;entryDy=0;" parent="1" source="RMclp1_9rLgOVOYFO7tf-3" target="D6_Xv6pR25ce8CTm2c1d-3" edge="1">
          <mxGeometry relative="1" as="geometry" />
        </mxCell>
        <mxCell id="RMclp1_9rLgOVOYFO7tf-3" value="&lt;font style=&quot;font-size: 15px;&quot;&gt;WE&lt;/font&gt;" style="rhombus;whiteSpace=wrap;html=1;" parent="1" vertex="1">
          <mxGeometry x="760" y="660" width="120" height="80" as="geometry" />
        </mxCell>
        <mxCell id="DqTSj6_k9YJr3sGetXp6-3" style="edgeStyle=orthogonalEdgeStyle;rounded=0;orthogonalLoop=1;jettySize=auto;html=1;exitX=0.5;exitY=1;exitDx=0;exitDy=0;entryX=0.5;entryY=0;entryDx=0;entryDy=0;" parent="1" source="RMclp1_9rLgOVOYFO7tf-5" target="RMclp1_9rLgOVOYFO7tf-1" edge="1">
          <mxGeometry relative="1" as="geometry" />
        </mxCell>
        <mxCell id="RMclp1_9rLgOVOYFO7tf-5" value="&lt;div style=&quot;font-size: 15px;&quot;&gt;&lt;font style=&quot;font-size: 15px;&quot;&gt;tpd_tim_clear_n&lt;/font&gt;&lt;/div&gt;&lt;div style=&quot;font-size: 15px;&quot;&gt;&lt;font style=&quot;font-size: 15px;&quot;&gt;op_tim_clear_n&lt;/font&gt;&lt;/div&gt;&lt;div style=&quot;font-size: 15px;&quot;&gt;&lt;font style=&quot;font-size: 15px;&quot;&gt;CK_gating_enable_n&lt;br&gt;&lt;/font&gt;&lt;/div&gt;&lt;div style=&quot;font-size: 15px;&quot;&gt;&lt;font style=&quot;font-size: 15px;&quot;&gt;writedata_load&lt;/font&gt;&lt;/div&gt;&lt;div style=&quot;font-size: 15px;&quot;&gt;&lt;font style=&quot;font-size: 15px;&quot;&gt;row_upCol_addr_enable&lt;/font&gt;&lt;/div&gt;&lt;div style=&quot;font-size: 15px;&quot;&gt;&lt;font style=&quot;font-size: 15px;&quot;&gt;lowCol_addr_enable&lt;font style=&quot;font-size: 15px;&quot;&gt;&lt;br&gt;&lt;/font&gt;&lt;/font&gt;&lt;/div&gt;" style="rounded=0;whiteSpace=wrap;html=1;" parent="1" vertex="1">
          <mxGeometry x="240" y="460" width="200" height="120" as="geometry" />
        </mxCell>
        <mxCell id="RMclp1_9rLgOVOYFO7tf-6" value="&lt;font style=&quot;font-size: 15px;&quot;&gt;IDLE&lt;/font&gt;" style="rounded=0;whiteSpace=wrap;html=1;" parent="1" vertex="1">
          <mxGeometry x="240" y="440" width="200" height="20" as="geometry" />
        </mxCell>
        <mxCell id="LbrvnTTjmEKnze0MFETq-3" value="0" style="edgeStyle=orthogonalEdgeStyle;rounded=0;orthogonalLoop=1;jettySize=auto;html=1;exitX=0.5;exitY=1;exitDx=0;exitDy=0;entryX=0.5;entryY=0;entryDx=0;entryDy=0;" parent="1" source="D6_Xv6pR25ce8CTm2c1d-1" target="ZmiuNyQBzfB5jD7rwx-O-2" edge="1">
          <mxGeometry x="-0.5692" relative="1" as="geometry">
            <mxPoint x="340" y="1072" as="sourcePoint" />
            <mxPoint x="340" y="1202" as="targetPoint" />
            <Array as="points" />
            <mxPoint as="offset" />
          </mxGeometry>
        </mxCell>
        <mxCell id="D6_Xv6pR25ce8CTm2c1d-1" value="&lt;font style=&quot;font-size: 15px;&quot;&gt;address_space&lt;/font&gt;" style="rhombus;whiteSpace=wrap;html=1;" parent="1" vertex="1">
          <mxGeometry x="240" y="960" width="200" height="100" as="geometry" />
        </mxCell>
        <mxCell id="OkB0FJl68vrUe3mwxO-q-12" value="0" style="edgeStyle=orthogonalEdgeStyle;rounded=0;orthogonalLoop=1;jettySize=auto;html=1;entryX=0.5;entryY=0;entryDx=0;entryDy=0;exitX=0.5;exitY=1;exitDx=0;exitDy=0;" parent="1" source="DqTSj6_k9YJr3sGetXp6-7" target="OkB0FJl68vrUe3mwxO-q-8" edge="1">
          <mxGeometry x="-0.5385" relative="1" as="geometry">
            <mxPoint x="820" y="1070" as="sourcePoint" />
            <mxPoint as="offset" />
          </mxGeometry>
        </mxCell>
        <mxCell id="DqTSj6_k9YJr3sGetXp6-8" value="0" style="edgeStyle=orthogonalEdgeStyle;rounded=0;orthogonalLoop=1;jettySize=auto;html=1;exitX=0.5;exitY=1;exitDx=0;exitDy=0;entryX=0.5;entryY=0;entryDx=0;entryDy=0;" parent="1" source="D6_Xv6pR25ce8CTm2c1d-3" target="DqTSj6_k9YJr3sGetXp6-7" edge="1">
          <mxGeometry relative="1" as="geometry">
            <mxPoint x="820.1578947368421" y="960" as="targetPoint" />
          </mxGeometry>
        </mxCell>
        <mxCell id="DqTSj6_k9YJr3sGetXp6-11" value="1" style="edgeStyle=orthogonalEdgeStyle;rounded=0;orthogonalLoop=1;jettySize=auto;html=1;exitX=1;exitY=0.5;exitDx=0;exitDy=0;entryX=0;entryY=0.5;entryDx=0;entryDy=0;" parent="1" source="D6_Xv6pR25ce8CTm2c1d-3" target="DqTSj6_k9YJr3sGetXp6-10" edge="1">
          <mxGeometry relative="1" as="geometry" />
        </mxCell>
        <mxCell id="D6_Xv6pR25ce8CTm2c1d-3" value="&lt;font style=&quot;font-size: 15px;&quot;&gt;address_space&lt;/font&gt;" style="rhombus;whiteSpace=wrap;html=1;" parent="1" vertex="1">
          <mxGeometry x="720" y="810" width="200" height="100" as="geometry" />
        </mxCell>
        <mxCell id="LPefZXVLLZdhcYJFyW4a-1" style="edgeStyle=orthogonalEdgeStyle;rounded=0;orthogonalLoop=1;jettySize=auto;html=1;exitX=1;exitY=0.5;exitDx=0;exitDy=0;entryX=0;entryY=0.5;entryDx=0;entryDy=0;" parent="1" source="nXCgFZBG6j15vqYiGIyg-1" target="PlFkFAGkTtbMqp4T3CCX-2" edge="1">
          <mxGeometry relative="1" as="geometry" />
        </mxCell>
        <mxCell id="nXCgFZBG6j15vqYiGIyg-1" value="&lt;div&gt;&lt;font style=&quot;font-size: 15px;&quot;&gt;tpd_tim_enable&lt;/font&gt;&lt;/div&gt;&lt;div&gt;&lt;font style=&quot;font-size: 15px;&quot;&gt;busy&lt;br&gt;&lt;/font&gt;&lt;/div&gt;&lt;div style=&quot;font-size: 15px;&quot;&gt;CK_gating_enable_n&lt;br&gt;&lt;/div&gt;" style="rounded=0;whiteSpace=wrap;html=1;" parent="1" vertex="1">
          <mxGeometry x="40" y="205" width="160" height="70" as="geometry" />
        </mxCell>
        <mxCell id="nXCgFZBG6j15vqYiGIyg-2" value="&lt;font style=&quot;font-size: 15px;&quot;&gt;RESET_WAIT&lt;/font&gt;" style="rounded=0;whiteSpace=wrap;html=1;" parent="1" vertex="1">
          <mxGeometry x="40" y="185" width="160" height="20" as="geometry" />
        </mxCell>
        <mxCell id="LPefZXVLLZdhcYJFyW4a-2" value="0" style="edgeStyle=orthogonalEdgeStyle;rounded=0;orthogonalLoop=1;jettySize=auto;html=1;exitX=0.5;exitY=0;exitDx=0;exitDy=0;" parent="1" source="PlFkFAGkTtbMqp4T3CCX-2" edge="1">
          <mxGeometry x="-0.8621" relative="1" as="geometry">
            <mxPoint x="-40" y="240" as="targetPoint" />
            <Array as="points">
              <mxPoint x="340" y="120" />
              <mxPoint x="-40" y="120" />
            </Array>
            <mxPoint as="offset" />
          </mxGeometry>
        </mxCell>
        <mxCell id="LPefZXVLLZdhcYJFyW4a-3" value="1" style="edgeStyle=orthogonalEdgeStyle;rounded=0;orthogonalLoop=1;jettySize=auto;html=1;exitX=0.5;exitY=1;exitDx=0;exitDy=0;" parent="1" source="PlFkFAGkTtbMqp4T3CCX-2" edge="1">
          <mxGeometry x="-0.5029" relative="1" as="geometry">
            <mxPoint x="340.3529411764707" y="440" as="targetPoint" />
            <mxPoint as="offset" />
          </mxGeometry>
        </mxCell>
        <mxCell id="PlFkFAGkTtbMqp4T3CCX-2" value="&lt;font style=&quot;font-size: 15px;&quot;&gt;tpdout&lt;/font&gt;" style="rhombus;whiteSpace=wrap;html=1;" parent="1" vertex="1">
          <mxGeometry x="280" y="200" width="120" height="80" as="geometry" />
        </mxCell>
        <mxCell id="OkB0FJl68vrUe3mwxO-q-13" value="0" style="edgeStyle=orthogonalEdgeStyle;rounded=0;orthogonalLoop=1;jettySize=auto;html=1;exitX=1;exitY=0.5;exitDx=0;exitDy=0;" parent="1" source="OkB0FJl68vrUe3mwxO-q-8" edge="1">
          <mxGeometry relative="1" as="geometry">
            <mxPoint x="980" y="1240" as="targetPoint" />
          </mxGeometry>
        </mxCell>
        <mxCell id="OkB0FJl68vrUe3mwxO-q-8" value="&lt;font style=&quot;font-size: 15px;&quot;&gt;op_tim_geq1&lt;/font&gt;" style="rhombus;whiteSpace=wrap;html=1;" parent="1" vertex="1">
          <mxGeometry x="740" y="1200" width="160" height="80" as="geometry" />
        </mxCell>
        <mxCell id="OkB0FJl68vrUe3mwxO-q-9" value="&lt;div style=&quot;font-size: 15px;&quot;&gt;&lt;font style=&quot;font-size: 15px;&quot;&gt;op_tim_enable&lt;/font&gt;&lt;/div&gt;&lt;div style=&quot;font-size: 15px;&quot;&gt;&lt;font style=&quot;font-size: 15px;&quot;&gt;CK_gating_enable_n&lt;br&gt;&lt;/font&gt;&lt;/div&gt;" style="rounded=0;whiteSpace=wrap;html=1;" parent="1" vertex="1">
          <mxGeometry x="970" y="1220" width="180" height="50" as="geometry" />
        </mxCell>
        <mxCell id="OkB0FJl68vrUe3mwxO-q-14" style="edgeStyle=orthogonalEdgeStyle;rounded=0;orthogonalLoop=1;jettySize=auto;html=1;exitX=0.5;exitY=0;exitDx=0;exitDy=0;" parent="1" source="OkB0FJl68vrUe3mwxO-q-11" edge="1">
          <mxGeometry relative="1" as="geometry">
            <mxPoint x="820" y="1120" as="targetPoint" />
            <Array as="points">
              <mxPoint x="1060" y="1120" />
            </Array>
          </mxGeometry>
        </mxCell>
        <mxCell id="OkB0FJl68vrUe3mwxO-q-11" value="&lt;font style=&quot;font-size: 15px;&quot;&gt;OE_WAIT&lt;/font&gt;" style="rounded=0;whiteSpace=wrap;html=1;" parent="1" vertex="1">
          <mxGeometry x="970" y="1200" width="180" height="20" as="geometry" />
        </mxCell>
        <mxCell id="DqTSj6_k9YJr3sGetXp6-5" value="0" style="edgeStyle=orthogonalEdgeStyle;rounded=0;orthogonalLoop=1;jettySize=auto;html=1;exitX=0.5;exitY=1;exitDx=0;exitDy=0;entryX=0.5;entryY=0;entryDx=0;entryDy=0;" parent="1" source="DqTSj6_k9YJr3sGetXp6-1" target="D6_Xv6pR25ce8CTm2c1d-1" edge="1">
          <mxGeometry relative="1" as="geometry" />
        </mxCell>
        <mxCell id="DqTSj6_k9YJr3sGetXp6-6" value="1" style="edgeStyle=orthogonalEdgeStyle;rounded=0;orthogonalLoop=1;jettySize=auto;html=1;exitX=0;exitY=0.5;exitDx=0;exitDy=0;" parent="1" source="DqTSj6_k9YJr3sGetXp6-1" edge="1">
          <mxGeometry x="-0.8974" relative="1" as="geometry">
            <mxPoint x="340" y="360" as="targetPoint" />
            <Array as="points">
              <mxPoint x="160" y="860" />
              <mxPoint x="160" y="360" />
            </Array>
            <mxPoint as="offset" />
          </mxGeometry>
        </mxCell>
        <mxCell id="DqTSj6_k9YJr3sGetXp6-1" value="&lt;font style=&quot;font-size: 15px;&quot;&gt;dpd_mode_on&lt;/font&gt;" style="rhombus;whiteSpace=wrap;html=1;" parent="1" vertex="1">
          <mxGeometry x="260" y="820" width="160" height="80" as="geometry" />
        </mxCell>
        <mxCell id="DqTSj6_k9YJr3sGetXp6-9" value="1" style="edgeStyle=orthogonalEdgeStyle;rounded=0;orthogonalLoop=1;jettySize=auto;html=1;exitX=0;exitY=0.5;exitDx=0;exitDy=0;" parent="1" source="DqTSj6_k9YJr3sGetXp6-7" edge="1">
          <mxGeometry x="-0.848" relative="1" as="geometry">
            <mxPoint x="600" y="360" as="targetPoint" />
            <mxPoint as="offset" />
          </mxGeometry>
        </mxCell>
        <mxCell id="DqTSj6_k9YJr3sGetXp6-7" value="&lt;font style=&quot;font-size: 15px;&quot;&gt;dpd_mode_on&lt;/font&gt;" style="rhombus;whiteSpace=wrap;html=1;" parent="1" vertex="1">
          <mxGeometry x="740" y="970" width="160" height="80" as="geometry" />
        </mxCell>
        <mxCell id="i3tvZEEEmX6wgFm2jWyT-2" value="0" style="edgeStyle=orthogonalEdgeStyle;rounded=0;orthogonalLoop=1;jettySize=auto;html=1;exitX=1;exitY=0.5;exitDx=0;exitDy=0;entryX=0;entryY=0.5;entryDx=0;entryDy=0;" parent="1" source="DqTSj6_k9YJr3sGetXp6-10" target="i3tvZEEEmX6wgFm2jWyT-1" edge="1">
          <mxGeometry relative="1" as="geometry" />
        </mxCell>
        <mxCell id="i3tvZEEEmX6wgFm2jWyT-4" value="1" style="edgeStyle=orthogonalEdgeStyle;rounded=0;orthogonalLoop=1;jettySize=auto;html=1;exitX=0.5;exitY=0;exitDx=0;exitDy=0;entryX=0;entryY=0.5;entryDx=0;entryDy=0;" parent="1" source="DqTSj6_k9YJr3sGetXp6-10" target="i3tvZEEEmX6wgFm2jWyT-3" edge="1">
          <mxGeometry x="-0.8181" relative="1" as="geometry">
            <mxPoint as="offset" />
          </mxGeometry>
        </mxCell>
        <mxCell id="DqTSj6_k9YJr3sGetXp6-10" value="&lt;font style=&quot;font-size: 15px;&quot;&gt;dpd_mode_on&lt;/font&gt;" style="rhombus;whiteSpace=wrap;html=1;" parent="1" vertex="1">
          <mxGeometry x="980" y="820" width="160" height="80" as="geometry" />
        </mxCell>
        <mxCell id="i3tvZEEEmX6wgFm2jWyT-1" value="&lt;font style=&quot;font-size: 15px;&quot;&gt;dpd_req_n&lt;/font&gt;" style="rhombus;whiteSpace=wrap;html=1;" parent="1" vertex="1">
          <mxGeometry x="1200" y="820" width="160" height="80" as="geometry" />
        </mxCell>
        <mxCell id="i3tvZEEEmX6wgFm2jWyT-5" value="0" style="edgeStyle=orthogonalEdgeStyle;rounded=0;orthogonalLoop=1;jettySize=auto;html=1;exitX=0.5;exitY=0;exitDx=0;exitDy=0;" parent="1" source="i3tvZEEEmX6wgFm2jWyT-3" edge="1">
          <mxGeometry x="-0.8947" relative="1" as="geometry">
            <mxPoint x="820" y="360" as="targetPoint" />
            <Array as="points">
              <mxPoint x="1280" y="360" />
            </Array>
            <mxPoint as="offset" />
          </mxGeometry>
        </mxCell>
        <mxCell id="i3tvZEEEmX6wgFm2jWyT-3" value="&lt;font style=&quot;font-size: 15px;&quot;&gt;dpd_req_n&lt;/font&gt;" style="rhombus;whiteSpace=wrap;html=1;" parent="1" vertex="1">
          <mxGeometry x="1200" y="660" width="160" height="80" as="geometry" />
        </mxCell>
        <mxCell id="WYk4SCE6oq22aJPntDzK-3" style="edgeStyle=orthogonalEdgeStyle;rounded=0;orthogonalLoop=1;jettySize=auto;html=1;exitX=0.5;exitY=1;exitDx=0;exitDy=0;entryX=0.5;entryY=0;entryDx=0;entryDy=0;" parent="1" source="ZmiuNyQBzfB5jD7rwx-O-1" target="WYk4SCE6oq22aJPntDzK-2" edge="1">
          <mxGeometry relative="1" as="geometry" />
        </mxCell>
        <mxCell id="ZmiuNyQBzfB5jD7rwx-O-1" value="&lt;div style=&quot;font-size: 15px;&quot;&gt;&lt;font style=&quot;font-size: 15px;&quot;&gt;CK_gating_enable_n&lt;br&gt;&lt;/font&gt;&lt;/div&gt;&lt;div style=&quot;font-size: 15px;&quot;&gt;CA_load&lt;/div&gt;&lt;div style=&quot;font-size: 15px;&quot;&gt;hBUS_CS_n&lt;br&gt;&lt;/div&gt;" style="rounded=0;whiteSpace=wrap;html=1;" parent="1" vertex="1">
          <mxGeometry x="250" y="1215" width="180" height="80" as="geometry" />
        </mxCell>
        <mxCell id="ZmiuNyQBzfB5jD7rwx-O-2" value="&lt;font style=&quot;font-size: 15px;&quot;&gt;OE_CA_LOAD&lt;/font&gt;" style="rounded=0;whiteSpace=wrap;html=1;" parent="1" vertex="1">
          <mxGeometry x="250" y="1195" width="180" height="20" as="geometry" />
        </mxCell>
        <mxCell id="DkG1m_-76LimeYgoMsBc-3" style="edgeStyle=orthogonalEdgeStyle;rounded=0;orthogonalLoop=1;jettySize=auto;html=1;exitX=0.5;exitY=1;exitDx=0;exitDy=0;entryX=0.5;entryY=0;entryDx=0;entryDy=0;" parent="1" source="WYk4SCE6oq22aJPntDzK-1" target="DkG1m_-76LimeYgoMsBc-2" edge="1">
          <mxGeometry relative="1" as="geometry" />
        </mxCell>
        <mxCell id="WYk4SCE6oq22aJPntDzK-1" value="&lt;div style=&quot;font-size: 15px;&quot;&gt;hBUS_CS_n&lt;br&gt;&lt;/div&gt;" style="rounded=0;whiteSpace=wrap;html=1;" parent="1" vertex="1">
          <mxGeometry x="250" y="1360" width="180" height="40" as="geometry" />
        </mxCell>
        <mxCell id="WYk4SCE6oq22aJPntDzK-2" value="&lt;font style=&quot;font-size: 15px;&quot;&gt;OE_CA_WAIT&lt;/font&gt;" style="rounded=0;whiteSpace=wrap;html=1;" parent="1" vertex="1">
          <mxGeometry x="250" y="1340" width="180" height="20" as="geometry" />
        </mxCell>
        <mxCell id="CEmOGCN7RvUZyU9uLpmd-2" style="edgeStyle=orthogonalEdgeStyle;rounded=0;orthogonalLoop=1;jettySize=auto;html=1;exitX=0.5;exitY=1;exitDx=0;exitDy=0;entryX=0.5;entryY=0;entryDx=0;entryDy=0;" parent="1" source="DkG1m_-76LimeYgoMsBc-1" target="CEmOGCN7RvUZyU9uLpmd-1" edge="1">
          <mxGeometry relative="1" as="geometry" />
        </mxCell>
        <mxCell id="DkG1m_-76LimeYgoMsBc-1" value="&lt;div style=&quot;font-size: 15px;&quot;&gt;hBUS_CS_n&lt;/div&gt;&lt;div style=&quot;font-size: 15px;&quot;&gt;CA_shift&lt;/div&gt;&lt;div style=&quot;font-size: 15px;&quot;&gt;CA_enable&lt;/div&gt;&lt;div style=&quot;font-size: 15px;&quot;&gt;op_tim_enable&lt;br&gt;&lt;/div&gt;" style="rounded=0;whiteSpace=wrap;html=1;" parent="1" vertex="1">
          <mxGeometry x="250" y="1500" width="180" height="80" as="geometry" />
        </mxCell>
        <mxCell id="DkG1m_-76LimeYgoMsBc-2" value="&lt;font style=&quot;font-size: 15px;&quot;&gt;OE_CA_START&lt;/font&gt;" style="rounded=0;whiteSpace=wrap;html=1;" parent="1" vertex="1">
          <mxGeometry x="250" y="1480" width="180" height="20" as="geometry" />
        </mxCell>
        <mxCell id="CEmOGCN7RvUZyU9uLpmd-3" value="0" style="edgeStyle=orthogonalEdgeStyle;rounded=0;orthogonalLoop=1;jettySize=auto;html=1;exitX=0;exitY=0.5;exitDx=0;exitDy=0;" parent="1" source="CEmOGCN7RvUZyU9uLpmd-1" edge="1">
          <mxGeometry x="-0.8333" relative="1" as="geometry">
            <mxPoint x="340" y="1440" as="targetPoint" />
            <Array as="points">
              <mxPoint x="180" y="1660" />
              <mxPoint x="180" y="1440" />
            </Array>
            <mxPoint as="offset" />
          </mxGeometry>
        </mxCell>
        <mxCell id="1C1j5e9cA4hiOQQsPqhe-1" value="1" style="edgeStyle=orthogonalEdgeStyle;rounded=0;orthogonalLoop=1;jettySize=auto;html=1;exitX=0.5;exitY=1;exitDx=0;exitDy=0;entryX=0.5;entryY=0;entryDx=0;entryDy=0;" parent="1" source="CEmOGCN7RvUZyU9uLpmd-1" target="CEmOGCN7RvUZyU9uLpmd-5" edge="1">
          <mxGeometry relative="1" as="geometry" />
        </mxCell>
        <mxCell id="CEmOGCN7RvUZyU9uLpmd-1" value="&lt;font style=&quot;font-size: 15px;&quot;&gt;op_tim_1&lt;/font&gt;" style="rhombus;whiteSpace=wrap;html=1;" parent="1" vertex="1">
          <mxGeometry x="280" y="1620" width="120" height="80" as="geometry" />
        </mxCell>
        <mxCell id="1C1j5e9cA4hiOQQsPqhe-4" style="edgeStyle=orthogonalEdgeStyle;rounded=0;orthogonalLoop=1;jettySize=auto;html=1;exitX=0.5;exitY=1;exitDx=0;exitDy=0;" parent="1" source="CEmOGCN7RvUZyU9uLpmd-4" target="1C1j5e9cA4hiOQQsPqhe-3" edge="1">
          <mxGeometry relative="1" as="geometry" />
        </mxCell>
        <mxCell id="CEmOGCN7RvUZyU9uLpmd-4" value="&lt;div style=&quot;font-size: 15px;&quot;&gt;hBUS_CS_n&lt;/div&gt;&lt;div style=&quot;font-size: 15px;&quot;&gt;CA_shift&lt;/div&gt;&lt;div style=&quot;font-size: 15px;&quot;&gt;op_tim_enable&lt;br&gt;&lt;/div&gt;" style="rounded=0;whiteSpace=wrap;html=1;" parent="1" vertex="1">
          <mxGeometry x="250" y="1760" width="180" height="60" as="geometry" />
        </mxCell>
        <mxCell id="CEmOGCN7RvUZyU9uLpmd-5" value="&lt;font style=&quot;font-size: 15px;&quot;&gt;OE_CA_LAST&lt;/font&gt;" style="rounded=0;whiteSpace=wrap;html=1;" parent="1" vertex="1">
          <mxGeometry x="250" y="1740" width="180" height="20" as="geometry" />
        </mxCell>
        <mxCell id="1C1j5e9cA4hiOQQsPqhe-2" value="&lt;div style=&quot;font-size: 15px;&quot;&gt;hBUS_CS_n&lt;/div&gt;&lt;div style=&quot;font-size: 15px;&quot;&gt;op_tim_enable&lt;br&gt;&lt;/div&gt;" style="rounded=0;whiteSpace=wrap;html=1;" parent="1" vertex="1">
          <mxGeometry x="250" y="1880" width="180" height="50" as="geometry" />
        </mxCell>
        <mxCell id="1C1j5e9cA4hiOQQsPqhe-3" value="&lt;font style=&quot;font-size: 15px;&quot;&gt;OE_CA_END&lt;/font&gt;" style="rounded=0;whiteSpace=wrap;html=1;" parent="1" vertex="1">
          <mxGeometry x="250" y="1860" width="180" height="20" as="geometry" />
        </mxCell>
      </root>
    </mxGraphModel>
  </diagram>
  <diagram id="-y3Eb79OAvjC0dtBhiG8" name="synchronizer: RTL">
    <mxGraphModel dx="3945" dy="2190" grid="1" gridSize="10" guides="1" tooltips="1" connect="1" arrows="1" fold="1" page="1" pageScale="1" pageWidth="850" pageHeight="1100" math="0" shadow="0">
      <root>
        <mxCell id="0" />
        <mxCell id="1" parent="0" />
        <mxCell id="diQf5xCep3zQKc-iaQTr-6" style="edgeStyle=orthogonalEdgeStyle;rounded=0;orthogonalLoop=1;jettySize=auto;html=1;exitX=1;exitY=0.5;exitDx=0;exitDy=0;entryX=0;entryY=0.5;entryDx=0;entryDy=0;" edge="1" parent="1" source="EAu3Z7FYAYgHRWJzewOa-1" target="diQf5xCep3zQKc-iaQTr-5">
          <mxGeometry relative="1" as="geometry" />
        </mxCell>
        <mxCell id="EAu3Z7FYAYgHRWJzewOa-1" value="" style="rounded=0;whiteSpace=wrap;html=1;" vertex="1" parent="1">
          <mxGeometry x="320" y="460" width="120" height="80" as="geometry" />
        </mxCell>
        <mxCell id="EAu3Z7FYAYgHRWJzewOa-2" value="&lt;font style=&quot;font-size: 15px;&quot;&gt;cnt: counter_2bit&lt;/font&gt;" style="rounded=0;whiteSpace=wrap;html=1;" vertex="1" parent="1">
          <mxGeometry x="320" y="440" width="120" height="20" as="geometry" />
        </mxCell>
        <mxCell id="EAu3Z7FYAYgHRWJzewOa-3" value="&lt;div&gt;&lt;font style=&quot;font-size: 15px;&quot;&gt;en&lt;/font&gt;&lt;/div&gt;" style="text;html=1;align=left;verticalAlign=middle;resizable=0;points=[];autosize=1;strokeColor=none;fillColor=none;" vertex="1" parent="1">
          <mxGeometry x="325" y="485" width="40" height="30" as="geometry" />
        </mxCell>
        <mxCell id="094b5XDcNXn_DKU9Tvgi-1" value="" style="triangle;whiteSpace=wrap;html=1;direction=north;fontSize=15;" vertex="1" parent="1">
          <mxGeometry x="375" y="530" width="10" height="10" as="geometry" />
        </mxCell>
        <mxCell id="094b5XDcNXn_DKU9Tvgi-2" value="&lt;font style=&quot;font-size: 15px;&quot;&gt;out&lt;/font&gt;" style="text;html=1;align=right;verticalAlign=middle;resizable=0;points=[];autosize=1;strokeColor=none;fillColor=none;" vertex="1" parent="1">
          <mxGeometry x="395" y="485" width="40" height="30" as="geometry" />
        </mxCell>
        <mxCell id="094b5XDcNXn_DKU9Tvgi-3" value="" style="endArrow=classic;html=1;rounded=0;strokeColor=#00FF00;entryX=0;entryY=0.5;entryDx=0;entryDy=0;" edge="1" parent="1" target="EAu3Z7FYAYgHRWJzewOa-1">
          <mxGeometry width="50" height="50" relative="1" as="geometry">
            <mxPoint x="260" y="140" as="sourcePoint" />
            <mxPoint x="240" y="479.72" as="targetPoint" />
            <Array as="points">
              <mxPoint x="260" y="500" />
            </Array>
          </mxGeometry>
        </mxCell>
        <mxCell id="094b5XDcNXn_DKU9Tvgi-4" value="&lt;font style=&quot;font-size: 15px;&quot;&gt;cnt_enable&lt;/font&gt;" style="text;html=1;align=left;verticalAlign=middle;resizable=0;points=[];autosize=1;strokeColor=none;fillColor=none;rotation=-90;" vertex="1" parent="1">
          <mxGeometry x="210" y="55" width="100" height="30" as="geometry" />
        </mxCell>
        <mxCell id="diQf5xCep3zQKc-iaQTr-1" value="&lt;font style=&quot;font-size: 15px;&quot;&gt;din_strobe&lt;/font&gt;" style="text;html=1;align=right;verticalAlign=middle;resizable=0;points=[];autosize=1;strokeColor=none;fillColor=none;" vertex="1" parent="1">
          <mxGeometry x="10" y="865" width="90" height="30" as="geometry" />
        </mxCell>
        <mxCell id="diQf5xCep3zQKc-iaQTr-3" value="" style="endArrow=classic;html=1;rounded=0;strokeColor=#0000FF;entryX=0.5;entryY=1;entryDx=0;entryDy=0;" edge="1" parent="1" target="EAu3Z7FYAYgHRWJzewOa-1">
          <mxGeometry width="50" height="50" relative="1" as="geometry">
            <mxPoint x="120" y="880" as="sourcePoint" />
            <mxPoint x="240" y="340" as="targetPoint" />
            <Array as="points">
              <mxPoint x="380" y="880" />
            </Array>
          </mxGeometry>
        </mxCell>
        <mxCell id="diQf5xCep3zQKc-iaQTr-4" value="&lt;font style=&quot;font-size: 15px;&quot;&gt;dec: decoder_2bit&lt;/font&gt;" style="rounded=0;whiteSpace=wrap;html=1;" vertex="1" parent="1">
          <mxGeometry x="560" y="380" width="160" height="20" as="geometry" />
        </mxCell>
        <mxCell id="diQf5xCep3zQKc-iaQTr-5" value="" style="rounded=0;whiteSpace=wrap;html=1;" vertex="1" parent="1">
          <mxGeometry x="560" y="400" width="160" height="200" as="geometry" />
        </mxCell>
        <mxCell id="diQf5xCep3zQKc-iaQTr-7" value="&lt;font style=&quot;font-size: 15px;&quot;&gt;code&lt;/font&gt;" style="text;html=1;align=left;verticalAlign=middle;resizable=0;points=[];autosize=1;strokeColor=none;fillColor=none;" vertex="1" parent="1">
          <mxGeometry x="565" y="485" width="60" height="30" as="geometry" />
        </mxCell>
        <mxCell id="diQf5xCep3zQKc-iaQTr-29" style="edgeStyle=orthogonalEdgeStyle;rounded=0;orthogonalLoop=1;jettySize=auto;html=1;exitX=1;exitY=0.5;exitDx=0;exitDy=0;" edge="1" parent="1" source="HLgv1WAKyZuzztX_X7mY-17">
          <mxGeometry relative="1" as="geometry">
            <mxPoint x="1300" y="680" as="targetPoint" />
            <mxPoint x="1140" y="1160" as="sourcePoint" />
            <Array as="points">
              <mxPoint x="1260" y="1150" />
              <mxPoint x="1260" y="680" />
            </Array>
          </mxGeometry>
        </mxCell>
        <mxCell id="diQf5xCep3zQKc-iaQTr-26" style="edgeStyle=orthogonalEdgeStyle;rounded=0;orthogonalLoop=1;jettySize=auto;html=1;" edge="1" parent="1">
          <mxGeometry relative="1" as="geometry">
            <mxPoint x="1300" y="560" as="targetPoint" />
            <mxPoint x="1140" y="560" as="sourcePoint" />
            <Array as="points">
              <mxPoint x="1230" y="560" />
              <mxPoint x="1230" y="560" />
            </Array>
          </mxGeometry>
        </mxCell>
        <mxCell id="8PWpY8FmHMakSGGJTXYB-1" style="edgeStyle=orthogonalEdgeStyle;rounded=0;orthogonalLoop=1;jettySize=auto;html=1;entryX=0.25;entryY=0;entryDx=0;entryDy=0;strokeColor=#0000FF;startArrow=oval;startFill=1;" edge="1" parent="1" target="diQf5xCep3zQKc-iaQTr-9">
          <mxGeometry relative="1" as="geometry">
            <mxPoint x="380" y="880" as="sourcePoint" />
            <Array as="points">
              <mxPoint x="920" y="880" />
              <mxPoint x="920" y="480" />
              <mxPoint x="1020" y="480" />
            </Array>
          </mxGeometry>
        </mxCell>
        <mxCell id="diQf5xCep3zQKc-iaQTr-9" value="" style="rounded=0;whiteSpace=wrap;html=1;horizontal=1;" vertex="1" parent="1">
          <mxGeometry x="980" y="530" width="160" height="60" as="geometry" />
        </mxCell>
        <mxCell id="diQf5xCep3zQKc-iaQTr-27" style="edgeStyle=orthogonalEdgeStyle;rounded=0;orthogonalLoop=1;jettySize=auto;html=1;exitX=1;exitY=0.5;exitDx=0;exitDy=0;" edge="1" parent="1" source="HLgv1WAKyZuzztX_X7mY-7">
          <mxGeometry relative="1" as="geometry">
            <mxPoint x="1300" y="600" as="targetPoint" />
            <mxPoint x="1140" y="760" as="sourcePoint" />
            <Array as="points">
              <mxPoint x="1180" y="750" />
              <mxPoint x="1180" y="600" />
            </Array>
          </mxGeometry>
        </mxCell>
        <mxCell id="diQf5xCep3zQKc-iaQTr-28" style="edgeStyle=orthogonalEdgeStyle;rounded=0;orthogonalLoop=1;jettySize=auto;html=1;exitX=1;exitY=0.5;exitDx=0;exitDy=0;" edge="1" parent="1" source="HLgv1WAKyZuzztX_X7mY-12">
          <mxGeometry relative="1" as="geometry">
            <mxPoint x="1300" y="640" as="targetPoint" />
            <mxPoint x="1140" y="960" as="sourcePoint" />
            <Array as="points">
              <mxPoint x="1220" y="950" />
              <mxPoint x="1220" y="640" />
            </Array>
          </mxGeometry>
        </mxCell>
        <mxCell id="diQf5xCep3zQKc-iaQTr-13" value="" style="endArrow=classic;html=1;rounded=0;endFill=1;entryX=0.5;entryY=0;entryDx=0;entryDy=0;" edge="1" parent="1" target="diQf5xCep3zQKc-iaQTr-9">
          <mxGeometry width="50" height="50" relative="1" as="geometry">
            <mxPoint x="720" y="440" as="sourcePoint" />
            <mxPoint x="860" y="440" as="targetPoint" />
            <Array as="points">
              <mxPoint x="1060" y="440" />
            </Array>
          </mxGeometry>
        </mxCell>
        <mxCell id="diQf5xCep3zQKc-iaQTr-14" value="&lt;div align=&quot;right&quot;&gt;&lt;font style=&quot;font-size: 15px;&quot;&gt;dec11&lt;/font&gt;&lt;/div&gt;" style="text;html=1;align=right;verticalAlign=middle;resizable=0;points=[];autosize=1;strokeColor=none;fillColor=none;" vertex="1" parent="1">
          <mxGeometry x="655" y="425" width="60" height="30" as="geometry" />
        </mxCell>
        <mxCell id="diQf5xCep3zQKc-iaQTr-15" value="" style="endArrow=classic;html=1;rounded=0;endFill=1;entryX=0.5;entryY=0;entryDx=0;entryDy=0;" edge="1" parent="1" target="HLgv1WAKyZuzztX_X7mY-7">
          <mxGeometry width="50" height="50" relative="1" as="geometry">
            <mxPoint x="720" y="479.71" as="sourcePoint" />
            <mxPoint x="1100" y="640" as="targetPoint" />
            <Array as="points">
              <mxPoint x="840" y="480" />
              <mxPoint x="840" y="640" />
              <mxPoint x="1060" y="640" />
              <mxPoint x="1060" y="680" />
            </Array>
          </mxGeometry>
        </mxCell>
        <mxCell id="diQf5xCep3zQKc-iaQTr-17" value="" style="endArrow=classic;html=1;rounded=0;endFill=1;entryX=0.5;entryY=0;entryDx=0;entryDy=0;" edge="1" parent="1" target="HLgv1WAKyZuzztX_X7mY-12">
          <mxGeometry width="50" height="50" relative="1" as="geometry">
            <mxPoint x="720" y="520" as="sourcePoint" />
            <mxPoint x="850" y="760" as="targetPoint" />
            <Array as="points">
              <mxPoint x="800" y="520" />
              <mxPoint x="800" y="840" />
              <mxPoint x="1060" y="840" />
            </Array>
          </mxGeometry>
        </mxCell>
        <mxCell id="diQf5xCep3zQKc-iaQTr-18" value="" style="endArrow=classic;html=1;rounded=0;endFill=1;entryX=0.5;entryY=0;entryDx=0;entryDy=0;" edge="1" parent="1" target="HLgv1WAKyZuzztX_X7mY-17">
          <mxGeometry width="50" height="50" relative="1" as="geometry">
            <mxPoint x="720" y="560" as="sourcePoint" />
            <mxPoint x="850" y="920" as="targetPoint" />
            <Array as="points">
              <mxPoint x="760" y="560" />
              <mxPoint x="760" y="1040" />
              <mxPoint x="1060" y="1040" />
            </Array>
          </mxGeometry>
        </mxCell>
        <mxCell id="diQf5xCep3zQKc-iaQTr-19" value="&lt;div align=&quot;right&quot;&gt;&lt;font style=&quot;font-size: 15px;&quot;&gt;dec10&lt;/font&gt;&lt;/div&gt;" style="text;html=1;align=right;verticalAlign=middle;resizable=0;points=[];autosize=1;strokeColor=none;fillColor=none;" vertex="1" parent="1">
          <mxGeometry x="655" y="465" width="60" height="30" as="geometry" />
        </mxCell>
        <mxCell id="diQf5xCep3zQKc-iaQTr-20" value="&lt;div align=&quot;right&quot;&gt;&lt;font style=&quot;font-size: 15px;&quot;&gt;dec01&lt;/font&gt;&lt;/div&gt;" style="text;html=1;align=right;verticalAlign=middle;resizable=0;points=[];autosize=1;strokeColor=none;fillColor=none;" vertex="1" parent="1">
          <mxGeometry x="655" y="505" width="60" height="30" as="geometry" />
        </mxCell>
        <mxCell id="diQf5xCep3zQKc-iaQTr-21" value="&lt;div align=&quot;right&quot;&gt;&lt;font style=&quot;font-size: 15px;&quot;&gt;dec00&lt;/font&gt;&lt;/div&gt;" style="text;html=1;align=right;verticalAlign=middle;resizable=0;points=[];autosize=1;strokeColor=none;fillColor=none;" vertex="1" parent="1">
          <mxGeometry x="655" y="546" width="60" height="30" as="geometry" />
        </mxCell>
        <mxCell id="wbbK24L4D6raIpSAZgQZ-1" style="edgeStyle=orthogonalEdgeStyle;rounded=0;orthogonalLoop=1;jettySize=auto;html=1;exitX=0;exitY=0.5;exitDx=0;exitDy=0;entryX=0;entryY=0.5;entryDx=0;entryDy=0;strokeColor=#00FF00;" edge="1" parent="1" target="diQf5xCep3zQKc-iaQTr-25">
          <mxGeometry relative="1" as="geometry">
            <mxPoint x="1329.8823529411766" y="140" as="sourcePoint" />
          </mxGeometry>
        </mxCell>
        <mxCell id="g99vvuMsvLRfGRZVdRXV-12" style="edgeStyle=orthogonalEdgeStyle;rounded=0;orthogonalLoop=1;jettySize=auto;html=1;exitX=0.5;exitY=0;exitDx=0;exitDy=0;entryX=0;entryY=0.5;entryDx=0;entryDy=0;" edge="1" parent="1" source="diQf5xCep3zQKc-iaQTr-25" target="g99vvuMsvLRfGRZVdRXV-6">
          <mxGeometry relative="1" as="geometry" />
        </mxCell>
        <mxCell id="diQf5xCep3zQKc-iaQTr-25" value="" style="shape=trapezoid;perimeter=trapezoidPerimeter;whiteSpace=wrap;html=1;fixedSize=1;direction=south;horizontal=0;align=center;verticalAlign=bottom;" vertex="1" parent="1">
          <mxGeometry x="1300" y="520" width="60" height="200" as="geometry" />
        </mxCell>
        <mxCell id="HLgv1WAKyZuzztX_X7mY-1" value="&lt;font style=&quot;font-size: 15px;&quot;&gt;readdata11: register&lt;br&gt;&lt;/font&gt;" style="rounded=0;whiteSpace=wrap;html=1;" vertex="1" parent="1">
          <mxGeometry x="980" y="590" width="160" height="20" as="geometry" />
        </mxCell>
        <mxCell id="HLgv1WAKyZuzztX_X7mY-4" value="&lt;font style=&quot;font-size: 15px;&quot;&gt;dout&lt;/font&gt;" style="text;html=1;align=right;verticalAlign=middle;resizable=0;points=[];autosize=1;strokeColor=none;fillColor=none;" vertex="1" parent="1">
          <mxGeometry x="1085" y="546" width="50" height="30" as="geometry" />
        </mxCell>
        <mxCell id="HLgv1WAKyZuzztX_X7mY-5" value="&lt;div align=&quot;left&quot;&gt;&lt;font style=&quot;font-size: 15px;&quot;&gt;din&lt;/font&gt;&lt;/div&gt;" style="text;html=1;align=left;verticalAlign=middle;resizable=0;points=[];autosize=1;strokeColor=none;fillColor=none;" vertex="1" parent="1">
          <mxGeometry x="985" y="546" width="40" height="30" as="geometry" />
        </mxCell>
        <mxCell id="HLgv1WAKyZuzztX_X7mY-6" value="&lt;font style=&quot;font-size: 15px;&quot;&gt;en&lt;/font&gt;" style="text;html=1;align=center;verticalAlign=middle;resizable=0;points=[];autosize=1;strokeColor=none;fillColor=none;" vertex="1" parent="1">
          <mxGeometry x="1040" y="524" width="40" height="30" as="geometry" />
        </mxCell>
        <mxCell id="8PWpY8FmHMakSGGJTXYB-2" style="edgeStyle=orthogonalEdgeStyle;rounded=0;orthogonalLoop=1;jettySize=auto;html=1;entryX=0.25;entryY=0;entryDx=0;entryDy=0;startArrow=oval;startFill=1;strokeColor=#0000FF;" edge="1" parent="1" target="HLgv1WAKyZuzztX_X7mY-7">
          <mxGeometry relative="1" as="geometry">
            <mxPoint x="920" y="680" as="sourcePoint" />
            <Array as="points">
              <mxPoint x="920" y="680" />
              <mxPoint x="1020" y="680" />
            </Array>
          </mxGeometry>
        </mxCell>
        <mxCell id="E6K3Mk7scLyhQb92QcPb-9" style="edgeStyle=orthogonalEdgeStyle;rounded=0;orthogonalLoop=1;jettySize=auto;html=1;exitX=0;exitY=0.5;exitDx=0;exitDy=0;entryX=0;entryY=0.5;entryDx=0;entryDy=0;strokeColor=#660000;startArrow=oval;startFill=1;" edge="1" parent="1" target="HLgv1WAKyZuzztX_X7mY-7">
          <mxGeometry relative="1" as="geometry">
            <mxPoint x="880" y="750" as="sourcePoint" />
          </mxGeometry>
        </mxCell>
        <mxCell id="HLgv1WAKyZuzztX_X7mY-7" value="" style="rounded=0;whiteSpace=wrap;html=1;horizontal=1;" vertex="1" parent="1">
          <mxGeometry x="980" y="720" width="160" height="60" as="geometry" />
        </mxCell>
        <mxCell id="HLgv1WAKyZuzztX_X7mY-8" value="&lt;font style=&quot;font-size: 15px;&quot;&gt;readdata10: register&lt;br&gt;&lt;/font&gt;" style="rounded=0;whiteSpace=wrap;html=1;" vertex="1" parent="1">
          <mxGeometry x="980" y="780" width="160" height="20" as="geometry" />
        </mxCell>
        <mxCell id="HLgv1WAKyZuzztX_X7mY-9" value="&lt;font style=&quot;font-size: 15px;&quot;&gt;dout&lt;/font&gt;" style="text;html=1;align=right;verticalAlign=middle;resizable=0;points=[];autosize=1;strokeColor=none;fillColor=none;" vertex="1" parent="1">
          <mxGeometry x="1085" y="735" width="50" height="30" as="geometry" />
        </mxCell>
        <mxCell id="HLgv1WAKyZuzztX_X7mY-10" value="&lt;div align=&quot;left&quot;&gt;&lt;font style=&quot;font-size: 15px;&quot;&gt;din&lt;/font&gt;&lt;/div&gt;" style="text;html=1;align=left;verticalAlign=middle;resizable=0;points=[];autosize=1;strokeColor=none;fillColor=none;" vertex="1" parent="1">
          <mxGeometry x="985" y="735" width="40" height="30" as="geometry" />
        </mxCell>
        <mxCell id="HLgv1WAKyZuzztX_X7mY-11" value="&lt;font style=&quot;font-size: 15px;&quot;&gt;en&lt;/font&gt;" style="text;html=1;align=center;verticalAlign=middle;resizable=0;points=[];autosize=1;strokeColor=none;fillColor=none;" vertex="1" parent="1">
          <mxGeometry x="1040" y="715" width="40" height="30" as="geometry" />
        </mxCell>
        <mxCell id="8PWpY8FmHMakSGGJTXYB-3" style="edgeStyle=orthogonalEdgeStyle;rounded=0;orthogonalLoop=1;jettySize=auto;html=1;entryX=0.25;entryY=0;entryDx=0;entryDy=0;startArrow=oval;startFill=1;strokeColor=#0000FF;" edge="1" parent="1" target="HLgv1WAKyZuzztX_X7mY-12">
          <mxGeometry relative="1" as="geometry">
            <mxPoint x="920" y="880" as="sourcePoint" />
            <Array as="points">
              <mxPoint x="920" y="880" />
              <mxPoint x="1020" y="880" />
            </Array>
          </mxGeometry>
        </mxCell>
        <mxCell id="HLgv1WAKyZuzztX_X7mY-12" value="" style="rounded=0;whiteSpace=wrap;html=1;horizontal=1;" vertex="1" parent="1">
          <mxGeometry x="980" y="920" width="160" height="60" as="geometry" />
        </mxCell>
        <mxCell id="HLgv1WAKyZuzztX_X7mY-13" value="&lt;font style=&quot;font-size: 15px;&quot;&gt;readdata01: register&lt;br&gt;&lt;/font&gt;" style="rounded=0;whiteSpace=wrap;html=1;" vertex="1" parent="1">
          <mxGeometry x="980" y="980" width="160" height="20" as="geometry" />
        </mxCell>
        <mxCell id="HLgv1WAKyZuzztX_X7mY-14" value="&lt;font style=&quot;font-size: 15px;&quot;&gt;dout&lt;/font&gt;" style="text;html=1;align=right;verticalAlign=middle;resizable=0;points=[];autosize=1;strokeColor=none;fillColor=none;" vertex="1" parent="1">
          <mxGeometry x="1085" y="935" width="50" height="30" as="geometry" />
        </mxCell>
        <mxCell id="HLgv1WAKyZuzztX_X7mY-15" value="&lt;div align=&quot;left&quot;&gt;&lt;font style=&quot;font-size: 15px;&quot;&gt;din&lt;/font&gt;&lt;/div&gt;" style="text;html=1;align=left;verticalAlign=middle;resizable=0;points=[];autosize=1;strokeColor=none;fillColor=none;" vertex="1" parent="1">
          <mxGeometry x="985" y="935" width="40" height="30" as="geometry" />
        </mxCell>
        <mxCell id="HLgv1WAKyZuzztX_X7mY-16" value="&lt;font style=&quot;font-size: 15px;&quot;&gt;en&lt;/font&gt;" style="text;html=1;align=center;verticalAlign=middle;resizable=0;points=[];autosize=1;strokeColor=none;fillColor=none;" vertex="1" parent="1">
          <mxGeometry x="1040" y="915" width="40" height="30" as="geometry" />
        </mxCell>
        <mxCell id="8PWpY8FmHMakSGGJTXYB-4" style="edgeStyle=orthogonalEdgeStyle;rounded=0;orthogonalLoop=1;jettySize=auto;html=1;exitX=0.25;exitY=0;exitDx=0;exitDy=0;entryX=0.25;entryY=0;entryDx=0;entryDy=0;strokeColor=#0000FF;" edge="1" parent="1" target="HLgv1WAKyZuzztX_X7mY-17">
          <mxGeometry relative="1" as="geometry">
            <mxPoint x="920" y="880" as="sourcePoint" />
            <Array as="points">
              <mxPoint x="920" y="1080" />
              <mxPoint x="1020" y="1080" />
            </Array>
          </mxGeometry>
        </mxCell>
        <mxCell id="HLgv1WAKyZuzztX_X7mY-17" value="" style="rounded=0;whiteSpace=wrap;html=1;horizontal=1;" vertex="1" parent="1">
          <mxGeometry x="980" y="1120" width="160" height="60" as="geometry" />
        </mxCell>
        <mxCell id="HLgv1WAKyZuzztX_X7mY-18" value="&lt;font style=&quot;font-size: 15px;&quot;&gt;readdata00: register&lt;br&gt;&lt;/font&gt;" style="rounded=0;whiteSpace=wrap;html=1;" vertex="1" parent="1">
          <mxGeometry x="980" y="1180" width="160" height="20" as="geometry" />
        </mxCell>
        <mxCell id="HLgv1WAKyZuzztX_X7mY-19" value="&lt;font style=&quot;font-size: 15px;&quot;&gt;dout&lt;/font&gt;" style="text;html=1;align=right;verticalAlign=middle;resizable=0;points=[];autosize=1;strokeColor=none;fillColor=none;" vertex="1" parent="1">
          <mxGeometry x="1085" y="1135" width="50" height="30" as="geometry" />
        </mxCell>
        <mxCell id="HLgv1WAKyZuzztX_X7mY-20" value="&lt;div align=&quot;left&quot;&gt;&lt;font style=&quot;font-size: 15px;&quot;&gt;din&lt;/font&gt;&lt;/div&gt;" style="text;html=1;align=left;verticalAlign=middle;resizable=0;points=[];autosize=1;strokeColor=none;fillColor=none;" vertex="1" parent="1">
          <mxGeometry x="985" y="1135" width="40" height="30" as="geometry" />
        </mxCell>
        <mxCell id="HLgv1WAKyZuzztX_X7mY-21" value="&lt;font style=&quot;font-size: 15px;&quot;&gt;en&lt;/font&gt;" style="text;html=1;align=center;verticalAlign=middle;resizable=0;points=[];autosize=1;strokeColor=none;fillColor=none;" vertex="1" parent="1">
          <mxGeometry x="1040" y="1115" width="40" height="30" as="geometry" />
        </mxCell>
        <mxCell id="HLgv1WAKyZuzztX_X7mY-24" value="11" style="text;html=1;align=center;verticalAlign=middle;resizable=0;points=[];autosize=1;strokeColor=none;fillColor=none;" vertex="1" parent="1">
          <mxGeometry x="1290" y="546" width="40" height="30" as="geometry" />
        </mxCell>
        <mxCell id="HLgv1WAKyZuzztX_X7mY-25" value="10" style="text;html=1;align=center;verticalAlign=middle;resizable=0;points=[];autosize=1;strokeColor=none;fillColor=none;" vertex="1" parent="1">
          <mxGeometry x="1290" y="585" width="40" height="30" as="geometry" />
        </mxCell>
        <mxCell id="HLgv1WAKyZuzztX_X7mY-26" value="01" style="text;html=1;align=center;verticalAlign=middle;resizable=0;points=[];autosize=1;strokeColor=none;fillColor=none;" vertex="1" parent="1">
          <mxGeometry x="1290" y="625" width="40" height="30" as="geometry" />
        </mxCell>
        <mxCell id="HLgv1WAKyZuzztX_X7mY-27" value="00" style="text;html=1;align=center;verticalAlign=middle;resizable=0;points=[];autosize=1;strokeColor=none;fillColor=none;" vertex="1" parent="1">
          <mxGeometry x="1290" y="666" width="40" height="30" as="geometry" />
        </mxCell>
        <mxCell id="HLgv1WAKyZuzztX_X7mY-28" value="&lt;font style=&quot;font-size: 15px;&quot;&gt;datamux: mux_4to1&lt;/font&gt;" style="text;html=1;align=center;verticalAlign=middle;resizable=0;points=[];autosize=1;strokeColor=none;fillColor=none;rotation=-90;" vertex="1" parent="1">
          <mxGeometry x="1265" y="604" width="150" height="30" as="geometry" />
        </mxCell>
        <mxCell id="E6K3Mk7scLyhQb92QcPb-1" style="edgeStyle=orthogonalEdgeStyle;rounded=0;orthogonalLoop=1;jettySize=auto;html=1;strokeColor=#660000;startArrow=none;startFill=0;entryX=0;entryY=0.5;entryDx=0;entryDy=0;" edge="1" parent="1" target="diQf5xCep3zQKc-iaQTr-9">
          <mxGeometry relative="1" as="geometry">
            <mxPoint x="960" y="550" as="targetPoint" />
            <mxPoint x="120" y="750" as="sourcePoint" />
            <Array as="points">
              <mxPoint x="120" y="750" />
              <mxPoint x="880" y="750" />
              <mxPoint x="880" y="560" />
            </Array>
          </mxGeometry>
        </mxCell>
        <mxCell id="E6K3Mk7scLyhQb92QcPb-4" value="" style="triangle;whiteSpace=wrap;html=1;direction=south;fontSize=15;" vertex="1" parent="1">
          <mxGeometry x="1015" y="530" width="10" height="10" as="geometry" />
        </mxCell>
        <mxCell id="E6K3Mk7scLyhQb92QcPb-5" value="" style="triangle;whiteSpace=wrap;html=1;direction=south;fontSize=15;" vertex="1" parent="1">
          <mxGeometry x="1015" y="720" width="10" height="10" as="geometry" />
        </mxCell>
        <mxCell id="E6K3Mk7scLyhQb92QcPb-7" value="" style="triangle;whiteSpace=wrap;html=1;direction=south;fontSize=15;" vertex="1" parent="1">
          <mxGeometry x="1015" y="920" width="10" height="10" as="geometry" />
        </mxCell>
        <mxCell id="E6K3Mk7scLyhQb92QcPb-8" value="" style="triangle;whiteSpace=wrap;html=1;direction=south;fontSize=15;" vertex="1" parent="1">
          <mxGeometry x="1015" y="1120" width="10" height="10" as="geometry" />
        </mxCell>
        <mxCell id="E6K3Mk7scLyhQb92QcPb-10" style="edgeStyle=orthogonalEdgeStyle;rounded=0;orthogonalLoop=1;jettySize=auto;html=1;entryX=0;entryY=0.5;entryDx=0;entryDy=0;strokeColor=#660000;startArrow=oval;startFill=1;" edge="1" parent="1" target="HLgv1WAKyZuzztX_X7mY-12">
          <mxGeometry relative="1" as="geometry">
            <mxPoint x="990" y="760" as="targetPoint" />
            <mxPoint x="880" y="750" as="sourcePoint" />
            <Array as="points">
              <mxPoint x="880" y="950" />
            </Array>
          </mxGeometry>
        </mxCell>
        <mxCell id="E6K3Mk7scLyhQb92QcPb-11" style="edgeStyle=orthogonalEdgeStyle;rounded=0;orthogonalLoop=1;jettySize=auto;html=1;entryX=0;entryY=0.5;entryDx=0;entryDy=0;strokeColor=#660000;startArrow=oval;startFill=1;" edge="1" parent="1">
          <mxGeometry relative="1" as="geometry">
            <mxPoint x="980" y="1150" as="targetPoint" />
            <mxPoint x="880" y="950" as="sourcePoint" />
            <Array as="points">
              <mxPoint x="880" y="1150" />
            </Array>
          </mxGeometry>
        </mxCell>
        <mxCell id="wbbK24L4D6raIpSAZgQZ-2" value="&lt;font style=&quot;font-size: 15px;&quot;&gt;din&lt;/font&gt;" style="text;html=1;align=right;verticalAlign=middle;resizable=0;points=[];autosize=1;strokeColor=none;fillColor=none;" vertex="1" parent="1">
          <mxGeometry x="60" y="735" width="40" height="30" as="geometry" />
        </mxCell>
        <mxCell id="wbbK24L4D6raIpSAZgQZ-9" style="edgeStyle=orthogonalEdgeStyle;rounded=0;orthogonalLoop=1;jettySize=auto;html=1;entryX=0;entryY=0.5;entryDx=0;entryDy=0;strokeColor=#00FF00;" edge="1" parent="1" target="wbbK24L4D6raIpSAZgQZ-3">
          <mxGeometry relative="1" as="geometry">
            <mxPoint x="200" y="140" as="sourcePoint" />
            <Array as="points">
              <mxPoint x="200" y="1040" />
            </Array>
          </mxGeometry>
        </mxCell>
        <mxCell id="wbbK24L4D6raIpSAZgQZ-11" style="edgeStyle=orthogonalEdgeStyle;rounded=0;orthogonalLoop=1;jettySize=auto;html=1;exitX=1;exitY=0.5;exitDx=0;exitDy=0;strokeColor=#FF0000;" edge="1" parent="1" source="wbbK24L4D6raIpSAZgQZ-3">
          <mxGeometry relative="1" as="geometry">
            <mxPoint x="640" y="1360" as="targetPoint" />
          </mxGeometry>
        </mxCell>
        <mxCell id="wbbK24L4D6raIpSAZgQZ-12" style="edgeStyle=orthogonalEdgeStyle;rounded=0;orthogonalLoop=1;jettySize=auto;html=1;exitX=0.75;exitY=0;exitDx=0;exitDy=0;entryX=0.75;entryY=0;entryDx=0;entryDy=0;strokeColor=#00FF00;" edge="1" parent="1" target="wbbK24L4D6raIpSAZgQZ-3">
          <mxGeometry relative="1" as="geometry">
            <mxPoint x="480" y="140" as="sourcePoint" />
          </mxGeometry>
        </mxCell>
        <mxCell id="wbbK24L4D6raIpSAZgQZ-3" value="" style="rounded=0;whiteSpace=wrap;html=1;" vertex="1" parent="1">
          <mxGeometry x="330" y="1000" width="200" height="80" as="geometry" />
        </mxCell>
        <mxCell id="wbbK24L4D6raIpSAZgQZ-4" value="&lt;font style=&quot;font-size: 15px;&quot;&gt;synchronizer_ff: sr_flip_flop&lt;/font&gt;" style="rounded=0;whiteSpace=wrap;html=1;" vertex="1" parent="1">
          <mxGeometry x="330" y="1080" width="200" height="20" as="geometry" />
        </mxCell>
        <mxCell id="wbbK24L4D6raIpSAZgQZ-5" value="&lt;font style=&quot;font-size: 15px;&quot;&gt;set&lt;/font&gt;" style="text;html=1;align=left;verticalAlign=middle;resizable=0;points=[];autosize=1;strokeColor=none;fillColor=none;" vertex="1" parent="1">
          <mxGeometry x="335" y="1025" width="40" height="30" as="geometry" />
        </mxCell>
        <mxCell id="wbbK24L4D6raIpSAZgQZ-10" style="edgeStyle=orthogonalEdgeStyle;rounded=0;orthogonalLoop=1;jettySize=auto;html=1;entryX=0.25;entryY=0;entryDx=0;entryDy=0;startArrow=oval;startFill=1;strokeColor=#0000FF;" edge="1" parent="1" target="wbbK24L4D6raIpSAZgQZ-3">
          <mxGeometry relative="1" as="geometry">
            <mxPoint x="380" y="880" as="sourcePoint" />
            <Array as="points">
              <mxPoint x="380" y="940" />
              <mxPoint x="380" y="940" />
            </Array>
          </mxGeometry>
        </mxCell>
        <mxCell id="wbbK24L4D6raIpSAZgQZ-6" value="" style="triangle;whiteSpace=wrap;html=1;direction=south;fontSize=15;" vertex="1" parent="1">
          <mxGeometry x="375" y="1000" width="10" height="10" as="geometry" />
        </mxCell>
        <mxCell id="wbbK24L4D6raIpSAZgQZ-7" value="&lt;font style=&quot;font-size: 15px;&quot;&gt;out&lt;/font&gt;" style="text;html=1;align=right;verticalAlign=middle;resizable=0;points=[];autosize=1;strokeColor=none;fillColor=none;" vertex="1" parent="1">
          <mxGeometry x="485" y="1025" width="40" height="30" as="geometry" />
        </mxCell>
        <mxCell id="wbbK24L4D6raIpSAZgQZ-8" value="&lt;font style=&quot;font-size: 15px;&quot;&gt;datamux_sel&lt;/font&gt;" style="text;html=1;align=left;verticalAlign=middle;resizable=0;points=[];autosize=1;strokeColor=none;fillColor=none;rotation=-90;" vertex="1" parent="1">
          <mxGeometry x="1275" y="50" width="110" height="30" as="geometry" />
        </mxCell>
        <mxCell id="wbbK24L4D6raIpSAZgQZ-13" value="&lt;font style=&quot;font-size: 15px;&quot;&gt;clr_n&lt;/font&gt;" style="text;html=1;align=center;verticalAlign=middle;resizable=0;points=[];autosize=1;strokeColor=none;fillColor=none;" vertex="1" parent="1">
          <mxGeometry x="450" y="995" width="60" height="30" as="geometry" />
        </mxCell>
        <mxCell id="wbbK24L4D6raIpSAZgQZ-14" value="&lt;font style=&quot;font-size: 15px;&quot;&gt;synch_set&lt;/font&gt;" style="text;html=1;align=left;verticalAlign=middle;resizable=0;points=[];autosize=1;strokeColor=none;fillColor=none;rotation=-90;" vertex="1" parent="1">
          <mxGeometry x="155" y="60" width="90" height="30" as="geometry" />
        </mxCell>
        <mxCell id="wbbK24L4D6raIpSAZgQZ-15" value="&lt;font style=&quot;font-size: 15px;&quot;&gt;synch_clear_n&lt;/font&gt;" style="text;html=1;align=left;verticalAlign=middle;resizable=0;points=[];autosize=1;strokeColor=none;fillColor=none;rotation=-90;" vertex="1" parent="1">
          <mxGeometry x="420" y="45" width="120" height="30" as="geometry" />
        </mxCell>
        <mxCell id="Xgv7zqclGWq1w2mpQ4G9-1" value="&lt;font style=&quot;font-size: 15px;&quot;&gt;CS_n&lt;/font&gt;" style="text;html=1;align=right;verticalAlign=middle;resizable=0;points=[];autosize=1;strokeColor=none;fillColor=none;" vertex="1" parent="1">
          <mxGeometry x="40" y="1225" width="60" height="30" as="geometry" />
        </mxCell>
        <mxCell id="g99vvuMsvLRfGRZVdRXV-1" value="" style="endArrow=classic;html=1;rounded=0;strokeColor=#FF0000;" edge="1" parent="1">
          <mxGeometry width="50" height="50" relative="1" as="geometry">
            <mxPoint x="200" y="1240" as="sourcePoint" />
            <mxPoint x="200" y="1360" as="targetPoint" />
          </mxGeometry>
        </mxCell>
        <mxCell id="g99vvuMsvLRfGRZVdRXV-2" value="" style="endArrow=classic;html=1;rounded=0;" edge="1" parent="1">
          <mxGeometry width="50" height="50" relative="1" as="geometry">
            <mxPoint x="120" y="1240" as="sourcePoint" />
            <mxPoint x="200" y="1240" as="targetPoint" />
          </mxGeometry>
        </mxCell>
        <mxCell id="g99vvuMsvLRfGRZVdRXV-3" value="&lt;div align=&quot;left&quot;&gt;&lt;font style=&quot;font-size: 15px;&quot;&gt;CS_n&lt;/font&gt;&lt;/div&gt;" style="text;html=1;align=left;verticalAlign=middle;resizable=0;points=[];autosize=1;strokeColor=none;fillColor=none;rotation=90;" vertex="1" parent="1">
          <mxGeometry x="170" y="1395" width="60" height="30" as="geometry" />
        </mxCell>
        <mxCell id="g99vvuMsvLRfGRZVdRXV-4" value="&lt;font style=&quot;font-size: 15px;&quot;&gt;start_sampling&lt;/font&gt;" style="text;html=1;align=left;verticalAlign=middle;resizable=0;points=[];autosize=1;strokeColor=none;fillColor=none;rotation=90;" vertex="1" parent="1">
          <mxGeometry x="580" y="1425" width="120" height="30" as="geometry" />
        </mxCell>
        <mxCell id="g99vvuMsvLRfGRZVdRXV-13" style="edgeStyle=orthogonalEdgeStyle;rounded=0;orthogonalLoop=1;jettySize=auto;html=1;exitX=0.5;exitY=0;exitDx=0;exitDy=0;entryX=0.5;entryY=0;entryDx=0;entryDy=0;strokeColor=#00FF00;" edge="1" parent="1" target="g99vvuMsvLRfGRZVdRXV-6">
          <mxGeometry relative="1" as="geometry">
            <mxPoint x="1519.8888888888887" y="140" as="sourcePoint" />
          </mxGeometry>
        </mxCell>
        <mxCell id="1Vcx6lmhHWEhKhrYOVil-1" style="edgeStyle=orthogonalEdgeStyle;rounded=0;orthogonalLoop=1;jettySize=auto;html=1;exitX=1;exitY=0.5;exitDx=0;exitDy=0;" edge="1" parent="1" source="g99vvuMsvLRfGRZVdRXV-6">
          <mxGeometry relative="1" as="geometry">
            <mxPoint x="1720" y="620" as="targetPoint" />
          </mxGeometry>
        </mxCell>
        <mxCell id="g99vvuMsvLRfGRZVdRXV-6" value="" style="rounded=0;whiteSpace=wrap;html=1;horizontal=1;" vertex="1" parent="1">
          <mxGeometry x="1440" y="590" width="160" height="60" as="geometry" />
        </mxCell>
        <mxCell id="g99vvuMsvLRfGRZVdRXV-7" value="&lt;font style=&quot;font-size: 15px;&quot;&gt;dataout: register&lt;br&gt;&lt;/font&gt;" style="rounded=0;whiteSpace=wrap;html=1;" vertex="1" parent="1">
          <mxGeometry x="1440" y="650" width="160" height="20" as="geometry" />
        </mxCell>
        <mxCell id="g99vvuMsvLRfGRZVdRXV-8" value="&lt;font style=&quot;font-size: 15px;&quot;&gt;dout&lt;/font&gt;" style="text;html=1;align=right;verticalAlign=middle;resizable=0;points=[];autosize=1;strokeColor=none;fillColor=none;" vertex="1" parent="1">
          <mxGeometry x="1545" y="606" width="50" height="30" as="geometry" />
        </mxCell>
        <mxCell id="g99vvuMsvLRfGRZVdRXV-9" value="&lt;div align=&quot;left&quot;&gt;&lt;font style=&quot;font-size: 15px;&quot;&gt;din&lt;/font&gt;&lt;/div&gt;" style="text;html=1;align=left;verticalAlign=middle;resizable=0;points=[];autosize=1;strokeColor=none;fillColor=none;" vertex="1" parent="1">
          <mxGeometry x="1445" y="606" width="40" height="30" as="geometry" />
        </mxCell>
        <mxCell id="g99vvuMsvLRfGRZVdRXV-10" value="&lt;font style=&quot;font-size: 15px;&quot;&gt;en&lt;/font&gt;" style="text;html=1;align=center;verticalAlign=middle;resizable=0;points=[];autosize=1;strokeColor=none;fillColor=none;" vertex="1" parent="1">
          <mxGeometry x="1500" y="585" width="40" height="30" as="geometry" />
        </mxCell>
        <mxCell id="g99vvuMsvLRfGRZVdRXV-11" value="" style="triangle;whiteSpace=wrap;html=1;direction=south;fontSize=15;" vertex="1" parent="1">
          <mxGeometry x="1440" y="590" width="10" height="10" as="geometry" />
        </mxCell>
        <mxCell id="g99vvuMsvLRfGRZVdRXV-14" value="&lt;font style=&quot;font-size: 15px;&quot;&gt;dataout_sel&lt;/font&gt;" style="text;html=1;align=left;verticalAlign=middle;resizable=0;points=[];autosize=1;strokeColor=none;fillColor=none;rotation=-90;" vertex="1" parent="1">
          <mxGeometry x="1470" y="55" width="100" height="30" as="geometry" />
        </mxCell>
        <mxCell id="1Vcx6lmhHWEhKhrYOVil-2" value="&lt;div align=&quot;left&quot;&gt;&lt;font style=&quot;font-size: 15px;&quot;&gt;dout&lt;/font&gt;&lt;/div&gt;" style="text;html=1;align=left;verticalAlign=middle;resizable=0;points=[];autosize=1;strokeColor=none;fillColor=none;" vertex="1" parent="1">
          <mxGeometry x="1740" y="606" width="50" height="30" as="geometry" />
        </mxCell>
        <mxCell id="ls-NbxO5XrgujHb64QOx-1" style="edgeStyle=orthogonalEdgeStyle;rounded=0;orthogonalLoop=1;jettySize=auto;html=1;exitX=0.5;exitY=0;exitDx=0;exitDy=0;strokeColor=#00FF00;" edge="1" parent="1">
          <mxGeometry relative="1" as="geometry">
            <mxPoint x="1640" y="440" as="targetPoint" />
            <mxPoint x="1639.9988888888886" y="140" as="sourcePoint" />
          </mxGeometry>
        </mxCell>
        <mxCell id="ls-NbxO5XrgujHb64QOx-2" style="edgeStyle=orthogonalEdgeStyle;rounded=0;orthogonalLoop=1;jettySize=auto;html=1;exitX=1;exitY=0.5;exitDx=0;exitDy=0;" edge="1" parent="1">
          <mxGeometry relative="1" as="geometry">
            <mxPoint x="1720" y="440" as="targetPoint" />
            <mxPoint x="1640" y="440" as="sourcePoint" />
          </mxGeometry>
        </mxCell>
        <mxCell id="ls-NbxO5XrgujHb64QOx-3" value="&lt;font style=&quot;font-size: 15px;&quot;&gt;valid&lt;/font&gt;" style="text;html=1;align=left;verticalAlign=middle;resizable=0;points=[];autosize=1;strokeColor=none;fillColor=none;" vertex="1" parent="1">
          <mxGeometry x="1740" y="425" width="50" height="30" as="geometry" />
        </mxCell>
      </root>
    </mxGraphModel>
  </diagram>
</mxfile>
